%TF.GenerationSoftware,KiCad,Pcbnew,8.0.3*%
%TF.CreationDate,2024-07-18T14:45:25+02:00*%
%TF.ProjectId,usb-pd-mch-hotplate,7573622d-7064-42d6-9d63-682d686f7470,rev?*%
%TF.SameCoordinates,Original*%
%TF.FileFunction,Copper,L1,Top*%
%TF.FilePolarity,Positive*%
%FSLAX46Y46*%
G04 Gerber Fmt 4.6, Leading zero omitted, Abs format (unit mm)*
G04 Created by KiCad (PCBNEW 8.0.3) date 2024-07-18 14:45:25*
%MOMM*%
%LPD*%
G01*
G04 APERTURE LIST*
G04 Aperture macros list*
%AMRoundRect*
0 Rectangle with rounded corners*
0 $1 Rounding radius*
0 $2 $3 $4 $5 $6 $7 $8 $9 X,Y pos of 4 corners*
0 Add a 4 corners polygon primitive as box body*
4,1,4,$2,$3,$4,$5,$6,$7,$8,$9,$2,$3,0*
0 Add four circle primitives for the rounded corners*
1,1,$1+$1,$2,$3*
1,1,$1+$1,$4,$5*
1,1,$1+$1,$6,$7*
1,1,$1+$1,$8,$9*
0 Add four rect primitives between the rounded corners*
20,1,$1+$1,$2,$3,$4,$5,0*
20,1,$1+$1,$4,$5,$6,$7,0*
20,1,$1+$1,$6,$7,$8,$9,0*
20,1,$1+$1,$8,$9,$2,$3,0*%
G04 Aperture macros list end*
%TA.AperFunction,SMDPad,CuDef*%
%ADD10RoundRect,0.250000X-0.475000X0.337500X-0.475000X-0.337500X0.475000X-0.337500X0.475000X0.337500X0*%
%TD*%
%TA.AperFunction,ComponentPad*%
%ADD11R,1.700000X1.700000*%
%TD*%
%TA.AperFunction,ComponentPad*%
%ADD12O,1.700000X1.700000*%
%TD*%
%TA.AperFunction,SMDPad,CuDef*%
%ADD13RoundRect,0.250000X-0.337500X-0.475000X0.337500X-0.475000X0.337500X0.475000X-0.337500X0.475000X0*%
%TD*%
%TA.AperFunction,SMDPad,CuDef*%
%ADD14RoundRect,0.250000X0.450000X-0.350000X0.450000X0.350000X-0.450000X0.350000X-0.450000X-0.350000X0*%
%TD*%
%TA.AperFunction,SMDPad,CuDef*%
%ADD15RoundRect,0.250000X0.475000X-0.337500X0.475000X0.337500X-0.475000X0.337500X-0.475000X-0.337500X0*%
%TD*%
%TA.AperFunction,ComponentPad*%
%ADD16C,0.800000*%
%TD*%
%TA.AperFunction,ComponentPad*%
%ADD17C,5.000000*%
%TD*%
%TA.AperFunction,SMDPad,CuDef*%
%ADD18RoundRect,0.250000X0.325000X0.450000X-0.325000X0.450000X-0.325000X-0.450000X0.325000X-0.450000X0*%
%TD*%
%TA.AperFunction,ComponentPad*%
%ADD19C,1.500000*%
%TD*%
%TA.AperFunction,ComponentPad*%
%ADD20C,1.950000*%
%TD*%
%TA.AperFunction,SMDPad,CuDef*%
%ADD21RoundRect,0.250000X0.450000X-0.325000X0.450000X0.325000X-0.450000X0.325000X-0.450000X-0.325000X0*%
%TD*%
%TA.AperFunction,SMDPad,CuDef*%
%ADD22RoundRect,0.250000X-0.450000X0.350000X-0.450000X-0.350000X0.450000X-0.350000X0.450000X0.350000X0*%
%TD*%
%TA.AperFunction,SMDPad,CuDef*%
%ADD23RoundRect,0.162500X-0.617500X-0.162500X0.617500X-0.162500X0.617500X0.162500X-0.617500X0.162500X0*%
%TD*%
%TA.AperFunction,SMDPad,CuDef*%
%ADD24RoundRect,0.250000X-0.325000X-0.450000X0.325000X-0.450000X0.325000X0.450000X-0.325000X0.450000X0*%
%TD*%
%TA.AperFunction,SMDPad,CuDef*%
%ADD25R,0.900000X0.800000*%
%TD*%
%TA.AperFunction,SMDPad,CuDef*%
%ADD26R,0.800000X1.400000*%
%TD*%
%TA.AperFunction,ComponentPad*%
%ADD27R,1.500000X1.500000*%
%TD*%
%TA.AperFunction,SMDPad,CuDef*%
%ADD28RoundRect,0.250000X0.350000X0.450000X-0.350000X0.450000X-0.350000X-0.450000X0.350000X-0.450000X0*%
%TD*%
%TA.AperFunction,SMDPad,CuDef*%
%ADD29R,2.000000X1.000000*%
%TD*%
%TA.AperFunction,SMDPad,CuDef*%
%ADD30R,1.000000X0.520000*%
%TD*%
%TA.AperFunction,SMDPad,CuDef*%
%ADD31R,1.000000X0.270000*%
%TD*%
%TA.AperFunction,ComponentPad*%
%ADD32O,2.300000X1.300000*%
%TD*%
%TA.AperFunction,ComponentPad*%
%ADD33O,2.600000X1.300000*%
%TD*%
%TA.AperFunction,SMDPad,CuDef*%
%ADD34RoundRect,0.250000X0.337500X0.475000X-0.337500X0.475000X-0.337500X-0.475000X0.337500X-0.475000X0*%
%TD*%
%TA.AperFunction,SMDPad,CuDef*%
%ADD35R,1.020000X3.200000*%
%TD*%
%TA.AperFunction,SMDPad,CuDef*%
%ADD36R,1.950000X2.700000*%
%TD*%
%TA.AperFunction,SMDPad,CuDef*%
%ADD37RoundRect,0.250000X-0.850000X-0.350000X0.850000X-0.350000X0.850000X0.350000X-0.850000X0.350000X0*%
%TD*%
%TA.AperFunction,SMDPad,CuDef*%
%ADD38RoundRect,0.250000X-1.275000X-1.125000X1.275000X-1.125000X1.275000X1.125000X-1.275000X1.125000X0*%
%TD*%
%TA.AperFunction,SMDPad,CuDef*%
%ADD39RoundRect,0.249997X-2.950003X-2.650003X2.950003X-2.650003X2.950003X2.650003X-2.950003X2.650003X0*%
%TD*%
%TA.AperFunction,SMDPad,CuDef*%
%ADD40RoundRect,0.075000X-0.075000X0.662500X-0.075000X-0.662500X0.075000X-0.662500X0.075000X0.662500X0*%
%TD*%
%TA.AperFunction,SMDPad,CuDef*%
%ADD41RoundRect,0.075000X-0.662500X0.075000X-0.662500X-0.075000X0.662500X-0.075000X0.662500X0.075000X0*%
%TD*%
%TA.AperFunction,ViaPad*%
%ADD42C,0.800000*%
%TD*%
%TA.AperFunction,Conductor*%
%ADD43C,0.300000*%
%TD*%
%TA.AperFunction,Conductor*%
%ADD44C,0.500000*%
%TD*%
%TA.AperFunction,Conductor*%
%ADD45C,0.250000*%
%TD*%
%TA.AperFunction,Conductor*%
%ADD46C,1.000000*%
%TD*%
G04 APERTURE END LIST*
D10*
%TO.P,C5,1*%
%TO.N,+3V3*%
X146700000Y-79562500D03*
%TO.P,C5,2*%
%TO.N,GND*%
X146700000Y-81637500D03*
%TD*%
D11*
%TO.P,J4,1,Pin_1*%
%TO.N,GND*%
X160100000Y-116800000D03*
D12*
%TO.P,J4,2,Pin_2*%
%TO.N,/SWDIO*%
X157560000Y-116800000D03*
%TO.P,J4,3,Pin_3*%
%TO.N,/SWCLK*%
X155020000Y-116800000D03*
%TO.P,J4,4,Pin_4*%
%TO.N,/UART_RX*%
X152480000Y-116800000D03*
%TO.P,J4,5,Pin_5*%
%TO.N,/UART_TX*%
X149940000Y-116800000D03*
%TO.P,J4,6,Pin_6*%
%TO.N,+3V3*%
X147400000Y-116800000D03*
%TD*%
D13*
%TO.P,C4,1*%
%TO.N,+3V3*%
X156062500Y-79700000D03*
%TO.P,C4,2*%
%TO.N,GND*%
X158137500Y-79700000D03*
%TD*%
D14*
%TO.P,R10,1*%
%TO.N,GND*%
X119700000Y-85450000D03*
%TO.P,R10,2*%
%TO.N,/BTN_UP*%
X119700000Y-83450000D03*
%TD*%
D15*
%TO.P,C1,1*%
%TO.N,GND*%
X160000000Y-71337500D03*
%TO.P,C1,2*%
%TO.N,+3V3*%
X160000000Y-69262500D03*
%TD*%
D16*
%TO.P,H3,1,1*%
%TO.N,GND*%
X111725000Y-118600000D03*
X112274175Y-117274175D03*
X112274175Y-119925825D03*
X113600000Y-116725000D03*
D17*
X113600000Y-118600000D03*
D16*
X113600000Y-120475000D03*
X114925825Y-117274175D03*
X114925825Y-119925825D03*
X115475000Y-118600000D03*
%TD*%
D15*
%TO.P,C12,1*%
%TO.N,GND*%
X162000000Y-71337500D03*
%TO.P,C12,2*%
%TO.N,+3V3*%
X162000000Y-69262500D03*
%TD*%
D18*
%TO.P,L1,1*%
%TO.N,+3V3*%
X144825000Y-79600000D03*
%TO.P,L1,2*%
%TO.N,+3.3VA*%
X142775000Y-79600000D03*
%TD*%
D16*
%TO.P,H1,1,1*%
%TO.N,GND*%
X167225000Y-63600000D03*
X167774175Y-62274175D03*
X167774175Y-64925825D03*
X169100000Y-61725000D03*
D17*
X169100000Y-63600000D03*
D16*
X169100000Y-65475000D03*
X170425825Y-62274175D03*
X170425825Y-64925825D03*
X170975000Y-63600000D03*
%TD*%
%TO.P,H4,1,1*%
%TO.N,GND*%
X167225000Y-118600000D03*
X167774175Y-117274175D03*
X167774175Y-119925825D03*
X169100000Y-116725000D03*
D17*
X169100000Y-118600000D03*
D16*
X169100000Y-120475000D03*
X170425825Y-117274175D03*
X170425825Y-119925825D03*
X170975000Y-118600000D03*
%TD*%
D13*
%TO.P,C2,1*%
%TO.N,VBUS*%
X164662500Y-75200000D03*
%TO.P,C2,2*%
%TO.N,GND*%
X166737500Y-75200000D03*
%TD*%
D10*
%TO.P,C11,1*%
%TO.N,Net-(C11-Pad1)*%
X165250000Y-100262500D03*
%TO.P,C11,2*%
%TO.N,GND*%
X165250000Y-102337500D03*
%TD*%
D13*
%TO.P,C3,1*%
%TO.N,+3V3*%
X159862500Y-73200000D03*
%TO.P,C3,2*%
%TO.N,GND*%
X161937500Y-73200000D03*
%TD*%
D19*
%TO.P,BTN_UP,1,1*%
%TO.N,/BTN_UP*%
X111950000Y-82950000D03*
%TO.P,BTN_UP,2,2*%
%TO.N,+3V3*%
X111950000Y-87450000D03*
D20*
%TO.P,BTN_UP,MH1*%
%TO.N,N/C*%
X114500000Y-81700000D03*
%TO.P,BTN_UP,MH2*%
X114500000Y-88700000D03*
%TD*%
D19*
%TO.P,BTN_STARTSTOP,1*%
%TO.N,/BTN_START_STOP*%
X114400000Y-105200000D03*
%TO.P,BTN_STARTSTOP,2*%
X119400000Y-105200000D03*
%TO.P,BTN_STARTSTOP,3*%
%TO.N,+3V3*%
X114400000Y-109700000D03*
%TO.P,BTN_STARTSTOP,4*%
X119400000Y-109700000D03*
%TO.P,BTN_STARTSTOP,5,K*%
%TO.N,Net-(S1-K)*%
X116900000Y-104300000D03*
%TO.P,BTN_STARTSTOP,6,A*%
%TO.N,/LED_START_STOP*%
X116900000Y-110600000D03*
%TD*%
D21*
%TO.P,D2,1,K*%
%TO.N,Net-(D2-K)*%
X171000000Y-71325000D03*
%TO.P,D2,2,A*%
%TO.N,+3V3*%
X171000000Y-69275000D03*
%TD*%
D22*
%TO.P,R4,1*%
%TO.N,Net-(D1-K)*%
X139700000Y-74500000D03*
%TO.P,R4,2*%
%TO.N,GND*%
X139700000Y-76500000D03*
%TD*%
D23*
%TO.P,U3,1,OUT*%
%TO.N,+3V3*%
X164850000Y-69250000D03*
%TO.P,U3,2,GND*%
%TO.N,GND*%
X164850000Y-70200000D03*
%TO.P,U3,3,IN*%
%TO.N,VBUS*%
X164850000Y-71150000D03*
%TO.P,U3,4*%
%TO.N,N/C*%
X167550000Y-71150000D03*
%TO.P,U3,5*%
X167550000Y-69250000D03*
%TD*%
D24*
%TO.P,D1,1,K*%
%TO.N,Net-(D1-K)*%
X142975000Y-74500000D03*
%TO.P,D1,2,A*%
%TO.N,/LED_OUT*%
X145025000Y-74500000D03*
%TD*%
D21*
%TO.P,FB1,1*%
%TO.N,Net-(FB1-Pad1)*%
X164000000Y-79425000D03*
%TO.P,FB1,2*%
%TO.N,VBUS*%
X164000000Y-77375000D03*
%TD*%
D25*
%TO.P,Y1,1,1*%
%TO.N,/CLK0*%
X152100000Y-62000000D03*
%TO.P,Y1,2,2*%
%TO.N,GND*%
X150700000Y-62000000D03*
%TO.P,Y1,3,3*%
%TO.N,/CLK1*%
X150700000Y-63100000D03*
%TO.P,Y1,4,4*%
%TO.N,GND*%
X152100000Y-63100000D03*
%TD*%
D26*
%TO.P,SW1,1,A*%
%TO.N,GND*%
X157850000Y-65750000D03*
%TO.P,SW1,2,B*%
%TO.N,Net-(SW1-B)*%
X159600000Y-61750000D03*
%TO.P,SW1,3,C*%
%TO.N,+3V3*%
X161350000Y-65750000D03*
%TD*%
D19*
%TO.P,RESET,1,1*%
%TO.N,Net-(C11-Pad1)*%
X166940000Y-95600000D03*
%TO.P,RESET,2,2*%
%TO.N,GND*%
X166940000Y-91100000D03*
D20*
%TO.P,RESET,MH1*%
%TO.N,N/C*%
X164390000Y-96850000D03*
%TO.P,RESET,MH2*%
X164390000Y-89850000D03*
%TD*%
D22*
%TO.P,R7,1*%
%TO.N,Net-(SW1-B)*%
X164100000Y-62900000D03*
%TO.P,R7,2*%
%TO.N,/BOOT*%
X164100000Y-64900000D03*
%TD*%
%TO.P,R11,1*%
%TO.N,GND*%
X118120000Y-92760000D03*
%TO.P,R11,2*%
%TO.N,/BTN_DOWN*%
X118120000Y-94760000D03*
%TD*%
D27*
%TO.P,J6,1,Pin_1*%
%TO.N,Net-(J6-Pin_1)*%
X127400000Y-93200000D03*
D19*
%TO.P,J6,2,Pin_2*%
%TO.N,VBUS*%
X124860000Y-93200000D03*
%TD*%
D10*
%TO.P,C10,1*%
%TO.N,+3.3VA*%
X138800000Y-79462500D03*
%TO.P,C10,2*%
%TO.N,GND*%
X138800000Y-81537500D03*
%TD*%
D13*
%TO.P,C13,1*%
%TO.N,VBUS*%
X164862500Y-73200000D03*
%TO.P,C13,2*%
%TO.N,GND*%
X166937500Y-73200000D03*
%TD*%
D14*
%TO.P,R9,1*%
%TO.N,+3V3*%
X163000000Y-102300000D03*
%TO.P,R9,2*%
%TO.N,Net-(C11-Pad1)*%
X163000000Y-100300000D03*
%TD*%
D16*
%TO.P,H2,1,1*%
%TO.N,GND*%
X111725000Y-63600000D03*
X112274175Y-62274175D03*
X112274175Y-64925825D03*
X113600000Y-61725000D03*
D17*
X113600000Y-63600000D03*
D16*
X113600000Y-65475000D03*
X114925825Y-62274175D03*
X114925825Y-64925825D03*
X115475000Y-63600000D03*
%TD*%
D28*
%TO.P,R3,1*%
%TO.N,+3V3*%
X140250000Y-90750000D03*
%TO.P,R3,2*%
%TO.N,/ADC_TERMO_SENSOR*%
X138250000Y-90750000D03*
%TD*%
D10*
%TO.P,C9,1*%
%TO.N,+3.3VA*%
X140800000Y-79462500D03*
%TO.P,C9,2*%
%TO.N,GND*%
X140800000Y-81537500D03*
%TD*%
D28*
%TO.P,R6,1*%
%TO.N,/MCH_CONTROL*%
X128200000Y-83300000D03*
%TO.P,R6,2*%
%TO.N,Net-(Q1-G)*%
X126200000Y-83300000D03*
%TD*%
D29*
%TO.P,J2,*%
%TO.N,*%
X170650000Y-83500000D03*
X170650000Y-80700000D03*
D30*
%TO.P,J2,A1,GND*%
%TO.N,GND*%
X166450000Y-85200000D03*
%TO.P,J2,A4,VBUS*%
%TO.N,Net-(FB1-Pad1)*%
X166450000Y-84450000D03*
D31*
%TO.P,J2,A5,CC1*%
%TO.N,/USB_CC1*%
X166450000Y-83850000D03*
%TO.P,J2,A6,D+*%
%TO.N,/USB_D+*%
X166450000Y-82350000D03*
%TO.P,J2,A7,D-*%
%TO.N,/USB_D-*%
X166450000Y-81350000D03*
%TO.P,J2,A8,SBU1*%
%TO.N,unconnected-(J2-SBU1-PadA8)*%
X166450000Y-80350000D03*
D30*
%TO.P,J2,A9,VBUS*%
%TO.N,Net-(FB1-Pad1)*%
X166450000Y-79750000D03*
%TO.P,J2,A12,GND*%
%TO.N,GND*%
X166450000Y-79000000D03*
%TO.P,J2,B1,GND*%
X166450000Y-79000000D03*
%TO.P,J2,B4,VBUS*%
%TO.N,Net-(FB1-Pad1)*%
X166450000Y-79750000D03*
D31*
%TO.P,J2,B5,CC2*%
%TO.N,/USB_CC2*%
X166450000Y-80850000D03*
%TO.P,J2,B6,D+*%
%TO.N,/USB_D+*%
X166450000Y-81850000D03*
%TO.P,J2,B7,D-*%
%TO.N,/USB_D-*%
X166450000Y-82850000D03*
%TO.P,J2,B8,SBU2*%
%TO.N,unconnected-(J2-SBU2-PadB8)*%
X166450000Y-83350000D03*
D30*
%TO.P,J2,B9,VBUS*%
%TO.N,Net-(FB1-Pad1)*%
X166450000Y-84450000D03*
%TO.P,J2,B12,GND*%
%TO.N,GND*%
X166450000Y-85200000D03*
D32*
%TO.P,J2,S1,SHIELD*%
X166825000Y-86420000D03*
D33*
X170650000Y-86420000D03*
D32*
X166825000Y-77780000D03*
D33*
X170650000Y-77780000D03*
%TD*%
D34*
%TO.P,C7,1*%
%TO.N,/CLK0*%
X154437500Y-64850000D03*
%TO.P,C7,2*%
%TO.N,GND*%
X152362500Y-64850000D03*
%TD*%
D35*
%TO.P,J1,1,Pin_1*%
%TO.N,GND*%
X135630000Y-94950000D03*
%TO.P,J1,2,Pin_2*%
%TO.N,/ADC_TERMO_SENSOR*%
X138170000Y-94950000D03*
D36*
%TO.P,J1,MP1*%
%TO.N,N/C*%
X131905000Y-98400000D03*
%TO.P,J1,MP2*%
X131905000Y-103300000D03*
%TO.P,J1,MP3*%
X141895000Y-98400000D03*
%TO.P,J1,MP4*%
X141895000Y-103300000D03*
%TD*%
D28*
%TO.P,R5,1*%
%TO.N,Net-(D2-K)*%
X171100000Y-73200000D03*
%TO.P,R5,2*%
%TO.N,GND*%
X169100000Y-73200000D03*
%TD*%
D34*
%TO.P,C6,1*%
%TO.N,+3V3*%
X155887500Y-68150000D03*
%TO.P,C6,2*%
%TO.N,GND*%
X153812500Y-68150000D03*
%TD*%
D11*
%TO.P,J8,1,Pin_1*%
%TO.N,/DISP_I2C_SDA*%
X148320000Y-97200000D03*
D12*
%TO.P,J8,2,Pin_2*%
%TO.N,/DISP_I2C_SCL*%
X150860000Y-97200000D03*
%TO.P,J8,3,Pin_3*%
%TO.N,GND*%
X153400000Y-97200000D03*
%TO.P,J8,4,Pin_4*%
%TO.N,+3V3*%
X155940000Y-97200000D03*
%TD*%
D22*
%TO.P,R2,1*%
%TO.N,GND*%
X118120000Y-99100000D03*
%TO.P,R2,2*%
%TO.N,Net-(S1-K)*%
X118120000Y-101100000D03*
%TD*%
D19*
%TO.P,BTN_DOWN,1,1*%
%TO.N,/BTN_DOWN*%
X111950000Y-94300000D03*
%TO.P,BTN_DOWN,2,2*%
%TO.N,+3V3*%
X111950000Y-98800000D03*
D20*
%TO.P,BTN_DOWN,MH1*%
%TO.N,N/C*%
X114500000Y-93050000D03*
%TO.P,BTN_DOWN,MH2*%
X114500000Y-100050000D03*
%TD*%
D37*
%TO.P,Q1,1,G*%
%TO.N,Net-(Q1-G)*%
X125560000Y-85620000D03*
D38*
%TO.P,Q1,2,D*%
%TO.N,Net-(J6-Pin_1)*%
X130185000Y-86375000D03*
X130185000Y-89425000D03*
D39*
X131860000Y-87900000D03*
D38*
X133535000Y-86375000D03*
X133535000Y-89425000D03*
D37*
%TO.P,Q1,3,S*%
%TO.N,GND*%
X125560000Y-90180000D03*
%TD*%
D40*
%TO.P,U1,1,VBAT*%
%TO.N,+3V3*%
X154250000Y-70637500D03*
%TO.P,U1,2,PC13*%
%TO.N,unconnected-(U1-PC13-Pad2)*%
X153750000Y-70637500D03*
%TO.P,U1,3,PC14*%
%TO.N,unconnected-(U1-PC14-Pad3)*%
X153250000Y-70637500D03*
%TO.P,U1,4,PC15*%
%TO.N,unconnected-(U1-PC15-Pad4)*%
X152750000Y-70637500D03*
%TO.P,U1,5,PF0*%
%TO.N,/CLK0*%
X152250000Y-70637500D03*
%TO.P,U1,6,PF1*%
%TO.N,/CLK1*%
X151750000Y-70637500D03*
%TO.P,U1,7,PG10*%
%TO.N,/RESET*%
X151250000Y-70637500D03*
%TO.P,U1,8,PA0*%
%TO.N,/ADC_TERMO_SENSOR*%
X150750000Y-70637500D03*
%TO.P,U1,9,PA1*%
%TO.N,unconnected-(U1-PA1-Pad9)*%
X150250000Y-70637500D03*
%TO.P,U1,10,PA2*%
%TO.N,unconnected-(U1-PA2-Pad10)*%
X149750000Y-70637500D03*
%TO.P,U1,11,PA3*%
%TO.N,unconnected-(U1-PA3-Pad11)*%
X149250000Y-70637500D03*
%TO.P,U1,12,PA4*%
%TO.N,/BTN_UP*%
X148750000Y-70637500D03*
D41*
%TO.P,U1,13,PA5*%
%TO.N,/BTN_DOWN*%
X147337500Y-72050000D03*
%TO.P,U1,14,PA6*%
%TO.N,/BTN_START_STOP*%
X147337500Y-72550000D03*
%TO.P,U1,15,PA7*%
%TO.N,/LED_START_STOP*%
X147337500Y-73050000D03*
%TO.P,U1,16,PB0*%
%TO.N,/LED_OUT*%
X147337500Y-73550000D03*
%TO.P,U1,17,PB1*%
%TO.N,unconnected-(U1-PB1-Pad17)*%
X147337500Y-74050000D03*
%TO.P,U1,18,PB2*%
%TO.N,unconnected-(U1-PB2-Pad18)*%
X147337500Y-74550000D03*
%TO.P,U1,19,VSSA*%
%TO.N,GND*%
X147337500Y-75050000D03*
%TO.P,U1,20,VREF+*%
%TO.N,+3.3VA*%
X147337500Y-75550000D03*
%TO.P,U1,21,VDDA*%
X147337500Y-76050000D03*
%TO.P,U1,22,PB10*%
%TO.N,/UART_TX*%
X147337500Y-76550000D03*
%TO.P,U1,23,VSS*%
%TO.N,GND*%
X147337500Y-77050000D03*
%TO.P,U1,24,VDD*%
%TO.N,+3V3*%
X147337500Y-77550000D03*
D40*
%TO.P,U1,25,PB11*%
%TO.N,/UART_RX*%
X148750000Y-78962500D03*
%TO.P,U1,26,PB12*%
%TO.N,unconnected-(U1-PB12-Pad26)*%
X149250000Y-78962500D03*
%TO.P,U1,27,PB13*%
%TO.N,unconnected-(U1-PB13-Pad27)*%
X149750000Y-78962500D03*
%TO.P,U1,28,PB14*%
%TO.N,unconnected-(U1-PB14-Pad28)*%
X150250000Y-78962500D03*
%TO.P,U1,29,PB15*%
%TO.N,unconnected-(U1-PB15-Pad29)*%
X150750000Y-78962500D03*
%TO.P,U1,30,PA8*%
%TO.N,/DISP_I2C_SCL*%
X151250000Y-78962500D03*
%TO.P,U1,31,PA9*%
%TO.N,/USB_CC1*%
X151750000Y-78962500D03*
%TO.P,U1,32,PA10*%
%TO.N,/USB_CC2*%
X152250000Y-78962500D03*
%TO.P,U1,33,PA11*%
%TO.N,/USB_D-*%
X152750000Y-78962500D03*
%TO.P,U1,34,PA12*%
%TO.N,/USB_D+*%
X153250000Y-78962500D03*
%TO.P,U1,35,VSS*%
%TO.N,GND*%
X153750000Y-78962500D03*
%TO.P,U1,36,VDD*%
%TO.N,+3V3*%
X154250000Y-78962500D03*
D41*
%TO.P,U1,37,PA13*%
%TO.N,/SWDIO*%
X155662500Y-77550000D03*
%TO.P,U1,38,PA14*%
%TO.N,/SWCLK*%
X155662500Y-77050000D03*
%TO.P,U1,39,PA15*%
%TO.N,unconnected-(U1-PA15-Pad39)*%
X155662500Y-76550000D03*
%TO.P,U1,40,PB3*%
%TO.N,unconnected-(U1-PB3-Pad40)*%
X155662500Y-76050000D03*
%TO.P,U1,41,PB4*%
%TO.N,/USB_CC2*%
X155662500Y-75550000D03*
%TO.P,U1,42,PB5*%
%TO.N,/DISP_I2C_SDA*%
X155662500Y-75050000D03*
%TO.P,U1,43,PB6*%
%TO.N,/USB_CC1*%
X155662500Y-74550000D03*
%TO.P,U1,44,PB7*%
%TO.N,unconnected-(U1-PB7-Pad44)*%
X155662500Y-74050000D03*
%TO.P,U1,45,PB8*%
%TO.N,/BOOT*%
X155662500Y-73550000D03*
%TO.P,U1,46,PB9*%
%TO.N,/MCH_CONTROL*%
X155662500Y-73050000D03*
%TO.P,U1,47,VSS*%
%TO.N,GND*%
X155662500Y-72550000D03*
%TO.P,U1,48,VDD*%
%TO.N,+3V3*%
X155662500Y-72050000D03*
%TD*%
D22*
%TO.P,R1,1*%
%TO.N,GND*%
X120120000Y-99100000D03*
%TO.P,R1,2*%
%TO.N,/BTN_START_STOP*%
X120120000Y-101100000D03*
%TD*%
D34*
%TO.P,C8,1*%
%TO.N,/CLK1*%
X150637500Y-64850000D03*
%TO.P,C8,2*%
%TO.N,GND*%
X148562500Y-64850000D03*
%TD*%
D14*
%TO.P,R8,1*%
%TO.N,Net-(C11-Pad1)*%
X160750000Y-89000000D03*
%TO.P,R8,2*%
%TO.N,/RESET*%
X160750000Y-87000000D03*
%TD*%
D42*
%TO.N,+3V3*%
X117500000Y-81000000D03*
X163200000Y-81550000D03*
X142550000Y-67550000D03*
X134160000Y-77930000D03*
X164400000Y-67550000D03*
%TO.N,VBUS*%
X122100000Y-72200000D03*
X160500000Y-75150000D03*
X148500000Y-68700000D03*
%TO.N,+3.3VA*%
X141250000Y-75550000D03*
X137100000Y-79550000D03*
%TO.N,/UART_TX*%
X147350000Y-85500000D03*
X148850000Y-76550000D03*
%TO.N,/UART_RX*%
X148900000Y-85550000D03*
X148850000Y-83000000D03*
%TO.N,GND*%
X160250000Y-79800000D03*
X145750000Y-77000000D03*
X119400000Y-98100000D03*
X154700000Y-80900000D03*
X148900000Y-61850000D03*
X125800000Y-88700000D03*
X156150000Y-65600000D03*
X145250000Y-81550000D03*
X143150000Y-63700000D03*
X138300000Y-76500000D03*
X134000000Y-95000000D03*
X120000000Y-86850000D03*
X153269669Y-63180331D03*
X146050000Y-66650000D03*
X118120000Y-91530000D03*
X149750000Y-75650000D03*
%TO.N,/BOOT*%
X157600000Y-73700000D03*
X160800000Y-67750000D03*
%TO.N,/RESET*%
X160400000Y-85700000D03*
X151450000Y-73350000D03*
%TO.N,/SWDIO*%
X158550000Y-77450000D03*
X159350000Y-84450000D03*
%TO.N,/SWCLK*%
X157350000Y-84400000D03*
X157550000Y-76450000D03*
%TO.N,/DISP_I2C_SDA*%
X150400000Y-85500000D03*
X152600000Y-76500000D03*
%TO.N,/MCH_CONTROL*%
X149150000Y-72450000D03*
X129850000Y-83300000D03*
%TO.N,/ADC_TERMO_SENSOR*%
X150350000Y-73050000D03*
X138050000Y-86750000D03*
%TD*%
D43*
%TO.N,+3V3*%
X170025000Y-68300000D02*
X171000000Y-69275000D01*
X161100000Y-119800000D02*
X163000000Y-117900000D01*
X155887500Y-68150000D02*
X156887500Y-69150000D01*
D44*
X124450000Y-67450000D02*
X117500000Y-74400000D01*
D45*
X159500000Y-68762500D02*
X160000000Y-69262500D01*
D43*
X160000000Y-69262500D02*
X159637500Y-69262500D01*
D44*
X115950000Y-113150000D02*
X141900000Y-113150000D01*
D43*
X146637500Y-78250000D02*
X147337500Y-77550000D01*
D44*
X114400000Y-109700000D02*
X111950000Y-107250000D01*
D45*
X159500000Y-67000000D02*
X159500000Y-68762500D01*
D44*
X162000000Y-69262500D02*
X164837500Y-69262500D01*
D45*
X161350000Y-65750000D02*
X160750000Y-65750000D01*
D44*
X145550000Y-116800000D02*
X147400000Y-116800000D01*
D43*
X163200000Y-81550000D02*
X163150000Y-81500000D01*
D44*
X114400000Y-109700000D02*
X114400000Y-111600000D01*
D43*
X144000000Y-113400000D02*
X147400000Y-116800000D01*
X156062500Y-79290620D02*
X156062500Y-79700000D01*
D44*
X112100000Y-98950000D02*
X111950000Y-98800000D01*
D43*
X146637500Y-79400000D02*
X146637500Y-78250000D01*
X114400000Y-109700000D02*
X115400000Y-108700000D01*
X118400000Y-108700000D02*
X119400000Y-109700000D01*
X154987500Y-79700000D02*
X154250000Y-78962500D01*
X146637500Y-79400000D02*
X146637500Y-79837500D01*
X141250000Y-90750000D02*
X144000000Y-93500000D01*
X154250000Y-69787500D02*
X155887500Y-68150000D01*
X146700000Y-79562500D02*
X144862500Y-79562500D01*
X158600000Y-71937500D02*
X159862500Y-73200000D01*
X158712500Y-72050000D02*
X155662500Y-72050000D01*
X163000000Y-117900000D02*
X163000000Y-102300000D01*
X146637500Y-79400000D02*
X146800000Y-79400000D01*
X147400000Y-118500000D02*
X148700000Y-119800000D01*
X164850000Y-69250000D02*
X165800000Y-68300000D01*
X157862500Y-81500000D02*
X156062500Y-79700000D01*
X159637500Y-69262500D02*
X158600000Y-70300000D01*
X144862500Y-79562500D02*
X144825000Y-79600000D01*
X156062500Y-79700000D02*
X154987500Y-79700000D01*
D44*
X114400000Y-111600000D02*
X115950000Y-113150000D01*
X160000000Y-69262500D02*
X162000000Y-69262500D01*
X117500000Y-74400000D02*
X117500000Y-81000000D01*
X164400000Y-67550000D02*
X164850000Y-68000000D01*
X111950000Y-107250000D02*
X111950000Y-98800000D01*
D43*
X134160000Y-77930000D02*
X143155000Y-77930000D01*
D44*
X164837500Y-69262500D02*
X164850000Y-69250000D01*
D43*
X148700000Y-119800000D02*
X161100000Y-119800000D01*
X147400000Y-116800000D02*
X147400000Y-118500000D01*
X142550000Y-67550000D02*
X142450000Y-67450000D01*
X143155000Y-77930000D02*
X144825000Y-79600000D01*
X159600000Y-68862500D02*
X160000000Y-69262500D01*
X163150000Y-81500000D02*
X157862500Y-81500000D01*
X165800000Y-68300000D02*
X170025000Y-68300000D01*
X159862500Y-73200000D02*
X158712500Y-72050000D01*
D45*
X160750000Y-65750000D02*
X159500000Y-67000000D01*
D43*
X115400000Y-108700000D02*
X118400000Y-108700000D01*
X159887500Y-69150000D02*
X160000000Y-69262500D01*
D44*
X164850000Y-68000000D02*
X164850000Y-69250000D01*
X141900000Y-113150000D02*
X145550000Y-116800000D01*
D43*
X154250000Y-70637500D02*
X154250000Y-69787500D01*
X156887500Y-69150000D02*
X159887500Y-69150000D01*
X144000000Y-93500000D02*
X144000000Y-113400000D01*
X158600000Y-70300000D02*
X158600000Y-71937500D01*
D44*
X142450000Y-67450000D02*
X124450000Y-67450000D01*
D43*
X140250000Y-90750000D02*
X141250000Y-90750000D01*
D44*
%TO.N,VBUS*%
X148500000Y-68700000D02*
X125600000Y-68700000D01*
X164200000Y-75662500D02*
X164662500Y-75200000D01*
X164862500Y-73200000D02*
X164862500Y-71162500D01*
X164200000Y-77375000D02*
X164200000Y-75662500D01*
X162350000Y-75150000D02*
X164300000Y-73200000D01*
X125600000Y-68700000D02*
X122100000Y-72200000D01*
X164662500Y-73400000D02*
X164862500Y-73200000D01*
X164862500Y-71162500D02*
X164850000Y-71150000D01*
X164662500Y-75200000D02*
X164662500Y-73400000D01*
X160500000Y-75150000D02*
X162350000Y-75150000D01*
X164300000Y-73200000D02*
X164862500Y-73200000D01*
D43*
%TO.N,+3.3VA*%
X141750000Y-76050000D02*
X147337500Y-76050000D01*
X145750000Y-76050000D02*
X146250000Y-75550000D01*
X140800000Y-79462500D02*
X138800000Y-79462500D01*
X146250000Y-75550000D02*
X147337500Y-75550000D01*
X140937500Y-79600000D02*
X140800000Y-79462500D01*
X137187500Y-79462500D02*
X137100000Y-79550000D01*
X141250000Y-75550000D02*
X141750000Y-76050000D01*
X142775000Y-79600000D02*
X140937500Y-79600000D01*
X141750000Y-76050000D02*
X145750000Y-76050000D01*
X138800000Y-79462500D02*
X137187500Y-79462500D01*
%TO.N,Net-(D1-K)*%
X139700000Y-74500000D02*
X142975000Y-74500000D01*
D44*
%TO.N,Net-(D2-K)*%
X171100000Y-71425000D02*
X171000000Y-71325000D01*
X171100000Y-73200000D02*
X171100000Y-71425000D01*
X170975000Y-71325000D02*
X171000000Y-71325000D01*
D43*
%TO.N,Net-(S1-K)*%
X116900000Y-104300000D02*
X116900000Y-102320000D01*
X116900000Y-102320000D02*
X118120000Y-101100000D01*
%TO.N,/UART_TX*%
X147350000Y-85500000D02*
X147300000Y-85500000D01*
X148850000Y-76550000D02*
X147337500Y-76550000D01*
X145300000Y-112160000D02*
X149940000Y-116800000D01*
X147300000Y-85500000D02*
X145300000Y-87500000D01*
X145300000Y-87500000D02*
X145300000Y-112160000D01*
%TO.N,/UART_RX*%
X148750000Y-82900000D02*
X148750000Y-78962500D01*
X148850000Y-83000000D02*
X148750000Y-82900000D01*
X146400000Y-88200000D02*
X146400000Y-110720000D01*
X146400000Y-110720000D02*
X152480000Y-116800000D01*
X148900000Y-85700000D02*
X146400000Y-88200000D01*
X148900000Y-85550000D02*
X148900000Y-85700000D01*
D46*
%TO.N,Net-(J6-Pin_1)*%
X127400000Y-93200000D02*
X127400000Y-92800000D01*
X127400000Y-92800000D02*
X130185000Y-90015000D01*
X130185000Y-90015000D02*
X130185000Y-89425000D01*
D43*
%TO.N,Net-(Q1-G)*%
X126200000Y-84980000D02*
X126200000Y-83300000D01*
X125560000Y-85620000D02*
X126200000Y-84980000D01*
%TO.N,Net-(C11-Pad1)*%
X166940000Y-95600000D02*
X160750000Y-89410000D01*
X160750000Y-89410000D02*
X160750000Y-89000000D01*
X165212500Y-100300000D02*
X165250000Y-100262500D01*
X165250000Y-100262500D02*
X166940000Y-98572500D01*
X163000000Y-100300000D02*
X165212500Y-100300000D01*
X166940000Y-98572500D02*
X166940000Y-95600000D01*
D45*
%TO.N,Net-(SW1-B)*%
X160750000Y-62900000D02*
X159600000Y-61750000D01*
X164100000Y-62900000D02*
X160750000Y-62900000D01*
D44*
%TO.N,GND*%
X168435000Y-75565000D02*
X170650000Y-77780000D01*
D43*
X138800000Y-81537500D02*
X140800000Y-81537500D01*
X168950000Y-93110000D02*
X166940000Y-91100000D01*
D44*
X168070000Y-75200000D02*
X168435000Y-75565000D01*
D46*
X143150000Y-63700000D02*
X143150000Y-63750000D01*
D44*
X168070000Y-75200000D02*
X169100000Y-74170000D01*
D43*
X152362500Y-63362500D02*
X152100000Y-63100000D01*
D44*
X166300000Y-72562500D02*
X166937500Y-73200000D01*
X119700000Y-85450000D02*
X119700000Y-86550000D01*
D43*
X153269669Y-63180331D02*
X153189338Y-63100000D01*
X168950000Y-98637500D02*
X168950000Y-93110000D01*
X145262500Y-81537500D02*
X146600000Y-81537500D01*
D44*
X125560000Y-90180000D02*
X125560000Y-88940000D01*
D43*
X135630000Y-94950000D02*
X134050000Y-94950000D01*
D44*
X162000000Y-71337500D02*
X160000000Y-71337500D01*
X162000000Y-71337500D02*
X163137500Y-70200000D01*
D43*
X149150000Y-75050000D02*
X147337500Y-75050000D01*
X119400000Y-98380000D02*
X120120000Y-99100000D01*
D44*
X166450000Y-86045000D02*
X166825000Y-86420000D01*
X166737500Y-75200000D02*
X168070000Y-75200000D01*
X169100000Y-74170000D02*
X169100000Y-73200000D01*
D43*
X145800000Y-77050000D02*
X147337500Y-77050000D01*
X153750000Y-79950000D02*
X153750000Y-78962500D01*
X155662500Y-72550000D02*
X157544544Y-72550000D01*
X148562500Y-64850000D02*
X148562500Y-63387500D01*
D44*
X166450000Y-79000000D02*
X166450000Y-78155000D01*
X164850000Y-70200000D02*
X165629999Y-70200000D01*
D43*
X156150000Y-65600000D02*
X153812500Y-67937500D01*
X119400000Y-98100000D02*
X118400000Y-99100000D01*
X157544544Y-72550000D02*
X159269544Y-74275000D01*
D44*
X125560000Y-88940000D02*
X125800000Y-88700000D01*
X166450000Y-85200000D02*
X166450000Y-86045000D01*
D43*
X118120000Y-91530000D02*
X118120000Y-92760000D01*
X159269544Y-74275000D02*
X160862500Y-74275000D01*
D44*
X119700000Y-86550000D02*
X120000000Y-86850000D01*
D43*
X148562500Y-63387500D02*
X149950000Y-62000000D01*
X140800000Y-81537500D02*
X145237500Y-81537500D01*
X165250000Y-102337500D02*
X168950000Y-98637500D01*
X153812500Y-67937500D02*
X153812500Y-68150000D01*
D46*
X143150000Y-63750000D02*
X146050000Y-66650000D01*
D43*
X157700000Y-65600000D02*
X157850000Y-65750000D01*
D44*
X166400000Y-86375000D02*
X166175000Y-86600000D01*
D43*
X160150000Y-79700000D02*
X160250000Y-79800000D01*
D44*
X166737500Y-75200000D02*
X166737500Y-73400000D01*
D43*
X145750000Y-77000000D02*
X145800000Y-77050000D01*
X161937500Y-73200000D02*
X161937500Y-71400000D01*
D44*
X166450000Y-78155000D02*
X166825000Y-77780000D01*
D43*
X160862500Y-74275000D02*
X161937500Y-73200000D01*
X118400000Y-99100000D02*
X118120000Y-99100000D01*
X146600000Y-81537500D02*
X146700000Y-81637500D01*
X149750000Y-75650000D02*
X149150000Y-75050000D01*
X149950000Y-62000000D02*
X150700000Y-62000000D01*
X138300000Y-76500000D02*
X139700000Y-76500000D01*
X158137500Y-79700000D02*
X160150000Y-79700000D01*
X149950000Y-62000000D02*
X149800000Y-61850000D01*
X145237500Y-81537500D02*
X145250000Y-81550000D01*
D44*
X166737500Y-73400000D02*
X166937500Y-73200000D01*
D43*
X154700000Y-80900000D02*
X153750000Y-79950000D01*
D44*
X165629999Y-70200000D02*
X166300000Y-70870001D01*
D43*
X153189338Y-63100000D02*
X152100000Y-63100000D01*
X119400000Y-98100000D02*
X119400000Y-98380000D01*
X145250000Y-81550000D02*
X145262500Y-81537500D01*
D44*
X163137500Y-70200000D02*
X164850000Y-70200000D01*
D43*
X161937500Y-71400000D02*
X162000000Y-71337500D01*
X152362500Y-64850000D02*
X152362500Y-63362500D01*
D44*
X166300000Y-70870001D02*
X166300000Y-72562500D01*
D43*
X149800000Y-61850000D02*
X148900000Y-61850000D01*
X134050000Y-94950000D02*
X134000000Y-95000000D01*
X156050000Y-65600000D02*
X157700000Y-65600000D01*
%TO.N,/CLK0*%
X153150000Y-62000000D02*
X152100000Y-62000000D01*
X154437500Y-64850000D02*
X154437500Y-63287500D01*
X154437500Y-63287500D02*
X153150000Y-62000000D01*
X152250000Y-67037500D02*
X154437500Y-64850000D01*
X152250000Y-70637500D02*
X152250000Y-67037500D01*
%TO.N,/CLK1*%
X150637500Y-65837500D02*
X150637500Y-64850000D01*
X151750000Y-66950000D02*
X150637500Y-65837500D01*
X151750000Y-70637500D02*
X151750000Y-66950000D01*
X150637500Y-64850000D02*
X150637500Y-63162500D01*
X150637500Y-63162500D02*
X150700000Y-63100000D01*
%TO.N,/BOOT*%
X155662500Y-73550000D02*
X157450000Y-73550000D01*
X157450000Y-73550000D02*
X157600000Y-73700000D01*
X161250000Y-67750000D02*
X164100000Y-64900000D01*
X160800000Y-67750000D02*
X161250000Y-67750000D01*
%TO.N,/RESET*%
X160400000Y-86650000D02*
X160750000Y-87000000D01*
X151250000Y-73150000D02*
X151450000Y-73350000D01*
X160400000Y-85700000D02*
X160400000Y-86650000D01*
X151250000Y-70637500D02*
X151250000Y-73150000D01*
%TO.N,/LED_OUT*%
X145312500Y-74500000D02*
X145025000Y-74500000D01*
X146262500Y-73550000D02*
X145312500Y-74500000D01*
X147337500Y-73550000D02*
X146262500Y-73550000D01*
%TO.N,/USB_D-*%
X152750000Y-81250000D02*
X154350000Y-82850000D01*
X152750000Y-78962500D02*
X152750000Y-81250000D01*
X167285000Y-82850000D02*
X167700000Y-82435000D01*
X166450000Y-82850000D02*
X167285000Y-82850000D01*
X167700000Y-81800000D02*
X167250000Y-81350000D01*
X167700000Y-82435000D02*
X167700000Y-81800000D01*
X154350000Y-82850000D02*
X166450000Y-82850000D01*
X167250000Y-81350000D02*
X166450000Y-81350000D01*
%TO.N,/USB_D+*%
X154650000Y-82350000D02*
X166450000Y-82350000D01*
X164650000Y-81850000D02*
X164200000Y-82300000D01*
X153250000Y-80950000D02*
X154650000Y-82350000D01*
X165300000Y-81850000D02*
X166450000Y-81850000D01*
X153250000Y-78962500D02*
X153250000Y-80950000D01*
X165300000Y-81850000D02*
X164650000Y-81850000D01*
X165950000Y-81850000D02*
X165300000Y-81850000D01*
%TO.N,/USB_CC2*%
X158250000Y-75550000D02*
X155662500Y-75550000D01*
D45*
X154850000Y-75550000D02*
X155662500Y-75550000D01*
X152250000Y-78150000D02*
X154850000Y-75550000D01*
X152250000Y-78962500D02*
X152250000Y-78150000D01*
D43*
X166450000Y-80850000D02*
X163550000Y-80850000D01*
X163550000Y-80850000D02*
X158250000Y-75550000D01*
%TO.N,/USB_CC1*%
X166090786Y-76600000D02*
X167800000Y-76600000D01*
X165000000Y-87000000D02*
X165000000Y-84440000D01*
X165300000Y-77390786D02*
X166090786Y-76600000D01*
X169000000Y-84200000D02*
X168600000Y-84600000D01*
X162000000Y-78400000D02*
X165119214Y-78400000D01*
X168500000Y-77300000D02*
X168500000Y-79800000D01*
X165300000Y-78219214D02*
X165300000Y-77390786D01*
X165600000Y-83840000D02*
X166450000Y-83840000D01*
X167700000Y-87800000D02*
X165800000Y-87800000D01*
X165119214Y-78400000D02*
X165300000Y-78219214D01*
X165800000Y-87800000D02*
X165000000Y-87000000D01*
X167800000Y-76600000D02*
X168500000Y-77300000D01*
X169000000Y-80300000D02*
X169000000Y-84200000D01*
D45*
X151750000Y-78962500D02*
X151750000Y-76250000D01*
D43*
X168500000Y-79800000D02*
X169000000Y-80300000D01*
X158150000Y-74550000D02*
X162000000Y-78400000D01*
X165000000Y-84440000D02*
X165600000Y-83840000D01*
X155662500Y-74550000D02*
X158150000Y-74550000D01*
D45*
X153450000Y-74550000D02*
X155662500Y-74550000D01*
D43*
X168600000Y-86900000D02*
X167700000Y-87800000D01*
D45*
X151750000Y-76250000D02*
X153450000Y-74550000D01*
D43*
X168600000Y-84600000D02*
X168600000Y-86900000D01*
%TO.N,/SWDIO*%
X156539339Y-77550000D02*
X155662500Y-77550000D01*
X156989339Y-78000000D02*
X156539339Y-77550000D01*
X158550000Y-77450000D02*
X158000000Y-78000000D01*
X158000000Y-78000000D02*
X156989339Y-78000000D01*
X157560000Y-115440000D02*
X157560000Y-116800000D01*
X159100000Y-84700000D02*
X159100000Y-113900000D01*
X159100000Y-113900000D02*
X157560000Y-115440000D01*
X159350000Y-84450000D02*
X159100000Y-84700000D01*
%TO.N,/SWCLK*%
X155020000Y-116380000D02*
X158000000Y-113400000D01*
X157350000Y-86850000D02*
X157350000Y-84400000D01*
X156950000Y-77050000D02*
X155662500Y-77050000D01*
X157550000Y-76450000D02*
X156950000Y-77050000D01*
X155020000Y-116800000D02*
X155020000Y-116380000D01*
X158000000Y-113400000D02*
X158000000Y-87500000D01*
X158000000Y-87500000D02*
X157350000Y-86850000D01*
D45*
%TO.N,/DISP_I2C_SDA*%
X154050000Y-75050000D02*
X155662500Y-75050000D01*
D43*
X150400000Y-85500000D02*
X150600000Y-85700000D01*
X150600000Y-94920000D02*
X148320000Y-97200000D01*
X150600000Y-85700000D02*
X150600000Y-94920000D01*
D45*
X152600000Y-76500000D02*
X154050000Y-75050000D01*
D43*
%TO.N,/DISP_I2C_SCL*%
X151250000Y-80000000D02*
X151250000Y-82150000D01*
X151250000Y-82150000D02*
X152000000Y-82900000D01*
X152000000Y-82900000D02*
X152000000Y-96060000D01*
X152000000Y-96060000D02*
X150860000Y-97200000D01*
X151250000Y-78962500D02*
X151250000Y-80000000D01*
%TO.N,/MCH_CONTROL*%
X149150000Y-72450000D02*
X149150000Y-73450000D01*
X153650000Y-73050000D02*
X155662500Y-73050000D01*
X129850000Y-83300000D02*
X128200000Y-83300000D01*
X152100000Y-74600000D02*
X153650000Y-73050000D01*
X150300000Y-74600000D02*
X152100000Y-74600000D01*
X149150000Y-73450000D02*
X150300000Y-74600000D01*
%TO.N,/BTN_START_STOP*%
X119400000Y-105200000D02*
X120120000Y-104480000D01*
X145850000Y-72550000D02*
X147337500Y-72550000D01*
X115700000Y-106500000D02*
X118100000Y-106500000D01*
X127500000Y-72000000D02*
X145300000Y-72000000D01*
X145300000Y-72000000D02*
X145850000Y-72550000D01*
X122200000Y-99800000D02*
X122200000Y-77300000D01*
X122200000Y-77300000D02*
X127500000Y-72000000D01*
X120120000Y-101100000D02*
X120900000Y-101100000D01*
X114400000Y-105200000D02*
X115700000Y-106500000D01*
X120900000Y-101100000D02*
X122200000Y-99800000D01*
X118100000Y-106500000D02*
X119400000Y-105200000D01*
X120120000Y-104480000D02*
X120120000Y-101100000D01*
%TO.N,/BTN_UP*%
X119500000Y-83700000D02*
X112700000Y-83700000D01*
X112700000Y-83700000D02*
X111950000Y-82950000D01*
X147912500Y-69800000D02*
X126600000Y-69800000D01*
X120300000Y-82900000D02*
X119500000Y-83700000D01*
X126600000Y-69800000D02*
X120300000Y-76100000D01*
X148750000Y-70637500D02*
X147912500Y-69800000D01*
X120300000Y-76100000D02*
X120300000Y-82900000D01*
%TO.N,/BTN_DOWN*%
X127200000Y-70800000D02*
X146100000Y-70800000D01*
X146500000Y-71200000D02*
X146500000Y-71212500D01*
X121300000Y-91580000D02*
X121300000Y-76700000D01*
X117380000Y-95500000D02*
X117980000Y-94900000D01*
X111950000Y-94300000D02*
X113150000Y-95500000D01*
X113150000Y-95500000D02*
X117380000Y-95500000D01*
X146100000Y-70800000D02*
X146500000Y-71200000D01*
X146500000Y-71212500D02*
X147337500Y-72050000D01*
X118120000Y-94760000D02*
X121300000Y-91580000D01*
X117980000Y-94900000D02*
X118600000Y-94900000D01*
X121300000Y-76700000D02*
X127200000Y-70800000D01*
%TO.N,/ADC_TERMO_SENSOR*%
X150350000Y-73050000D02*
X150350000Y-71878120D01*
X138050000Y-86750000D02*
X138050000Y-90550000D01*
X150350000Y-71878120D02*
X150750000Y-71478120D01*
X150750000Y-71478120D02*
X150750000Y-70637500D01*
X138050000Y-90550000D02*
X138250000Y-90750000D01*
X138170000Y-94950000D02*
X138170000Y-90830000D01*
X138170000Y-90830000D02*
X138250000Y-90750000D01*
%TO.N,/LED_START_STOP*%
X147337500Y-73050000D02*
X127850000Y-73050000D01*
X127850000Y-73050000D02*
X123200000Y-77700000D01*
X121300000Y-111900000D02*
X118200000Y-111900000D01*
X118200000Y-111900000D02*
X116900000Y-110600000D01*
X123200000Y-110000000D02*
X121300000Y-111900000D01*
X123200000Y-77700000D02*
X123200000Y-110000000D01*
X116900000Y-110255635D02*
X116900000Y-110600000D01*
%TO.N,Net-(FB1-Pad1)*%
X166450000Y-84450000D02*
X167250000Y-84450000D01*
D44*
X164200000Y-79425000D02*
X164525000Y-79750000D01*
D43*
X168300000Y-83400000D02*
X168300000Y-80964949D01*
X167085051Y-79750000D02*
X166450000Y-79750000D01*
X168300000Y-80964949D02*
X167085051Y-79750000D01*
X167250000Y-84450000D02*
X168300000Y-83400000D01*
D44*
X164525000Y-79750000D02*
X166450000Y-79750000D01*
%TD*%
M02*
