M48
; DRILL file {KiCad 8.0.3} date 2024-07-18T14:45:20+0200
; FORMAT={-:-/ absolute / inch / decimal}
; #@! TF.CreationDate,2024-07-18T14:45:20+02:00
; #@! TF.GenerationSoftware,Kicad,Pcbnew,8.0.3
; #@! TF.FileFunction,Plated,1,2,PTH
FMAT,2
INCH
; #@! TA.AperFunction,Plated,PTH,ViaDrill
T1C0.0157
; #@! TA.AperFunction,Plated,PTH,ComponentDrill
T2C0.0197
; #@! TA.AperFunction,Plated,PTH,ComponentDrill
T3C0.0236
; #@! TA.AperFunction,Plated,PTH,ComponentDrill
T4C0.0394
; #@! TA.AperFunction,Plated,PTH,ComponentDrill
T5C0.0512
; #@! TA.AperFunction,Plated,PTH,ComponentDrill
T6C0.0984
%
G90
G05
T1
X4.626Y-3.189
X4.6504Y-3.6035
X4.7008Y-3.8622
X4.7244Y-3.4193
X4.8071Y-2.8425
X4.9528Y-3.4921
X5.1122Y-3.2795
X5.2756Y-3.7402
X5.2819Y-3.0681
X5.3976Y-3.1319
X5.435Y-3.4154
X5.4449Y-3.0118
X5.561Y-2.9744
X5.6122Y-2.6594
X5.6358Y-2.5079
X5.7185Y-3.2106
X5.7382Y-3.0315
X5.75Y-2.624
X5.8012Y-3.3661
X5.8465Y-2.7047
X5.8602Y-3.0138
X5.8602Y-3.2677
X5.8622Y-2.435
X5.8622Y-3.3681
X5.872Y-2.8524
X5.8957Y-2.9783
X5.9193Y-2.876
X5.9213Y-3.3661
X5.9626Y-2.8878
X6.0079Y-3.0118
X6.0342Y-2.4874
X6.0906Y-3.185
X6.1476Y-2.5827
X6.1949Y-3.3228
X6.2028Y-3.0098
X6.2047Y-2.9016
X6.2421Y-3.0492
X6.2736Y-3.3248
X6.3091Y-3.1417
X6.315Y-3.374
X6.3189Y-2.9587
X6.3307Y-2.6673
X6.4252Y-3.2106
X6.4724Y-2.6594
T2
X4.3986Y-2.5039
X4.3986Y-4.6693
X4.4202Y-2.4517
X4.4202Y-2.5561
X4.4202Y-4.6171
X4.4202Y-4.7215
X4.4724Y-2.4301
X4.4724Y-2.5778
X4.4724Y-4.5955
X4.4724Y-4.7431
X4.5246Y-2.4517
X4.5246Y-2.5561
X4.5246Y-4.6171
X4.5246Y-4.7215
X4.5463Y-2.5039
X4.5463Y-4.6693
X6.5837Y-2.5039
X6.5837Y-4.6693
X6.6053Y-2.4517
X6.6053Y-2.5561
X6.6053Y-4.6171
X6.6053Y-4.7215
X6.6575Y-2.4301
X6.6575Y-2.5778
X6.6575Y-4.5955
X6.6575Y-4.7431
X6.7097Y-2.4517
X6.7097Y-2.5561
X6.7097Y-4.6171
X6.7097Y-4.7215
X6.7313Y-2.5039
X6.7313Y-4.6693
T4
X4.4075Y-3.2657
X4.4075Y-3.4429
X4.4075Y-3.7126
X4.4075Y-3.8898
X4.5039Y-4.1417
X4.5039Y-4.3189
X4.6024Y-4.1063
X4.6024Y-4.3543
X4.7008Y-4.1417
X4.7008Y-4.3189
X4.9157Y-3.6693
X5.0157Y-3.6693
X5.8031Y-4.5984
X5.8394Y-3.8268
X5.9031Y-4.5984
X5.9394Y-3.8268
X6.0031Y-4.5984
X6.0394Y-3.8268
X6.1031Y-4.5984
X6.1394Y-3.8268
X6.2031Y-4.5984
X6.3031Y-4.5984
X6.5724Y-3.5866
X6.5724Y-3.7638
T5
X4.5079Y-3.2165
X4.5079Y-3.4921
X4.5079Y-3.6634
X4.5079Y-3.939
X6.472Y-3.5374
X6.472Y-3.813
T6
X4.4724Y-2.5039
X4.4724Y-4.6693
X6.6575Y-2.5039
X6.6575Y-4.6693
T3
G00X6.5482Y-3.0622
M15
G01X6.5876Y-3.0622
M16
G05
G00X6.5482Y-3.4024
M15
G01X6.5876Y-3.4024
M16
G05
G00X6.6929Y-3.0622
M15
G01X6.7441Y-3.0622
M16
G05
G00X6.6929Y-3.4024
M15
G01X6.7441Y-3.4024
M16
G05
M30
