%TF.GenerationSoftware,KiCad,Pcbnew,8.0.3*%
%TF.CreationDate,2024-07-18T14:45:25+02:00*%
%TF.ProjectId,usb-pd-mch-hotplate,7573622d-7064-42d6-9d63-682d686f7470,rev?*%
%TF.SameCoordinates,Original*%
%TF.FileFunction,Soldermask,Top*%
%TF.FilePolarity,Negative*%
%FSLAX46Y46*%
G04 Gerber Fmt 4.6, Leading zero omitted, Abs format (unit mm)*
G04 Created by KiCad (PCBNEW 8.0.3) date 2024-07-18 14:45:25*
%MOMM*%
%LPD*%
G01*
G04 APERTURE LIST*
G04 Aperture macros list*
%AMRoundRect*
0 Rectangle with rounded corners*
0 $1 Rounding radius*
0 $2 $3 $4 $5 $6 $7 $8 $9 X,Y pos of 4 corners*
0 Add a 4 corners polygon primitive as box body*
4,1,4,$2,$3,$4,$5,$6,$7,$8,$9,$2,$3,0*
0 Add four circle primitives for the rounded corners*
1,1,$1+$1,$2,$3*
1,1,$1+$1,$4,$5*
1,1,$1+$1,$6,$7*
1,1,$1+$1,$8,$9*
0 Add four rect primitives between the rounded corners*
20,1,$1+$1,$2,$3,$4,$5,0*
20,1,$1+$1,$4,$5,$6,$7,0*
20,1,$1+$1,$6,$7,$8,$9,0*
20,1,$1+$1,$8,$9,$2,$3,0*%
G04 Aperture macros list end*
%ADD10RoundRect,0.250000X-0.475000X0.337500X-0.475000X-0.337500X0.475000X-0.337500X0.475000X0.337500X0*%
%ADD11R,1.700000X1.700000*%
%ADD12O,1.700000X1.700000*%
%ADD13RoundRect,0.250000X-0.337500X-0.475000X0.337500X-0.475000X0.337500X0.475000X-0.337500X0.475000X0*%
%ADD14RoundRect,0.250000X0.450000X-0.350000X0.450000X0.350000X-0.450000X0.350000X-0.450000X-0.350000X0*%
%ADD15RoundRect,0.250000X0.475000X-0.337500X0.475000X0.337500X-0.475000X0.337500X-0.475000X-0.337500X0*%
%ADD16C,0.800000*%
%ADD17C,5.000000*%
%ADD18RoundRect,0.250000X0.325000X0.450000X-0.325000X0.450000X-0.325000X-0.450000X0.325000X-0.450000X0*%
%ADD19C,1.500000*%
%ADD20C,1.950000*%
%ADD21RoundRect,0.250000X0.450000X-0.325000X0.450000X0.325000X-0.450000X0.325000X-0.450000X-0.325000X0*%
%ADD22RoundRect,0.250000X-0.450000X0.350000X-0.450000X-0.350000X0.450000X-0.350000X0.450000X0.350000X0*%
%ADD23RoundRect,0.162500X-0.617500X-0.162500X0.617500X-0.162500X0.617500X0.162500X-0.617500X0.162500X0*%
%ADD24RoundRect,0.250000X-0.325000X-0.450000X0.325000X-0.450000X0.325000X0.450000X-0.325000X0.450000X0*%
%ADD25R,0.900000X0.800000*%
%ADD26R,0.800000X1.400000*%
%ADD27R,1.500000X1.500000*%
%ADD28RoundRect,0.250000X0.350000X0.450000X-0.350000X0.450000X-0.350000X-0.450000X0.350000X-0.450000X0*%
%ADD29C,0.600000*%
%ADD30R,2.000000X1.000000*%
%ADD31O,0.600000X0.850000*%
%ADD32R,1.000000X0.520000*%
%ADD33R,1.000000X0.270000*%
%ADD34O,2.300000X1.300000*%
%ADD35O,2.600000X1.300000*%
%ADD36RoundRect,0.250000X0.337500X0.475000X-0.337500X0.475000X-0.337500X-0.475000X0.337500X-0.475000X0*%
%ADD37C,1.600000*%
%ADD38R,1.020000X3.200000*%
%ADD39R,1.950000X2.700000*%
%ADD40RoundRect,0.250000X-0.850000X-0.350000X0.850000X-0.350000X0.850000X0.350000X-0.850000X0.350000X0*%
%ADD41RoundRect,0.249997X-2.950003X-2.650003X2.950003X-2.650003X2.950003X2.650003X-2.950003X2.650003X0*%
%ADD42RoundRect,0.075000X-0.075000X0.662500X-0.075000X-0.662500X0.075000X-0.662500X0.075000X0.662500X0*%
%ADD43RoundRect,0.075000X-0.662500X0.075000X-0.662500X-0.075000X0.662500X-0.075000X0.662500X0.075000X0*%
G04 APERTURE END LIST*
D10*
%TO.C,C5*%
X146700000Y-79562500D03*
X146700000Y-81637500D03*
%TD*%
D11*
%TO.C,J4*%
X160100000Y-116800000D03*
D12*
X157560000Y-116800000D03*
X155020000Y-116800000D03*
X152480000Y-116800000D03*
X149940000Y-116800000D03*
X147400000Y-116800000D03*
%TD*%
D13*
%TO.C,C4*%
X156062500Y-79700000D03*
X158137500Y-79700000D03*
%TD*%
D14*
%TO.C,R10*%
X119700000Y-85450000D03*
X119700000Y-83450000D03*
%TD*%
D15*
%TO.C,C1*%
X160000000Y-71337500D03*
X160000000Y-69262500D03*
%TD*%
D16*
%TO.C,H3*%
X111725000Y-118600000D03*
X112274175Y-117274175D03*
X112274175Y-119925825D03*
X113600000Y-116725000D03*
D17*
X113600000Y-118600000D03*
D16*
X113600000Y-120475000D03*
X114925825Y-117274175D03*
X114925825Y-119925825D03*
X115475000Y-118600000D03*
%TD*%
D15*
%TO.C,C12*%
X162000000Y-71337500D03*
X162000000Y-69262500D03*
%TD*%
D18*
%TO.C,L1*%
X144825000Y-79600000D03*
X142775000Y-79600000D03*
%TD*%
D16*
%TO.C,H1*%
X167225000Y-63600000D03*
X167774175Y-62274175D03*
X167774175Y-64925825D03*
X169100000Y-61725000D03*
D17*
X169100000Y-63600000D03*
D16*
X169100000Y-65475000D03*
X170425825Y-62274175D03*
X170425825Y-64925825D03*
X170975000Y-63600000D03*
%TD*%
%TO.C,H4*%
X167225000Y-118600000D03*
X167774175Y-117274175D03*
X167774175Y-119925825D03*
X169100000Y-116725000D03*
D17*
X169100000Y-118600000D03*
D16*
X169100000Y-120475000D03*
X170425825Y-117274175D03*
X170425825Y-119925825D03*
X170975000Y-118600000D03*
%TD*%
D13*
%TO.C,C2*%
X164662500Y-75200000D03*
X166737500Y-75200000D03*
%TD*%
D10*
%TO.C,C11*%
X165250000Y-100262500D03*
X165250000Y-102337500D03*
%TD*%
D13*
%TO.C,C3*%
X159862500Y-73200000D03*
X161937500Y-73200000D03*
%TD*%
D19*
%TO.C,BTN_UP*%
X111950000Y-82950000D03*
X111950000Y-87450000D03*
D20*
X114500000Y-81700000D03*
X114500000Y-88700000D03*
%TD*%
D19*
%TO.C,BTN_STARTSTOP*%
X114400000Y-105200000D03*
X119400000Y-105200000D03*
X114400000Y-109700000D03*
X119400000Y-109700000D03*
X116900000Y-104300000D03*
X116900000Y-110600000D03*
%TD*%
D21*
%TO.C,D2*%
X171000000Y-71325000D03*
X171000000Y-69275000D03*
%TD*%
D22*
%TO.C,R4*%
X139700000Y-74500000D03*
X139700000Y-76500000D03*
%TD*%
D23*
%TO.C,U3*%
X164850000Y-69250000D03*
X164850000Y-70200000D03*
X164850000Y-71150000D03*
X167550000Y-71150000D03*
X167550000Y-69250000D03*
%TD*%
D24*
%TO.C,D1*%
X142975000Y-74500000D03*
X145025000Y-74500000D03*
%TD*%
D21*
%TO.C,FB1*%
X164000000Y-79425000D03*
X164000000Y-77375000D03*
%TD*%
D25*
%TO.C,Y1*%
X152100000Y-62000000D03*
X150700000Y-62000000D03*
X150700000Y-63100000D03*
X152100000Y-63100000D03*
%TD*%
D26*
%TO.C,SW1*%
X157850000Y-65750000D03*
X159600000Y-61750000D03*
X161350000Y-65750000D03*
%TD*%
D19*
%TO.C,RESET*%
X166940000Y-95600000D03*
X166940000Y-91100000D03*
D20*
X164390000Y-96850000D03*
X164390000Y-89850000D03*
%TD*%
D22*
%TO.C,R7*%
X164100000Y-62900000D03*
X164100000Y-64900000D03*
%TD*%
%TO.C,R11*%
X118120000Y-92760000D03*
X118120000Y-94760000D03*
%TD*%
D27*
%TO.C,J6*%
X127400000Y-93200000D03*
D19*
X124860000Y-93200000D03*
%TD*%
D10*
%TO.C,C10*%
X138800000Y-79462500D03*
X138800000Y-81537500D03*
%TD*%
D13*
%TO.C,C13*%
X164862500Y-73200000D03*
X166937500Y-73200000D03*
%TD*%
D14*
%TO.C,R9*%
X163000000Y-102300000D03*
X163000000Y-100300000D03*
%TD*%
D16*
%TO.C,H2*%
X111725000Y-63600000D03*
X112274175Y-62274175D03*
X112274175Y-64925825D03*
X113600000Y-61725000D03*
D17*
X113600000Y-63600000D03*
D16*
X113600000Y-65475000D03*
X114925825Y-62274175D03*
X114925825Y-64925825D03*
X115475000Y-63600000D03*
%TD*%
D28*
%TO.C,R3*%
X140250000Y-90750000D03*
X138250000Y-90750000D03*
%TD*%
D10*
%TO.C,C9*%
X140800000Y-79462500D03*
X140800000Y-81537500D03*
%TD*%
D28*
%TO.C,R6*%
X128200000Y-83300000D03*
X126200000Y-83300000D03*
%TD*%
D29*
%TO.C,J2*%
X167550000Y-85100000D03*
D30*
X170650000Y-83500000D03*
X170650000Y-80700000D03*
D31*
X167550000Y-79100000D03*
D32*
X166450000Y-85200000D03*
X166450000Y-84450000D03*
D33*
X166450000Y-83850000D03*
X166450000Y-82350000D03*
X166450000Y-81350000D03*
X166450000Y-80350000D03*
D32*
X166450000Y-79750000D03*
X166450000Y-79000000D03*
X166450000Y-79000000D03*
X166450000Y-79750000D03*
D33*
X166450000Y-80850000D03*
X166450000Y-81850000D03*
X166450000Y-82850000D03*
X166450000Y-83350000D03*
D32*
X166450000Y-84450000D03*
X166450000Y-85200000D03*
D34*
X166825000Y-86420000D03*
D35*
X170650000Y-86420000D03*
D34*
X166825000Y-77780000D03*
D35*
X170650000Y-77780000D03*
%TD*%
D36*
%TO.C,C7*%
X154437500Y-64850000D03*
X152362500Y-64850000D03*
%TD*%
D37*
%TO.C,J1*%
X141320000Y-100850000D03*
X132480000Y-100850000D03*
D38*
X135630000Y-94950000D03*
X138170000Y-94950000D03*
D39*
X131905000Y-98400000D03*
X131905000Y-103300000D03*
X141895000Y-98400000D03*
X141895000Y-103300000D03*
%TD*%
D28*
%TO.C,R5*%
X171100000Y-73200000D03*
X169100000Y-73200000D03*
%TD*%
D36*
%TO.C,C6*%
X155887500Y-68150000D03*
X153812500Y-68150000D03*
%TD*%
D11*
%TO.C,J8*%
X148320000Y-97200000D03*
D12*
X150860000Y-97200000D03*
X153400000Y-97200000D03*
X155940000Y-97200000D03*
%TD*%
D22*
%TO.C,R2*%
X118120000Y-99100000D03*
X118120000Y-101100000D03*
%TD*%
D19*
%TO.C,BTN_DOWN*%
X111950000Y-94300000D03*
X111950000Y-98800000D03*
D20*
X114500000Y-93050000D03*
X114500000Y-100050000D03*
%TD*%
D40*
%TO.C,Q1*%
X125560000Y-85620000D03*
D41*
X131860000Y-87900000D03*
D40*
X125560000Y-90180000D03*
%TD*%
D42*
%TO.C,U1*%
X154250000Y-70637500D03*
X153750000Y-70637500D03*
X153250000Y-70637500D03*
X152750000Y-70637500D03*
X152250000Y-70637500D03*
X151750000Y-70637500D03*
X151250000Y-70637500D03*
X150750000Y-70637500D03*
X150250000Y-70637500D03*
X149750000Y-70637500D03*
X149250000Y-70637500D03*
X148750000Y-70637500D03*
D43*
X147337500Y-72050000D03*
X147337500Y-72550000D03*
X147337500Y-73050000D03*
X147337500Y-73550000D03*
X147337500Y-74050000D03*
X147337500Y-74550000D03*
X147337500Y-75050000D03*
X147337500Y-75550000D03*
X147337500Y-76050000D03*
X147337500Y-76550000D03*
X147337500Y-77050000D03*
X147337500Y-77550000D03*
D42*
X148750000Y-78962500D03*
X149250000Y-78962500D03*
X149750000Y-78962500D03*
X150250000Y-78962500D03*
X150750000Y-78962500D03*
X151250000Y-78962500D03*
X151750000Y-78962500D03*
X152250000Y-78962500D03*
X152750000Y-78962500D03*
X153250000Y-78962500D03*
X153750000Y-78962500D03*
X154250000Y-78962500D03*
D43*
X155662500Y-77550000D03*
X155662500Y-77050000D03*
X155662500Y-76550000D03*
X155662500Y-76050000D03*
X155662500Y-75550000D03*
X155662500Y-75050000D03*
X155662500Y-74550000D03*
X155662500Y-74050000D03*
X155662500Y-73550000D03*
X155662500Y-73050000D03*
X155662500Y-72550000D03*
X155662500Y-72050000D03*
%TD*%
D22*
%TO.C,R1*%
X120120000Y-99100000D03*
X120120000Y-101100000D03*
%TD*%
D36*
%TO.C,C8*%
X150637500Y-64850000D03*
X148562500Y-64850000D03*
%TD*%
D14*
%TO.C,R8*%
X160750000Y-89000000D03*
X160750000Y-87000000D03*
%TD*%
M02*
