%TF.GenerationSoftware,KiCad,Pcbnew,8.0.3*%
%TF.CreationDate,2024-07-18T14:45:25+02:00*%
%TF.ProjectId,usb-pd-mch-hotplate,7573622d-7064-42d6-9d63-682d686f7470,rev?*%
%TF.SameCoordinates,Original*%
%TF.FileFunction,Soldermask,Bot*%
%TF.FilePolarity,Negative*%
%FSLAX46Y46*%
G04 Gerber Fmt 4.6, Leading zero omitted, Abs format (unit mm)*
G04 Created by KiCad (PCBNEW 8.0.3) date 2024-07-18 14:45:25*
%MOMM*%
%LPD*%
G01*
G04 APERTURE LIST*
%ADD10R,1.700000X1.700000*%
%ADD11O,1.700000X1.700000*%
%ADD12C,0.800000*%
%ADD13C,5.000000*%
%ADD14C,1.500000*%
%ADD15C,1.950000*%
%ADD16R,1.500000X1.500000*%
%ADD17C,0.600000*%
%ADD18O,0.600000X0.850000*%
%ADD19O,2.300000X1.300000*%
%ADD20O,2.600000X1.300000*%
%ADD21C,1.600000*%
G04 APERTURE END LIST*
D10*
%TO.C,J4*%
X160100000Y-116800000D03*
D11*
X157560000Y-116800000D03*
X155020000Y-116800000D03*
X152480000Y-116800000D03*
X149940000Y-116800000D03*
X147400000Y-116800000D03*
%TD*%
D12*
%TO.C,H3*%
X111725000Y-118600000D03*
X112274175Y-117274175D03*
X112274175Y-119925825D03*
X113600000Y-116725000D03*
D13*
X113600000Y-118600000D03*
D12*
X113600000Y-120475000D03*
X114925825Y-117274175D03*
X114925825Y-119925825D03*
X115475000Y-118600000D03*
%TD*%
%TO.C,H1*%
X167225000Y-63600000D03*
X167774175Y-62274175D03*
X167774175Y-64925825D03*
X169100000Y-61725000D03*
D13*
X169100000Y-63600000D03*
D12*
X169100000Y-65475000D03*
X170425825Y-62274175D03*
X170425825Y-64925825D03*
X170975000Y-63600000D03*
%TD*%
%TO.C,H4*%
X167225000Y-118600000D03*
X167774175Y-117274175D03*
X167774175Y-119925825D03*
X169100000Y-116725000D03*
D13*
X169100000Y-118600000D03*
D12*
X169100000Y-120475000D03*
X170425825Y-117274175D03*
X170425825Y-119925825D03*
X170975000Y-118600000D03*
%TD*%
D14*
%TO.C,BTN_UP*%
X111950000Y-82950000D03*
X111950000Y-87450000D03*
D15*
X114500000Y-81700000D03*
X114500000Y-88700000D03*
%TD*%
D14*
%TO.C,BTN_STARTSTOP*%
X114400000Y-105200000D03*
X119400000Y-105200000D03*
X114400000Y-109700000D03*
X119400000Y-109700000D03*
X116900000Y-104300000D03*
X116900000Y-110600000D03*
%TD*%
%TO.C,RESET*%
X166940000Y-95600000D03*
X166940000Y-91100000D03*
D15*
X164390000Y-96850000D03*
X164390000Y-89850000D03*
%TD*%
D16*
%TO.C,J6*%
X127400000Y-93200000D03*
D14*
X124860000Y-93200000D03*
%TD*%
D12*
%TO.C,H2*%
X111725000Y-63600000D03*
X112274175Y-62274175D03*
X112274175Y-64925825D03*
X113600000Y-61725000D03*
D13*
X113600000Y-63600000D03*
D12*
X113600000Y-65475000D03*
X114925825Y-62274175D03*
X114925825Y-64925825D03*
X115475000Y-63600000D03*
%TD*%
D17*
%TO.C,J2*%
X167550000Y-85100000D03*
D18*
X167550000Y-79100000D03*
D19*
X166825000Y-86420000D03*
D20*
X170650000Y-86420000D03*
D19*
X166825000Y-77780000D03*
D20*
X170650000Y-77780000D03*
%TD*%
D21*
%TO.C,J1*%
X141320000Y-100850000D03*
X132480000Y-100850000D03*
%TD*%
D10*
%TO.C,J8*%
X148320000Y-97200000D03*
D11*
X150860000Y-97200000D03*
X153400000Y-97200000D03*
X155940000Y-97200000D03*
%TD*%
D14*
%TO.C,BTN_DOWN*%
X111950000Y-94300000D03*
X111950000Y-98800000D03*
D15*
X114500000Y-93050000D03*
X114500000Y-100050000D03*
%TD*%
M02*
