%TF.GenerationSoftware,KiCad,Pcbnew,8.0.3*%
%TF.CreationDate,2024-07-18T14:45:25+02:00*%
%TF.ProjectId,usb-pd-mch-hotplate,7573622d-7064-42d6-9d63-682d686f7470,rev?*%
%TF.SameCoordinates,Original*%
%TF.FileFunction,Copper,L2,Bot*%
%TF.FilePolarity,Positive*%
%FSLAX46Y46*%
G04 Gerber Fmt 4.6, Leading zero omitted, Abs format (unit mm)*
G04 Created by KiCad (PCBNEW 8.0.3) date 2024-07-18 14:45:25*
%MOMM*%
%LPD*%
G01*
G04 APERTURE LIST*
%TA.AperFunction,ComponentPad*%
%ADD10R,1.700000X1.700000*%
%TD*%
%TA.AperFunction,ComponentPad*%
%ADD11O,1.700000X1.700000*%
%TD*%
%TA.AperFunction,ComponentPad*%
%ADD12C,0.800000*%
%TD*%
%TA.AperFunction,ComponentPad*%
%ADD13C,5.000000*%
%TD*%
%TA.AperFunction,ComponentPad*%
%ADD14C,1.500000*%
%TD*%
%TA.AperFunction,ComponentPad*%
%ADD15C,1.950000*%
%TD*%
%TA.AperFunction,ComponentPad*%
%ADD16R,1.500000X1.500000*%
%TD*%
%TA.AperFunction,ComponentPad*%
%ADD17O,2.300000X1.300000*%
%TD*%
%TA.AperFunction,ComponentPad*%
%ADD18O,2.600000X1.300000*%
%TD*%
%TA.AperFunction,ViaPad*%
%ADD19C,0.800000*%
%TD*%
%TA.AperFunction,Conductor*%
%ADD20C,0.500000*%
%TD*%
%TA.AperFunction,Conductor*%
%ADD21C,0.300000*%
%TD*%
G04 APERTURE END LIST*
D10*
%TO.P,J4,1,Pin_1*%
%TO.N,GND*%
X160100000Y-116800000D03*
D11*
%TO.P,J4,2,Pin_2*%
%TO.N,/SWDIO*%
X157560000Y-116800000D03*
%TO.P,J4,3,Pin_3*%
%TO.N,/SWCLK*%
X155020000Y-116800000D03*
%TO.P,J4,4,Pin_4*%
%TO.N,/UART_RX*%
X152480000Y-116800000D03*
%TO.P,J4,5,Pin_5*%
%TO.N,/UART_TX*%
X149940000Y-116800000D03*
%TO.P,J4,6,Pin_6*%
%TO.N,+3V3*%
X147400000Y-116800000D03*
%TD*%
D12*
%TO.P,H3,1,1*%
%TO.N,GND*%
X111725000Y-118600000D03*
X112274175Y-117274175D03*
X112274175Y-119925825D03*
X113600000Y-116725000D03*
D13*
X113600000Y-118600000D03*
D12*
X113600000Y-120475000D03*
X114925825Y-117274175D03*
X114925825Y-119925825D03*
X115475000Y-118600000D03*
%TD*%
%TO.P,H1,1,1*%
%TO.N,GND*%
X167225000Y-63600000D03*
X167774175Y-62274175D03*
X167774175Y-64925825D03*
X169100000Y-61725000D03*
D13*
X169100000Y-63600000D03*
D12*
X169100000Y-65475000D03*
X170425825Y-62274175D03*
X170425825Y-64925825D03*
X170975000Y-63600000D03*
%TD*%
%TO.P,H4,1,1*%
%TO.N,GND*%
X167225000Y-118600000D03*
X167774175Y-117274175D03*
X167774175Y-119925825D03*
X169100000Y-116725000D03*
D13*
X169100000Y-118600000D03*
D12*
X169100000Y-120475000D03*
X170425825Y-117274175D03*
X170425825Y-119925825D03*
X170975000Y-118600000D03*
%TD*%
D14*
%TO.P,BTN_UP,1,1*%
%TO.N,/BTN_UP*%
X111950000Y-82950000D03*
%TO.P,BTN_UP,2,2*%
%TO.N,+3V3*%
X111950000Y-87450000D03*
D15*
%TO.P,BTN_UP,MH1*%
%TO.N,N/C*%
X114500000Y-81700000D03*
%TO.P,BTN_UP,MH2*%
X114500000Y-88700000D03*
%TD*%
D14*
%TO.P,BTN_STARTSTOP,1*%
%TO.N,/BTN_START_STOP*%
X114400000Y-105200000D03*
%TO.P,BTN_STARTSTOP,2*%
X119400000Y-105200000D03*
%TO.P,BTN_STARTSTOP,3*%
%TO.N,+3V3*%
X114400000Y-109700000D03*
%TO.P,BTN_STARTSTOP,4*%
X119400000Y-109700000D03*
%TO.P,BTN_STARTSTOP,5,K*%
%TO.N,Net-(S1-K)*%
X116900000Y-104300000D03*
%TO.P,BTN_STARTSTOP,6,A*%
%TO.N,/LED_START_STOP*%
X116900000Y-110600000D03*
%TD*%
%TO.P,RESET,1,1*%
%TO.N,Net-(C11-Pad1)*%
X166940000Y-95600000D03*
%TO.P,RESET,2,2*%
%TO.N,GND*%
X166940000Y-91100000D03*
D15*
%TO.P,RESET,MH1*%
%TO.N,N/C*%
X164390000Y-96850000D03*
%TO.P,RESET,MH2*%
X164390000Y-89850000D03*
%TD*%
D16*
%TO.P,J6,1,Pin_1*%
%TO.N,Net-(J6-Pin_1)*%
X127400000Y-93200000D03*
D14*
%TO.P,J6,2,Pin_2*%
%TO.N,VBUS*%
X124860000Y-93200000D03*
%TD*%
D12*
%TO.P,H2,1,1*%
%TO.N,GND*%
X111725000Y-63600000D03*
X112274175Y-62274175D03*
X112274175Y-64925825D03*
X113600000Y-61725000D03*
D13*
X113600000Y-63600000D03*
D12*
X113600000Y-65475000D03*
X114925825Y-62274175D03*
X114925825Y-64925825D03*
X115475000Y-63600000D03*
%TD*%
D17*
%TO.P,J2,S1,SHIELD*%
%TO.N,GND*%
X166825000Y-86420000D03*
D18*
X170650000Y-86420000D03*
D17*
X166825000Y-77780000D03*
D18*
X170650000Y-77780000D03*
%TD*%
D10*
%TO.P,J8,1,Pin_1*%
%TO.N,/DISP_I2C_SDA*%
X148320000Y-97200000D03*
D11*
%TO.P,J8,2,Pin_2*%
%TO.N,/DISP_I2C_SCL*%
X150860000Y-97200000D03*
%TO.P,J8,3,Pin_3*%
%TO.N,GND*%
X153400000Y-97200000D03*
%TO.P,J8,4,Pin_4*%
%TO.N,+3V3*%
X155940000Y-97200000D03*
%TD*%
D14*
%TO.P,BTN_DOWN,1,1*%
%TO.N,/BTN_DOWN*%
X111950000Y-94300000D03*
%TO.P,BTN_DOWN,2,2*%
%TO.N,+3V3*%
X111950000Y-98800000D03*
D15*
%TO.P,BTN_DOWN,MH1*%
%TO.N,N/C*%
X114500000Y-93050000D03*
%TO.P,BTN_DOWN,MH2*%
X114500000Y-100050000D03*
%TD*%
D19*
%TO.N,+3V3*%
X117500000Y-81000000D03*
X163200000Y-81550000D03*
X142550000Y-67550000D03*
X134160000Y-77930000D03*
X164400000Y-67550000D03*
%TO.N,VBUS*%
X122100000Y-72200000D03*
X160500000Y-75150000D03*
X148500000Y-68700000D03*
%TO.N,+3.3VA*%
X141250000Y-75550000D03*
X137100000Y-79550000D03*
%TO.N,/UART_TX*%
X147350000Y-85500000D03*
X148850000Y-76550000D03*
%TO.N,/UART_RX*%
X148900000Y-85550000D03*
X148850000Y-83000000D03*
%TO.N,GND*%
X160250000Y-79800000D03*
X145750000Y-77000000D03*
X119400000Y-98100000D03*
X154700000Y-80900000D03*
X148900000Y-61850000D03*
X125800000Y-88700000D03*
X156150000Y-65600000D03*
X145250000Y-81550000D03*
X143150000Y-63700000D03*
X138300000Y-76500000D03*
X134000000Y-95000000D03*
X120000000Y-86850000D03*
X153269669Y-63180331D03*
X146050000Y-66650000D03*
X118120000Y-91530000D03*
X149750000Y-75650000D03*
%TO.N,/BOOT*%
X157600000Y-73700000D03*
X160800000Y-67750000D03*
%TO.N,/RESET*%
X160400000Y-85700000D03*
X151450000Y-73350000D03*
%TO.N,/SWDIO*%
X158550000Y-77450000D03*
X159350000Y-84450000D03*
%TO.N,/SWCLK*%
X157350000Y-84400000D03*
X157550000Y-76450000D03*
%TO.N,/DISP_I2C_SDA*%
X150400000Y-85500000D03*
X152600000Y-76500000D03*
%TO.N,/MCH_CONTROL*%
X149150000Y-72450000D03*
X129850000Y-83300000D03*
%TO.N,/ADC_TERMO_SENSOR*%
X150350000Y-73050000D03*
X138050000Y-86750000D03*
%TD*%
D20*
%TO.N,+3V3*%
X117500000Y-81900000D02*
X111950000Y-87450000D01*
X162950000Y-64300000D02*
X164400000Y-65750000D01*
X116800000Y-93950000D02*
X116800000Y-82600000D01*
X111950000Y-98800000D02*
X116800000Y-93950000D01*
X142550000Y-67550000D02*
X134160000Y-75940000D01*
X147400000Y-116800000D02*
X147400000Y-112500000D01*
X145800000Y-64300000D02*
X162950000Y-64300000D01*
X155940000Y-103960000D02*
X155940000Y-97200000D01*
X147400000Y-112500000D02*
X155940000Y-103960000D01*
X134160000Y-75940000D02*
X134160000Y-77930000D01*
X164400000Y-65750000D02*
X164400000Y-67550000D01*
X165500000Y-74600000D02*
X165500000Y-68650000D01*
X163200000Y-76900000D02*
X165500000Y-74600000D01*
X142550000Y-67550000D02*
X145800000Y-64300000D01*
D21*
X116800000Y-82600000D02*
X117500000Y-81900000D01*
D20*
X163200000Y-81550000D02*
X163200000Y-76900000D01*
X165500000Y-68650000D02*
X164400000Y-67550000D01*
X117500000Y-81000000D02*
X117500000Y-81900000D01*
%TO.N,VBUS*%
X160500000Y-75150000D02*
X154950000Y-75150000D01*
X122100000Y-72200000D02*
X122100000Y-90440000D01*
X154950000Y-75150000D02*
X148500000Y-68700000D01*
X122100000Y-90440000D02*
X124860000Y-93200000D01*
D21*
%TO.N,+3.3VA*%
X138150000Y-74350000D02*
X136150000Y-76350000D01*
X140050000Y-74350000D02*
X138150000Y-74350000D01*
X136150000Y-78600000D02*
X137100000Y-79550000D01*
X141250000Y-75550000D02*
X140050000Y-74350000D01*
X136150000Y-76350000D02*
X136150000Y-78600000D01*
%TO.N,/UART_TX*%
X147300000Y-80350000D02*
X147300000Y-85450000D01*
X148850000Y-76550000D02*
X148850000Y-78800000D01*
X147300000Y-85450000D02*
X147350000Y-85500000D01*
X148850000Y-78800000D02*
X147300000Y-80350000D01*
%TO.N,/UART_RX*%
X148850000Y-85500000D02*
X148900000Y-85550000D01*
X148850000Y-83000000D02*
X148850000Y-85500000D01*
%TO.N,/BOOT*%
X160800000Y-68800000D02*
X157600000Y-72000000D01*
X160800000Y-67750000D02*
X160800000Y-68800000D01*
X157600000Y-72000000D02*
X157600000Y-73700000D01*
%TO.N,/RESET*%
X160400000Y-85700000D02*
X157100000Y-85700000D01*
X156050000Y-84650000D02*
X156050000Y-78050000D01*
X151450000Y-73450000D02*
X151450000Y-73350000D01*
X157100000Y-85700000D02*
X156050000Y-84650000D01*
X156050000Y-78050000D02*
X151450000Y-73450000D01*
%TO.N,/SWDIO*%
X158850000Y-83950000D02*
X158850000Y-77750000D01*
X159350000Y-84450000D02*
X158850000Y-83950000D01*
X158850000Y-77750000D02*
X158550000Y-77450000D01*
%TO.N,/SWCLK*%
X157550000Y-84200000D02*
X157350000Y-84400000D01*
X157550000Y-76450000D02*
X157550000Y-84200000D01*
X157400000Y-84450000D02*
X157350000Y-84400000D01*
%TO.N,/DISP_I2C_SDA*%
X150400000Y-85500000D02*
X150400000Y-83400000D01*
X153100000Y-80700000D02*
X153100000Y-77600000D01*
X150400000Y-83400000D02*
X153100000Y-80700000D01*
X152600000Y-77100000D02*
X152600000Y-76500000D01*
X153100000Y-77600000D02*
X152600000Y-77100000D01*
%TO.N,/MCH_CONTROL*%
X138150000Y-83300000D02*
X129850000Y-83300000D01*
X142750000Y-78700000D02*
X138150000Y-83300000D01*
X149150000Y-72450000D02*
X145410661Y-72450000D01*
X145410661Y-72450000D02*
X142750000Y-75110661D01*
X142750000Y-75110661D02*
X142750000Y-78700000D01*
%TO.N,/ADC_TERMO_SENSOR*%
X138050000Y-86750000D02*
X138050000Y-84750000D01*
X144100000Y-78700000D02*
X144100000Y-75650000D01*
X149750000Y-73650000D02*
X150350000Y-73050000D01*
X144100000Y-75650000D02*
X146100000Y-73650000D01*
X138050000Y-84750000D02*
X144100000Y-78700000D01*
X146100000Y-73650000D02*
X149750000Y-73650000D01*
%TD*%
%TA.AperFunction,Conductor*%
%TO.N,GND*%
G36*
X170752569Y-60097884D02*
G01*
X171022283Y-60127965D01*
X171040519Y-60131397D01*
X171301642Y-60201119D01*
X171319156Y-60207232D01*
X171566943Y-60315155D01*
X171583355Y-60323818D01*
X171812258Y-60467528D01*
X171827189Y-60478542D01*
X171929629Y-60566676D01*
X172032065Y-60654807D01*
X172045192Y-60667934D01*
X172090985Y-60721160D01*
X172193818Y-60840685D01*
X172221454Y-60872806D01*
X172232474Y-60887745D01*
X172376179Y-61116641D01*
X172384845Y-61133059D01*
X172491984Y-61379047D01*
X172502299Y-61428362D01*
X172527599Y-77139510D01*
X172508022Y-77206581D01*
X172455292Y-77252421D01*
X172386150Y-77262476D01*
X172322547Y-77233554D01*
X172293114Y-77196004D01*
X172283567Y-77177267D01*
X172177176Y-77030830D01*
X172049169Y-76902823D01*
X171902734Y-76796434D01*
X171741447Y-76714252D01*
X171741444Y-76714251D01*
X171569293Y-76658317D01*
X171390506Y-76630000D01*
X170900000Y-76630000D01*
X170900000Y-77480000D01*
X170400000Y-77480000D01*
X170400000Y-76630000D01*
X169909494Y-76630000D01*
X169730706Y-76658317D01*
X169558555Y-76714251D01*
X169558552Y-76714252D01*
X169397265Y-76796434D01*
X169250830Y-76902823D01*
X169122823Y-77030830D01*
X169016434Y-77177265D01*
X168934252Y-77338552D01*
X168934250Y-77338558D01*
X168878318Y-77510704D01*
X168878315Y-77510714D01*
X168875261Y-77530000D01*
X169833012Y-77530000D01*
X169815795Y-77539940D01*
X169759940Y-77595795D01*
X169720444Y-77664204D01*
X169700000Y-77740504D01*
X169700000Y-77819496D01*
X169720444Y-77895796D01*
X169759940Y-77964205D01*
X169815795Y-78020060D01*
X169833012Y-78030000D01*
X168875261Y-78030000D01*
X168878315Y-78049285D01*
X168878318Y-78049295D01*
X168934250Y-78221441D01*
X168934252Y-78221447D01*
X169016434Y-78382734D01*
X169122823Y-78529169D01*
X169250830Y-78657176D01*
X169397265Y-78763565D01*
X169558552Y-78845747D01*
X169558555Y-78845748D01*
X169730706Y-78901682D01*
X169909494Y-78930000D01*
X170400000Y-78930000D01*
X170400000Y-78080000D01*
X170900000Y-78080000D01*
X170900000Y-78930000D01*
X171390506Y-78930000D01*
X171569293Y-78901682D01*
X171741444Y-78845748D01*
X171741447Y-78845747D01*
X171902734Y-78763565D01*
X172049169Y-78657176D01*
X172177176Y-78529169D01*
X172283567Y-78382732D01*
X172295170Y-78359961D01*
X172343144Y-78309165D01*
X172410965Y-78292369D01*
X172477100Y-78314906D01*
X172520552Y-78369621D01*
X172529655Y-78416055D01*
X172541556Y-85806902D01*
X172521979Y-85873973D01*
X172469249Y-85919813D01*
X172400107Y-85929868D01*
X172336504Y-85900946D01*
X172307071Y-85863396D01*
X172283567Y-85817267D01*
X172177176Y-85670830D01*
X172049169Y-85542823D01*
X171902734Y-85436434D01*
X171741447Y-85354252D01*
X171741444Y-85354251D01*
X171569293Y-85298317D01*
X171390506Y-85270000D01*
X170900000Y-85270000D01*
X170900000Y-86120000D01*
X170400000Y-86120000D01*
X170400000Y-85270000D01*
X169909494Y-85270000D01*
X169730706Y-85298317D01*
X169558555Y-85354251D01*
X169558552Y-85354252D01*
X169397265Y-85436434D01*
X169250830Y-85542823D01*
X169122823Y-85670830D01*
X169016434Y-85817265D01*
X168934252Y-85978552D01*
X168934250Y-85978558D01*
X168878318Y-86150704D01*
X168878315Y-86150714D01*
X168875261Y-86170000D01*
X169833012Y-86170000D01*
X169815795Y-86179940D01*
X169759940Y-86235795D01*
X169720444Y-86304204D01*
X169700000Y-86380504D01*
X169700000Y-86459496D01*
X169720444Y-86535796D01*
X169759940Y-86604205D01*
X169815795Y-86660060D01*
X169833012Y-86670000D01*
X168875261Y-86670000D01*
X168878315Y-86689285D01*
X168878318Y-86689295D01*
X168934250Y-86861441D01*
X168934252Y-86861447D01*
X169016434Y-87022734D01*
X169122823Y-87169169D01*
X169250830Y-87297176D01*
X169397265Y-87403565D01*
X169558552Y-87485747D01*
X169558555Y-87485748D01*
X169730706Y-87541682D01*
X169909494Y-87570000D01*
X170400000Y-87570000D01*
X170400000Y-86720000D01*
X170900000Y-86720000D01*
X170900000Y-87570000D01*
X171390506Y-87570000D01*
X171569293Y-87541682D01*
X171741444Y-87485748D01*
X171741447Y-87485747D01*
X171902734Y-87403565D01*
X172049169Y-87297176D01*
X172177176Y-87169169D01*
X172283565Y-87022735D01*
X172309039Y-86972741D01*
X172357014Y-86921945D01*
X172424834Y-86905150D01*
X172490969Y-86927687D01*
X172534421Y-86982402D01*
X172543524Y-87028836D01*
X172597085Y-120290567D01*
X172596321Y-120304511D01*
X172572034Y-120522278D01*
X172568601Y-120540522D01*
X172498882Y-120801636D01*
X172492764Y-120819163D01*
X172384845Y-121066940D01*
X172376179Y-121083358D01*
X172232474Y-121312254D01*
X172221454Y-121327193D01*
X172045192Y-121532065D01*
X172032065Y-121545192D01*
X171827193Y-121721454D01*
X171812254Y-121732474D01*
X171583358Y-121876179D01*
X171566940Y-121884845D01*
X171319163Y-121992764D01*
X171301636Y-121998882D01*
X171040522Y-122068601D01*
X171022279Y-122072034D01*
X170808415Y-122095886D01*
X170778385Y-122099236D01*
X170764642Y-122100000D01*
X111935358Y-122100000D01*
X111921614Y-122099236D01*
X111886283Y-122095295D01*
X111677720Y-122072034D01*
X111659477Y-122068601D01*
X111398363Y-121998882D01*
X111380836Y-121992764D01*
X111133059Y-121884845D01*
X111116641Y-121876179D01*
X110887745Y-121732474D01*
X110872806Y-121721454D01*
X110667934Y-121545192D01*
X110654807Y-121532065D01*
X110506182Y-121359316D01*
X110478542Y-121327189D01*
X110467528Y-121312258D01*
X110323818Y-121083355D01*
X110315154Y-121066940D01*
X110207232Y-120819156D01*
X110201119Y-120801642D01*
X110131397Y-120540519D01*
X110127965Y-120522278D01*
X110100764Y-120278385D01*
X110100000Y-120264641D01*
X110100000Y-118599996D01*
X110594916Y-118599996D01*
X110594916Y-118600003D01*
X110615235Y-118948869D01*
X110615236Y-118948880D01*
X110675914Y-119293002D01*
X110675916Y-119293011D01*
X110776145Y-119627800D01*
X110914555Y-119948670D01*
X110914561Y-119948683D01*
X111089289Y-120251322D01*
X111297967Y-120531625D01*
X111306148Y-120540296D01*
X112556319Y-119290124D01*
X112646554Y-119414320D01*
X112785680Y-119553446D01*
X112812251Y-119572751D01*
X112819063Y-119579264D01*
X112842592Y-119594795D01*
X112909872Y-119643678D01*
X111662818Y-120890733D01*
X111662819Y-120890734D01*
X111805484Y-121010445D01*
X112097461Y-121202480D01*
X112409739Y-121359314D01*
X112409745Y-121359316D01*
X112738130Y-121478838D01*
X112738133Y-121478839D01*
X113078171Y-121559429D01*
X113425276Y-121599999D01*
X113425277Y-121600000D01*
X113774723Y-121600000D01*
X113774723Y-121599999D01*
X114121827Y-121559429D01*
X114121829Y-121559429D01*
X114461866Y-121478839D01*
X114461869Y-121478838D01*
X114790254Y-121359316D01*
X114790260Y-121359314D01*
X115102538Y-121202480D01*
X115394509Y-121010449D01*
X115394510Y-121010448D01*
X115537179Y-120890734D01*
X115537180Y-120890733D01*
X114290991Y-119644544D01*
X114312047Y-119627752D01*
X114414320Y-119553446D01*
X114450134Y-119517631D01*
X114465574Y-119505319D01*
X114487200Y-119480565D01*
X114553446Y-119414320D01*
X114594772Y-119357439D01*
X114613315Y-119336216D01*
X114627765Y-119312028D01*
X114643679Y-119290126D01*
X115893849Y-120540297D01*
X115893851Y-120540296D01*
X115902022Y-120531636D01*
X115902033Y-120531623D01*
X116110710Y-120251322D01*
X116285438Y-119948683D01*
X116285444Y-119948670D01*
X116423854Y-119627800D01*
X116524083Y-119293011D01*
X116524085Y-119293002D01*
X116584763Y-118948880D01*
X116584764Y-118948869D01*
X116605084Y-118600003D01*
X116605084Y-118599996D01*
X166094916Y-118599996D01*
X166094916Y-118600003D01*
X166115235Y-118948869D01*
X166115236Y-118948880D01*
X166175914Y-119293002D01*
X166175916Y-119293011D01*
X166276145Y-119627800D01*
X166414555Y-119948670D01*
X166414561Y-119948683D01*
X166589289Y-120251322D01*
X166797967Y-120531625D01*
X166806148Y-120540296D01*
X168056319Y-119290124D01*
X168146554Y-119414320D01*
X168285680Y-119553446D01*
X168312251Y-119572751D01*
X168319063Y-119579264D01*
X168342592Y-119594795D01*
X168409872Y-119643678D01*
X167162818Y-120890733D01*
X167162819Y-120890734D01*
X167305484Y-121010445D01*
X167597461Y-121202480D01*
X167909739Y-121359314D01*
X167909745Y-121359316D01*
X168238130Y-121478838D01*
X168238133Y-121478839D01*
X168578171Y-121559429D01*
X168925276Y-121599999D01*
X168925277Y-121600000D01*
X169274723Y-121600000D01*
X169274723Y-121599999D01*
X169621827Y-121559429D01*
X169621829Y-121559429D01*
X169961866Y-121478839D01*
X169961869Y-121478838D01*
X170290254Y-121359316D01*
X170290260Y-121359314D01*
X170602538Y-121202480D01*
X170894509Y-121010449D01*
X170894510Y-121010448D01*
X171037179Y-120890734D01*
X171037180Y-120890733D01*
X169790991Y-119644544D01*
X169812047Y-119627752D01*
X169914320Y-119553446D01*
X169950134Y-119517631D01*
X169965574Y-119505319D01*
X169987200Y-119480565D01*
X170053446Y-119414320D01*
X170094772Y-119357439D01*
X170113315Y-119336216D01*
X170127765Y-119312028D01*
X170143679Y-119290126D01*
X171393849Y-120540297D01*
X171393851Y-120540296D01*
X171402022Y-120531636D01*
X171402033Y-120531623D01*
X171610710Y-120251322D01*
X171785438Y-119948683D01*
X171785444Y-119948670D01*
X171923854Y-119627800D01*
X172024083Y-119293011D01*
X172024085Y-119293002D01*
X172084763Y-118948880D01*
X172084764Y-118948869D01*
X172105084Y-118600003D01*
X172105084Y-118599996D01*
X172084764Y-118251130D01*
X172084763Y-118251119D01*
X172024085Y-117906997D01*
X172024083Y-117906988D01*
X171923854Y-117572199D01*
X171785444Y-117251329D01*
X171785438Y-117251316D01*
X171610710Y-116948677D01*
X171402032Y-116668374D01*
X171393850Y-116659702D01*
X170143678Y-117909873D01*
X170127767Y-117887973D01*
X170113315Y-117863784D01*
X170094772Y-117842560D01*
X170053446Y-117785680D01*
X169987200Y-117719434D01*
X169965574Y-117694681D01*
X169950133Y-117682367D01*
X169914320Y-117646554D01*
X169812059Y-117572256D01*
X169790991Y-117555455D01*
X171037180Y-116309265D01*
X171037179Y-116309264D01*
X170894519Y-116189557D01*
X170602538Y-115997519D01*
X170290260Y-115840685D01*
X170290254Y-115840683D01*
X169961869Y-115721161D01*
X169961866Y-115721160D01*
X169621828Y-115640570D01*
X169274723Y-115600000D01*
X168925277Y-115600000D01*
X168578172Y-115640570D01*
X168578170Y-115640570D01*
X168238133Y-115721160D01*
X168238130Y-115721161D01*
X167909745Y-115840683D01*
X167909739Y-115840685D01*
X167597461Y-115997519D01*
X167305480Y-116189557D01*
X167162819Y-116309264D01*
X167162818Y-116309265D01*
X168409874Y-117556320D01*
X168342597Y-117605200D01*
X168319063Y-117620736D01*
X168312251Y-117627248D01*
X168285680Y-117646554D01*
X168146554Y-117785680D01*
X168056320Y-117909873D01*
X166806148Y-116659701D01*
X166806147Y-116659702D01*
X166797976Y-116668363D01*
X166797972Y-116668368D01*
X166589289Y-116948677D01*
X166414561Y-117251316D01*
X166414555Y-117251329D01*
X166276145Y-117572199D01*
X166175916Y-117906988D01*
X166175914Y-117906997D01*
X166115236Y-118251119D01*
X166115235Y-118251130D01*
X166094916Y-118599996D01*
X116605084Y-118599996D01*
X116584764Y-118251130D01*
X116584763Y-118251119D01*
X116524085Y-117906997D01*
X116524083Y-117906988D01*
X116423854Y-117572199D01*
X116285444Y-117251329D01*
X116285438Y-117251316D01*
X116110710Y-116948677D01*
X116000023Y-116799999D01*
X146044341Y-116799999D01*
X146044341Y-116800000D01*
X146064936Y-117035403D01*
X146064938Y-117035413D01*
X146126094Y-117263655D01*
X146126096Y-117263659D01*
X146126097Y-117263663D01*
X146166357Y-117350000D01*
X146225965Y-117477830D01*
X146225967Y-117477834D01*
X146282810Y-117559013D01*
X146361505Y-117671401D01*
X146528599Y-117838495D01*
X146605135Y-117892086D01*
X146722165Y-117974032D01*
X146722167Y-117974033D01*
X146722170Y-117974035D01*
X146936337Y-118073903D01*
X147164592Y-118135063D01*
X147335319Y-118150000D01*
X147399999Y-118155659D01*
X147400000Y-118155659D01*
X147400001Y-118155659D01*
X147464681Y-118150000D01*
X147635408Y-118135063D01*
X147863663Y-118073903D01*
X148077830Y-117974035D01*
X148271401Y-117838495D01*
X148438495Y-117671401D01*
X148568425Y-117485842D01*
X148623002Y-117442217D01*
X148692500Y-117435023D01*
X148754855Y-117466546D01*
X148771575Y-117485842D01*
X148901500Y-117671395D01*
X148901505Y-117671401D01*
X149068599Y-117838495D01*
X149145135Y-117892086D01*
X149262165Y-117974032D01*
X149262167Y-117974033D01*
X149262170Y-117974035D01*
X149476337Y-118073903D01*
X149704592Y-118135063D01*
X149875319Y-118150000D01*
X149939999Y-118155659D01*
X149940000Y-118155659D01*
X149940001Y-118155659D01*
X150004681Y-118150000D01*
X150175408Y-118135063D01*
X150403663Y-118073903D01*
X150617830Y-117974035D01*
X150811401Y-117838495D01*
X150978495Y-117671401D01*
X151108425Y-117485842D01*
X151163002Y-117442217D01*
X151232500Y-117435023D01*
X151294855Y-117466546D01*
X151311575Y-117485842D01*
X151441500Y-117671395D01*
X151441505Y-117671401D01*
X151608599Y-117838495D01*
X151685135Y-117892086D01*
X151802165Y-117974032D01*
X151802167Y-117974033D01*
X151802170Y-117974035D01*
X152016337Y-118073903D01*
X152244592Y-118135063D01*
X152415319Y-118150000D01*
X152479999Y-118155659D01*
X152480000Y-118155659D01*
X152480001Y-118155659D01*
X152544681Y-118150000D01*
X152715408Y-118135063D01*
X152943663Y-118073903D01*
X153157830Y-117974035D01*
X153351401Y-117838495D01*
X153518495Y-117671401D01*
X153648425Y-117485842D01*
X153703002Y-117442217D01*
X153772500Y-117435023D01*
X153834855Y-117466546D01*
X153851575Y-117485842D01*
X153981500Y-117671395D01*
X153981505Y-117671401D01*
X154148599Y-117838495D01*
X154225135Y-117892086D01*
X154342165Y-117974032D01*
X154342167Y-117974033D01*
X154342170Y-117974035D01*
X154556337Y-118073903D01*
X154784592Y-118135063D01*
X154955319Y-118150000D01*
X155019999Y-118155659D01*
X155020000Y-118155659D01*
X155020001Y-118155659D01*
X155084681Y-118150000D01*
X155255408Y-118135063D01*
X155483663Y-118073903D01*
X155697830Y-117974035D01*
X155891401Y-117838495D01*
X156058495Y-117671401D01*
X156188425Y-117485842D01*
X156243002Y-117442217D01*
X156312500Y-117435023D01*
X156374855Y-117466546D01*
X156391575Y-117485842D01*
X156521500Y-117671395D01*
X156521505Y-117671401D01*
X156688599Y-117838495D01*
X156765135Y-117892086D01*
X156882165Y-117974032D01*
X156882167Y-117974033D01*
X156882170Y-117974035D01*
X157096337Y-118073903D01*
X157324592Y-118135063D01*
X157495319Y-118150000D01*
X157559999Y-118155659D01*
X157560000Y-118155659D01*
X157560001Y-118155659D01*
X157624681Y-118150000D01*
X157795408Y-118135063D01*
X158023663Y-118073903D01*
X158237830Y-117974035D01*
X158431401Y-117838495D01*
X158553717Y-117716178D01*
X158615036Y-117682696D01*
X158684728Y-117687680D01*
X158740662Y-117729551D01*
X158757577Y-117760528D01*
X158806646Y-117892088D01*
X158806649Y-117892093D01*
X158892809Y-118007187D01*
X158892812Y-118007190D01*
X159007906Y-118093350D01*
X159007913Y-118093354D01*
X159142620Y-118143596D01*
X159142627Y-118143598D01*
X159202155Y-118149999D01*
X159202172Y-118150000D01*
X159850000Y-118150000D01*
X159850000Y-117233012D01*
X159907007Y-117265925D01*
X160034174Y-117300000D01*
X160165826Y-117300000D01*
X160292993Y-117265925D01*
X160350000Y-117233012D01*
X160350000Y-118150000D01*
X160997828Y-118150000D01*
X160997844Y-118149999D01*
X161057372Y-118143598D01*
X161057379Y-118143596D01*
X161192086Y-118093354D01*
X161192093Y-118093350D01*
X161307187Y-118007190D01*
X161307190Y-118007187D01*
X161393350Y-117892093D01*
X161393354Y-117892086D01*
X161443596Y-117757379D01*
X161443598Y-117757372D01*
X161449999Y-117697844D01*
X161450000Y-117697827D01*
X161450000Y-117050000D01*
X160533012Y-117050000D01*
X160565925Y-116992993D01*
X160600000Y-116865826D01*
X160600000Y-116734174D01*
X160565925Y-116607007D01*
X160533012Y-116550000D01*
X161450000Y-116550000D01*
X161450000Y-115902172D01*
X161449999Y-115902155D01*
X161443598Y-115842627D01*
X161443596Y-115842620D01*
X161393354Y-115707913D01*
X161393350Y-115707906D01*
X161307190Y-115592812D01*
X161307187Y-115592809D01*
X161192093Y-115506649D01*
X161192086Y-115506645D01*
X161057379Y-115456403D01*
X161057372Y-115456401D01*
X160997844Y-115450000D01*
X160350000Y-115450000D01*
X160350000Y-116366988D01*
X160292993Y-116334075D01*
X160165826Y-116300000D01*
X160034174Y-116300000D01*
X159907007Y-116334075D01*
X159850000Y-116366988D01*
X159850000Y-115450000D01*
X159202155Y-115450000D01*
X159142627Y-115456401D01*
X159142620Y-115456403D01*
X159007913Y-115506645D01*
X159007906Y-115506649D01*
X158892812Y-115592809D01*
X158892809Y-115592812D01*
X158806649Y-115707906D01*
X158806645Y-115707913D01*
X158757578Y-115839470D01*
X158715707Y-115895404D01*
X158650242Y-115919821D01*
X158581969Y-115904969D01*
X158553715Y-115883819D01*
X158509366Y-115839470D01*
X158431401Y-115761505D01*
X158431397Y-115761502D01*
X158431396Y-115761501D01*
X158237834Y-115625967D01*
X158237830Y-115625965D01*
X158166727Y-115592809D01*
X158023663Y-115526097D01*
X158023659Y-115526096D01*
X158023655Y-115526094D01*
X157795413Y-115464938D01*
X157795403Y-115464936D01*
X157560001Y-115444341D01*
X157559999Y-115444341D01*
X157324596Y-115464936D01*
X157324586Y-115464938D01*
X157096344Y-115526094D01*
X157096335Y-115526098D01*
X156882171Y-115625964D01*
X156882169Y-115625965D01*
X156688597Y-115761505D01*
X156521505Y-115928597D01*
X156391575Y-116114158D01*
X156336998Y-116157783D01*
X156267500Y-116164977D01*
X156205145Y-116133454D01*
X156188425Y-116114158D01*
X156058494Y-115928597D01*
X155891402Y-115761506D01*
X155891395Y-115761501D01*
X155697834Y-115625967D01*
X155697830Y-115625965D01*
X155626727Y-115592809D01*
X155483663Y-115526097D01*
X155483659Y-115526096D01*
X155483655Y-115526094D01*
X155255413Y-115464938D01*
X155255403Y-115464936D01*
X155020001Y-115444341D01*
X155019999Y-115444341D01*
X154784596Y-115464936D01*
X154784586Y-115464938D01*
X154556344Y-115526094D01*
X154556335Y-115526098D01*
X154342171Y-115625964D01*
X154342169Y-115625965D01*
X154148597Y-115761505D01*
X153981505Y-115928597D01*
X153851575Y-116114158D01*
X153796998Y-116157783D01*
X153727500Y-116164977D01*
X153665145Y-116133454D01*
X153648425Y-116114158D01*
X153518494Y-115928597D01*
X153351402Y-115761506D01*
X153351395Y-115761501D01*
X153157834Y-115625967D01*
X153157830Y-115625965D01*
X153086727Y-115592809D01*
X152943663Y-115526097D01*
X152943659Y-115526096D01*
X152943655Y-115526094D01*
X152715413Y-115464938D01*
X152715403Y-115464936D01*
X152480001Y-115444341D01*
X152479999Y-115444341D01*
X152244596Y-115464936D01*
X152244586Y-115464938D01*
X152016344Y-115526094D01*
X152016335Y-115526098D01*
X151802171Y-115625964D01*
X151802169Y-115625965D01*
X151608597Y-115761505D01*
X151441505Y-115928597D01*
X151311575Y-116114158D01*
X151256998Y-116157783D01*
X151187500Y-116164977D01*
X151125145Y-116133454D01*
X151108425Y-116114158D01*
X150978494Y-115928597D01*
X150811402Y-115761506D01*
X150811395Y-115761501D01*
X150617834Y-115625967D01*
X150617830Y-115625965D01*
X150546727Y-115592809D01*
X150403663Y-115526097D01*
X150403659Y-115526096D01*
X150403655Y-115526094D01*
X150175413Y-115464938D01*
X150175403Y-115464936D01*
X149940001Y-115444341D01*
X149939999Y-115444341D01*
X149704596Y-115464936D01*
X149704586Y-115464938D01*
X149476344Y-115526094D01*
X149476335Y-115526098D01*
X149262171Y-115625964D01*
X149262169Y-115625965D01*
X149068597Y-115761505D01*
X148901505Y-115928597D01*
X148771575Y-116114158D01*
X148716998Y-116157783D01*
X148647500Y-116164977D01*
X148585145Y-116133454D01*
X148568425Y-116114158D01*
X148438494Y-115928597D01*
X148271404Y-115761507D01*
X148203375Y-115713872D01*
X148159751Y-115659294D01*
X148150500Y-115612298D01*
X148150500Y-112862230D01*
X148170185Y-112795191D01*
X148186819Y-112774549D01*
X152348471Y-108612897D01*
X156522952Y-104438416D01*
X156572186Y-104364729D01*
X156605084Y-104315495D01*
X156661658Y-104178913D01*
X156690500Y-104033918D01*
X156690500Y-98387700D01*
X156710185Y-98320661D01*
X156743375Y-98286126D01*
X156811401Y-98238495D01*
X156978495Y-98071401D01*
X157114035Y-97877830D01*
X157213903Y-97663663D01*
X157275063Y-97435408D01*
X157295659Y-97200000D01*
X157275063Y-96964592D01*
X157244357Y-96849994D01*
X162909443Y-96849994D01*
X162909443Y-96850005D01*
X162929634Y-97093683D01*
X162929636Y-97093695D01*
X162989663Y-97330734D01*
X163087888Y-97554666D01*
X163221632Y-97759378D01*
X163387242Y-97939277D01*
X163387252Y-97939286D01*
X163580208Y-98089470D01*
X163580212Y-98089473D01*
X163733375Y-98172361D01*
X163795267Y-98205855D01*
X163795270Y-98205856D01*
X164026541Y-98285251D01*
X164026543Y-98285251D01*
X164026545Y-98285252D01*
X164267737Y-98325500D01*
X164267738Y-98325500D01*
X164512262Y-98325500D01*
X164512263Y-98325500D01*
X164753455Y-98285252D01*
X164984733Y-98205855D01*
X165199788Y-98089473D01*
X165392754Y-97939281D01*
X165558368Y-97759377D01*
X165692111Y-97554667D01*
X165790336Y-97330736D01*
X165850364Y-97093692D01*
X165857547Y-97007007D01*
X165870557Y-96850005D01*
X165870557Y-96849994D01*
X165850365Y-96606316D01*
X165850363Y-96606303D01*
X165849871Y-96604361D01*
X165849901Y-96603538D01*
X165849519Y-96601244D01*
X165849990Y-96601165D01*
X165852490Y-96534540D01*
X165892442Y-96477220D01*
X165957041Y-96450598D01*
X166025778Y-96463127D01*
X166057755Y-96486230D01*
X166133123Y-96561598D01*
X166312361Y-96687102D01*
X166510670Y-96779575D01*
X166722023Y-96836207D01*
X166904926Y-96852208D01*
X166939998Y-96855277D01*
X166940000Y-96855277D01*
X166940002Y-96855277D01*
X166968254Y-96852805D01*
X167157977Y-96836207D01*
X167369330Y-96779575D01*
X167567639Y-96687102D01*
X167746877Y-96561598D01*
X167901598Y-96406877D01*
X168027102Y-96227639D01*
X168119575Y-96029330D01*
X168176207Y-95817977D01*
X168195277Y-95600000D01*
X168176207Y-95382023D01*
X168119575Y-95170670D01*
X168027102Y-94972362D01*
X168027100Y-94972359D01*
X168027099Y-94972357D01*
X167901599Y-94793124D01*
X167837797Y-94729322D01*
X167746877Y-94638402D01*
X167608978Y-94541844D01*
X167567638Y-94512897D01*
X167433824Y-94450499D01*
X167369330Y-94420425D01*
X167369326Y-94420424D01*
X167369322Y-94420422D01*
X167157977Y-94363793D01*
X166940002Y-94344723D01*
X166939998Y-94344723D01*
X166794682Y-94357436D01*
X166722023Y-94363793D01*
X166722020Y-94363793D01*
X166510677Y-94420422D01*
X166510668Y-94420426D01*
X166312361Y-94512898D01*
X166312357Y-94512900D01*
X166133121Y-94638402D01*
X165978402Y-94793121D01*
X165852900Y-94972357D01*
X165852898Y-94972361D01*
X165760426Y-95170668D01*
X165760422Y-95170677D01*
X165703793Y-95382020D01*
X165703793Y-95382024D01*
X165684723Y-95599997D01*
X165684723Y-95600002D01*
X165699205Y-95765534D01*
X165685438Y-95834034D01*
X165636823Y-95884217D01*
X165568794Y-95900150D01*
X165502951Y-95876775D01*
X165484448Y-95860324D01*
X165392757Y-95760722D01*
X165392747Y-95760713D01*
X165199791Y-95610529D01*
X165199787Y-95610526D01*
X164984734Y-95494145D01*
X164984729Y-95494143D01*
X164753458Y-95414748D01*
X164572561Y-95384562D01*
X164512263Y-95374500D01*
X164267737Y-95374500D01*
X164222672Y-95382020D01*
X164026541Y-95414748D01*
X163795270Y-95494143D01*
X163795265Y-95494145D01*
X163580212Y-95610526D01*
X163580208Y-95610529D01*
X163387252Y-95760713D01*
X163387242Y-95760722D01*
X163221632Y-95940621D01*
X163087888Y-96145333D01*
X162989663Y-96369265D01*
X162929636Y-96606304D01*
X162929634Y-96606316D01*
X162909443Y-96849994D01*
X157244357Y-96849994D01*
X157213903Y-96736337D01*
X157114035Y-96522171D01*
X157108731Y-96514595D01*
X156978494Y-96328597D01*
X156811402Y-96161506D01*
X156811395Y-96161501D01*
X156617834Y-96025967D01*
X156617830Y-96025965D01*
X156617828Y-96025964D01*
X156403663Y-95926097D01*
X156403659Y-95926096D01*
X156403655Y-95926094D01*
X156175413Y-95864938D01*
X156175403Y-95864936D01*
X155940001Y-95844341D01*
X155939999Y-95844341D01*
X155704596Y-95864936D01*
X155704586Y-95864938D01*
X155476344Y-95926094D01*
X155476335Y-95926098D01*
X155262171Y-96025964D01*
X155262169Y-96025965D01*
X155068597Y-96161505D01*
X154901508Y-96328594D01*
X154771269Y-96514595D01*
X154716692Y-96558219D01*
X154647193Y-96565412D01*
X154584839Y-96533890D01*
X154568119Y-96514594D01*
X154438113Y-96328926D01*
X154438108Y-96328920D01*
X154271082Y-96161894D01*
X154077578Y-96026399D01*
X153863492Y-95926570D01*
X153863486Y-95926567D01*
X153650000Y-95869364D01*
X153650000Y-96766988D01*
X153592993Y-96734075D01*
X153465826Y-96700000D01*
X153334174Y-96700000D01*
X153207007Y-96734075D01*
X153150000Y-96766988D01*
X153150000Y-95869364D01*
X153149999Y-95869364D01*
X152936513Y-95926567D01*
X152936507Y-95926570D01*
X152722422Y-96026399D01*
X152722420Y-96026400D01*
X152528926Y-96161886D01*
X152528920Y-96161891D01*
X152361891Y-96328920D01*
X152361890Y-96328922D01*
X152231880Y-96514595D01*
X152177303Y-96558219D01*
X152107804Y-96565412D01*
X152045450Y-96533890D01*
X152028730Y-96514594D01*
X151898494Y-96328597D01*
X151731402Y-96161506D01*
X151731395Y-96161501D01*
X151537834Y-96025967D01*
X151537830Y-96025965D01*
X151537828Y-96025964D01*
X151323663Y-95926097D01*
X151323659Y-95926096D01*
X151323655Y-95926094D01*
X151095413Y-95864938D01*
X151095403Y-95864936D01*
X150860001Y-95844341D01*
X150859999Y-95844341D01*
X150624596Y-95864936D01*
X150624586Y-95864938D01*
X150396344Y-95926094D01*
X150396335Y-95926098D01*
X150182171Y-96025964D01*
X150182169Y-96025965D01*
X149988600Y-96161503D01*
X149866673Y-96283430D01*
X149805350Y-96316914D01*
X149735658Y-96311930D01*
X149679725Y-96270058D01*
X149662810Y-96239081D01*
X149613797Y-96107671D01*
X149613793Y-96107664D01*
X149527547Y-95992455D01*
X149527544Y-95992452D01*
X149412335Y-95906206D01*
X149412328Y-95906202D01*
X149277482Y-95855908D01*
X149277483Y-95855908D01*
X149217883Y-95849501D01*
X149217881Y-95849500D01*
X149217873Y-95849500D01*
X149217864Y-95849500D01*
X147422129Y-95849500D01*
X147422123Y-95849501D01*
X147362516Y-95855908D01*
X147227671Y-95906202D01*
X147227664Y-95906206D01*
X147112455Y-95992452D01*
X147112452Y-95992455D01*
X147026206Y-96107664D01*
X147026202Y-96107671D01*
X146975908Y-96242517D01*
X146969501Y-96302116D01*
X146969500Y-96302135D01*
X146969500Y-98097870D01*
X146969501Y-98097876D01*
X146975908Y-98157483D01*
X147026202Y-98292328D01*
X147026206Y-98292335D01*
X147112452Y-98407544D01*
X147112455Y-98407547D01*
X147227664Y-98493793D01*
X147227671Y-98493797D01*
X147362517Y-98544091D01*
X147362516Y-98544091D01*
X147369444Y-98544835D01*
X147422127Y-98550500D01*
X149217872Y-98550499D01*
X149277483Y-98544091D01*
X149412331Y-98493796D01*
X149527546Y-98407546D01*
X149613796Y-98292331D01*
X149662810Y-98160916D01*
X149704681Y-98104984D01*
X149770145Y-98080566D01*
X149838418Y-98095417D01*
X149866673Y-98116569D01*
X149988599Y-98238495D01*
X150085384Y-98306265D01*
X150182165Y-98374032D01*
X150182167Y-98374033D01*
X150182170Y-98374035D01*
X150396337Y-98473903D01*
X150624592Y-98535063D01*
X150801034Y-98550500D01*
X150859999Y-98555659D01*
X150860000Y-98555659D01*
X150860001Y-98555659D01*
X150918966Y-98550500D01*
X151095408Y-98535063D01*
X151323663Y-98473903D01*
X151537830Y-98374035D01*
X151731401Y-98238495D01*
X151898495Y-98071401D01*
X152028730Y-97885405D01*
X152083307Y-97841781D01*
X152152805Y-97834587D01*
X152215160Y-97866110D01*
X152231879Y-97885405D01*
X152361890Y-98071078D01*
X152528917Y-98238105D01*
X152722421Y-98373600D01*
X152936507Y-98473429D01*
X152936516Y-98473433D01*
X153150000Y-98530634D01*
X153150000Y-97633012D01*
X153207007Y-97665925D01*
X153334174Y-97700000D01*
X153465826Y-97700000D01*
X153592993Y-97665925D01*
X153650000Y-97633012D01*
X153650000Y-98530633D01*
X153863483Y-98473433D01*
X153863492Y-98473429D01*
X154077578Y-98373600D01*
X154271082Y-98238105D01*
X154438105Y-98071082D01*
X154568119Y-97885405D01*
X154622696Y-97841781D01*
X154692195Y-97834588D01*
X154754549Y-97866110D01*
X154771269Y-97885405D01*
X154901505Y-98071401D01*
X154901506Y-98071402D01*
X155068595Y-98238492D01*
X155068598Y-98238494D01*
X155068599Y-98238495D01*
X155136623Y-98286125D01*
X155180248Y-98340701D01*
X155189500Y-98387700D01*
X155189500Y-103597769D01*
X155169815Y-103664808D01*
X155153181Y-103685450D01*
X146817050Y-112021580D01*
X146817044Y-112021588D01*
X146767812Y-112095268D01*
X146767813Y-112095269D01*
X146734921Y-112144496D01*
X146734914Y-112144508D01*
X146678342Y-112281086D01*
X146678340Y-112281092D01*
X146649500Y-112426079D01*
X146649500Y-115612298D01*
X146629815Y-115679337D01*
X146596625Y-115713872D01*
X146528595Y-115761507D01*
X146361505Y-115928597D01*
X146225965Y-116122169D01*
X146225964Y-116122171D01*
X146126098Y-116336335D01*
X146126094Y-116336344D01*
X146064938Y-116564586D01*
X146064936Y-116564596D01*
X146044341Y-116799999D01*
X116000023Y-116799999D01*
X115902032Y-116668374D01*
X115893850Y-116659702D01*
X114643678Y-117909873D01*
X114627767Y-117887973D01*
X114613315Y-117863784D01*
X114594772Y-117842560D01*
X114553446Y-117785680D01*
X114487200Y-117719434D01*
X114465574Y-117694681D01*
X114450133Y-117682367D01*
X114414320Y-117646554D01*
X114312059Y-117572256D01*
X114290991Y-117555455D01*
X115537180Y-116309265D01*
X115537179Y-116309264D01*
X115394519Y-116189557D01*
X115102538Y-115997519D01*
X114790260Y-115840685D01*
X114790254Y-115840683D01*
X114461869Y-115721161D01*
X114461866Y-115721160D01*
X114121828Y-115640570D01*
X113774723Y-115600000D01*
X113425277Y-115600000D01*
X113078172Y-115640570D01*
X113078170Y-115640570D01*
X112738133Y-115721160D01*
X112738130Y-115721161D01*
X112409745Y-115840683D01*
X112409739Y-115840685D01*
X112097461Y-115997519D01*
X111805480Y-116189557D01*
X111662819Y-116309264D01*
X111662818Y-116309265D01*
X112909874Y-117556320D01*
X112842597Y-117605200D01*
X112819063Y-117620736D01*
X112812251Y-117627248D01*
X112785680Y-117646554D01*
X112646554Y-117785680D01*
X112556320Y-117909873D01*
X111306148Y-116659701D01*
X111306147Y-116659702D01*
X111297976Y-116668363D01*
X111297972Y-116668368D01*
X111089289Y-116948677D01*
X110914561Y-117251316D01*
X110914555Y-117251329D01*
X110776145Y-117572199D01*
X110675916Y-117906988D01*
X110675914Y-117906997D01*
X110615236Y-118251119D01*
X110615235Y-118251130D01*
X110594916Y-118599996D01*
X110100000Y-118599996D01*
X110100000Y-109700000D01*
X113144723Y-109700000D01*
X113162982Y-109908712D01*
X113163793Y-109917975D01*
X113163793Y-109917979D01*
X113220422Y-110129322D01*
X113220424Y-110129326D01*
X113220425Y-110129330D01*
X113239702Y-110170670D01*
X113312897Y-110327638D01*
X113312898Y-110327639D01*
X113438402Y-110506877D01*
X113593123Y-110661598D01*
X113772361Y-110787102D01*
X113970670Y-110879575D01*
X114182023Y-110936207D01*
X114364926Y-110952208D01*
X114399998Y-110955277D01*
X114400000Y-110955277D01*
X114400002Y-110955277D01*
X114428254Y-110952805D01*
X114617977Y-110936207D01*
X114829330Y-110879575D01*
X115027639Y-110787102D01*
X115206877Y-110661598D01*
X115361598Y-110506877D01*
X115429025Y-110410581D01*
X115483600Y-110366958D01*
X115553098Y-110359764D01*
X115615453Y-110391287D01*
X115650867Y-110451517D01*
X115654126Y-110492513D01*
X115644723Y-110599997D01*
X115644723Y-110600002D01*
X115663793Y-110817975D01*
X115663793Y-110817979D01*
X115720422Y-111029322D01*
X115720424Y-111029326D01*
X115720425Y-111029330D01*
X115766661Y-111128484D01*
X115812897Y-111227638D01*
X115812898Y-111227639D01*
X115938402Y-111406877D01*
X116093123Y-111561598D01*
X116272361Y-111687102D01*
X116470670Y-111779575D01*
X116682023Y-111836207D01*
X116864926Y-111852208D01*
X116899998Y-111855277D01*
X116900000Y-111855277D01*
X116900002Y-111855277D01*
X116928254Y-111852805D01*
X117117977Y-111836207D01*
X117329330Y-111779575D01*
X117527639Y-111687102D01*
X117706877Y-111561598D01*
X117861598Y-111406877D01*
X117987102Y-111227639D01*
X118079575Y-111029330D01*
X118136207Y-110817977D01*
X118155277Y-110600000D01*
X118145873Y-110492512D01*
X118159639Y-110424014D01*
X118208255Y-110373831D01*
X118276283Y-110357897D01*
X118342127Y-110381272D01*
X118370975Y-110410582D01*
X118399638Y-110451517D01*
X118438402Y-110506877D01*
X118593123Y-110661598D01*
X118772361Y-110787102D01*
X118970670Y-110879575D01*
X119182023Y-110936207D01*
X119364926Y-110952208D01*
X119399998Y-110955277D01*
X119400000Y-110955277D01*
X119400002Y-110955277D01*
X119428254Y-110952805D01*
X119617977Y-110936207D01*
X119829330Y-110879575D01*
X120027639Y-110787102D01*
X120206877Y-110661598D01*
X120361598Y-110506877D01*
X120487102Y-110327639D01*
X120579575Y-110129330D01*
X120636207Y-109917977D01*
X120655277Y-109700000D01*
X120636207Y-109482023D01*
X120601548Y-109352675D01*
X120579577Y-109270677D01*
X120579576Y-109270676D01*
X120579575Y-109270670D01*
X120487102Y-109072362D01*
X120487100Y-109072359D01*
X120487099Y-109072357D01*
X120361599Y-108893124D01*
X120361596Y-108893121D01*
X120206877Y-108738402D01*
X120027639Y-108612898D01*
X120027640Y-108612898D01*
X120027638Y-108612897D01*
X119928484Y-108566661D01*
X119829330Y-108520425D01*
X119829326Y-108520424D01*
X119829322Y-108520422D01*
X119617977Y-108463793D01*
X119400002Y-108444723D01*
X119399998Y-108444723D01*
X119254682Y-108457436D01*
X119182023Y-108463793D01*
X119182020Y-108463793D01*
X118970677Y-108520422D01*
X118970668Y-108520426D01*
X118772361Y-108612898D01*
X118772357Y-108612900D01*
X118593121Y-108738402D01*
X118438402Y-108893121D01*
X118312900Y-109072357D01*
X118312898Y-109072361D01*
X118220426Y-109270668D01*
X118220422Y-109270677D01*
X118163793Y-109482020D01*
X118163793Y-109482024D01*
X118144723Y-109699997D01*
X118144723Y-109700002D01*
X118154126Y-109807486D01*
X118140359Y-109875986D01*
X118091744Y-109926169D01*
X118023715Y-109942102D01*
X117957871Y-109918726D01*
X117929023Y-109889416D01*
X117861599Y-109793124D01*
X117861593Y-109793118D01*
X117706877Y-109638402D01*
X117527639Y-109512898D01*
X117527640Y-109512898D01*
X117527638Y-109512897D01*
X117428484Y-109466661D01*
X117329330Y-109420425D01*
X117329326Y-109420424D01*
X117329322Y-109420422D01*
X117117977Y-109363793D01*
X116900002Y-109344723D01*
X116899998Y-109344723D01*
X116754682Y-109357436D01*
X116682023Y-109363793D01*
X116682020Y-109363793D01*
X116470677Y-109420422D01*
X116470668Y-109420426D01*
X116272361Y-109512898D01*
X116272357Y-109512900D01*
X116093121Y-109638402D01*
X115938405Y-109793118D01*
X115870976Y-109889417D01*
X115816399Y-109933042D01*
X115746900Y-109940234D01*
X115684546Y-109908712D01*
X115649132Y-109848482D01*
X115645873Y-109807486D01*
X115655277Y-109700000D01*
X115636207Y-109482023D01*
X115601548Y-109352675D01*
X115579577Y-109270677D01*
X115579576Y-109270676D01*
X115579575Y-109270670D01*
X115487102Y-109072362D01*
X115487100Y-109072359D01*
X115487099Y-109072357D01*
X115361599Y-108893124D01*
X115361596Y-108893121D01*
X115206877Y-108738402D01*
X115027639Y-108612898D01*
X115027640Y-108612898D01*
X115027638Y-108612897D01*
X114928484Y-108566661D01*
X114829330Y-108520425D01*
X114829326Y-108520424D01*
X114829322Y-108520422D01*
X114617977Y-108463793D01*
X114400002Y-108444723D01*
X114399998Y-108444723D01*
X114254682Y-108457436D01*
X114182023Y-108463793D01*
X114182020Y-108463793D01*
X113970677Y-108520422D01*
X113970668Y-108520426D01*
X113772361Y-108612898D01*
X113772357Y-108612900D01*
X113593121Y-108738402D01*
X113438402Y-108893121D01*
X113312900Y-109072357D01*
X113312898Y-109072361D01*
X113220426Y-109270668D01*
X113220422Y-109270677D01*
X113163793Y-109482020D01*
X113163793Y-109482023D01*
X113144723Y-109700000D01*
X110100000Y-109700000D01*
X110100000Y-105199997D01*
X113144723Y-105199997D01*
X113144723Y-105200002D01*
X113163793Y-105417975D01*
X113163793Y-105417979D01*
X113220422Y-105629322D01*
X113220424Y-105629326D01*
X113220425Y-105629330D01*
X113266661Y-105728484D01*
X113312897Y-105827638D01*
X113312898Y-105827639D01*
X113438402Y-106006877D01*
X113593123Y-106161598D01*
X113772361Y-106287102D01*
X113970670Y-106379575D01*
X114182023Y-106436207D01*
X114364926Y-106452208D01*
X114399998Y-106455277D01*
X114400000Y-106455277D01*
X114400002Y-106455277D01*
X114428254Y-106452805D01*
X114617977Y-106436207D01*
X114829330Y-106379575D01*
X115027639Y-106287102D01*
X115206877Y-106161598D01*
X115361598Y-106006877D01*
X115487102Y-105827639D01*
X115579575Y-105629330D01*
X115636207Y-105417977D01*
X115655277Y-105200000D01*
X115645873Y-105092512D01*
X115659639Y-105024014D01*
X115708255Y-104973831D01*
X115776283Y-104957897D01*
X115842127Y-104981272D01*
X115870975Y-105010582D01*
X115899638Y-105051517D01*
X115938402Y-105106877D01*
X116093123Y-105261598D01*
X116272361Y-105387102D01*
X116470670Y-105479575D01*
X116682023Y-105536207D01*
X116864926Y-105552208D01*
X116899998Y-105555277D01*
X116900000Y-105555277D01*
X116900002Y-105555277D01*
X116928254Y-105552805D01*
X117117977Y-105536207D01*
X117329330Y-105479575D01*
X117527639Y-105387102D01*
X117706877Y-105261598D01*
X117861598Y-105106877D01*
X117929025Y-105010581D01*
X117983600Y-104966958D01*
X118053098Y-104959764D01*
X118115453Y-104991287D01*
X118150867Y-105051517D01*
X118154126Y-105092513D01*
X118144723Y-105199997D01*
X118144723Y-105200002D01*
X118163793Y-105417975D01*
X118163793Y-105417979D01*
X118220422Y-105629322D01*
X118220424Y-105629326D01*
X118220425Y-105629330D01*
X118266661Y-105728484D01*
X118312897Y-105827638D01*
X118312898Y-105827639D01*
X118438402Y-106006877D01*
X118593123Y-106161598D01*
X118772361Y-106287102D01*
X118970670Y-106379575D01*
X119182023Y-106436207D01*
X119364926Y-106452208D01*
X119399998Y-106455277D01*
X119400000Y-106455277D01*
X119400002Y-106455277D01*
X119428254Y-106452805D01*
X119617977Y-106436207D01*
X119829330Y-106379575D01*
X120027639Y-106287102D01*
X120206877Y-106161598D01*
X120361598Y-106006877D01*
X120487102Y-105827639D01*
X120579575Y-105629330D01*
X120636207Y-105417977D01*
X120655277Y-105200000D01*
X120636207Y-104982023D01*
X120579575Y-104770670D01*
X120487102Y-104572362D01*
X120487100Y-104572359D01*
X120487099Y-104572357D01*
X120361599Y-104393124D01*
X120333198Y-104364723D01*
X120206877Y-104238402D01*
X120027639Y-104112898D01*
X120027640Y-104112898D01*
X120027638Y-104112897D01*
X119928484Y-104066661D01*
X119829330Y-104020425D01*
X119829326Y-104020424D01*
X119829322Y-104020422D01*
X119617977Y-103963793D01*
X119400002Y-103944723D01*
X119399998Y-103944723D01*
X119254682Y-103957436D01*
X119182023Y-103963793D01*
X119182020Y-103963793D01*
X118970677Y-104020422D01*
X118970668Y-104020426D01*
X118772361Y-104112898D01*
X118772357Y-104112900D01*
X118593121Y-104238402D01*
X118438405Y-104393118D01*
X118370976Y-104489417D01*
X118316399Y-104533042D01*
X118246900Y-104540234D01*
X118184546Y-104508712D01*
X118149132Y-104448482D01*
X118145873Y-104407486D01*
X118155277Y-104300000D01*
X118136207Y-104082023D01*
X118101548Y-103952675D01*
X118079577Y-103870677D01*
X118079576Y-103870676D01*
X118079575Y-103870670D01*
X117987102Y-103672362D01*
X117987100Y-103672359D01*
X117987099Y-103672357D01*
X117861599Y-103493124D01*
X117861596Y-103493121D01*
X117706877Y-103338402D01*
X117527639Y-103212898D01*
X117527640Y-103212898D01*
X117527638Y-103212897D01*
X117428484Y-103166661D01*
X117329330Y-103120425D01*
X117329326Y-103120424D01*
X117329322Y-103120422D01*
X117117977Y-103063793D01*
X116900002Y-103044723D01*
X116899998Y-103044723D01*
X116754682Y-103057436D01*
X116682023Y-103063793D01*
X116682020Y-103063793D01*
X116470677Y-103120422D01*
X116470668Y-103120426D01*
X116272361Y-103212898D01*
X116272357Y-103212900D01*
X116093121Y-103338402D01*
X115938402Y-103493121D01*
X115812900Y-103672357D01*
X115812898Y-103672361D01*
X115720426Y-103870668D01*
X115720422Y-103870677D01*
X115663793Y-104082020D01*
X115663793Y-104082024D01*
X115644723Y-104299997D01*
X115644723Y-104300002D01*
X115654126Y-104407486D01*
X115640359Y-104475986D01*
X115591744Y-104526169D01*
X115523715Y-104542102D01*
X115457871Y-104518726D01*
X115429023Y-104489416D01*
X115361599Y-104393124D01*
X115333198Y-104364723D01*
X115206877Y-104238402D01*
X115027639Y-104112898D01*
X115027640Y-104112898D01*
X115027638Y-104112897D01*
X114928484Y-104066661D01*
X114829330Y-104020425D01*
X114829326Y-104020424D01*
X114829322Y-104020422D01*
X114617977Y-103963793D01*
X114400002Y-103944723D01*
X114399998Y-103944723D01*
X114254682Y-103957436D01*
X114182023Y-103963793D01*
X114182020Y-103963793D01*
X113970677Y-104020422D01*
X113970668Y-104020426D01*
X113772361Y-104112898D01*
X113772357Y-104112900D01*
X113593121Y-104238402D01*
X113438402Y-104393121D01*
X113312900Y-104572357D01*
X113312898Y-104572361D01*
X113220426Y-104770668D01*
X113220422Y-104770677D01*
X113163793Y-104982020D01*
X113163793Y-104982023D01*
X113161294Y-105010583D01*
X113144723Y-105199997D01*
X110100000Y-105199997D01*
X110100000Y-82950000D01*
X110694723Y-82950000D01*
X110713402Y-83163513D01*
X110713793Y-83167975D01*
X110713793Y-83167979D01*
X110770422Y-83379322D01*
X110770424Y-83379326D01*
X110770425Y-83379330D01*
X110808489Y-83460958D01*
X110862897Y-83577638D01*
X110887998Y-83613486D01*
X110988402Y-83756877D01*
X111143123Y-83911598D01*
X111322361Y-84037102D01*
X111520670Y-84129575D01*
X111732023Y-84186207D01*
X111914926Y-84202208D01*
X111949998Y-84205277D01*
X111950000Y-84205277D01*
X111950002Y-84205277D01*
X111978254Y-84202805D01*
X112167977Y-84186207D01*
X112379330Y-84129575D01*
X112577639Y-84037102D01*
X112756877Y-83911598D01*
X112911598Y-83756877D01*
X113037102Y-83577639D01*
X113129575Y-83379330D01*
X113186207Y-83167977D01*
X113205277Y-82950000D01*
X113190794Y-82784462D01*
X113204560Y-82715966D01*
X113253175Y-82665783D01*
X113321204Y-82649849D01*
X113387048Y-82673224D01*
X113405551Y-82689675D01*
X113497242Y-82789277D01*
X113497252Y-82789286D01*
X113690208Y-82939470D01*
X113690212Y-82939473D01*
X113905267Y-83055855D01*
X113905270Y-83055856D01*
X114136541Y-83135251D01*
X114136543Y-83135251D01*
X114136545Y-83135252D01*
X114377737Y-83175500D01*
X114377738Y-83175500D01*
X114622262Y-83175500D01*
X114622263Y-83175500D01*
X114863455Y-83135252D01*
X114874137Y-83131584D01*
X114943932Y-83128431D01*
X115004356Y-83163513D01*
X115036220Y-83225694D01*
X115029409Y-83295231D01*
X115002085Y-83336545D01*
X112169195Y-86169435D01*
X112107872Y-86202920D01*
X112070708Y-86205282D01*
X111950004Y-86194723D01*
X111949998Y-86194723D01*
X111804682Y-86207436D01*
X111732023Y-86213793D01*
X111732020Y-86213793D01*
X111520677Y-86270422D01*
X111520668Y-86270426D01*
X111322361Y-86362898D01*
X111322357Y-86362900D01*
X111143121Y-86488402D01*
X110988402Y-86643121D01*
X110862900Y-86822357D01*
X110862898Y-86822361D01*
X110770426Y-87020668D01*
X110770422Y-87020677D01*
X110713793Y-87232020D01*
X110713793Y-87232024D01*
X110694723Y-87449997D01*
X110694723Y-87450002D01*
X110713793Y-87667975D01*
X110713793Y-87667979D01*
X110770422Y-87879322D01*
X110770424Y-87879326D01*
X110770425Y-87879330D01*
X110811744Y-87967939D01*
X110862897Y-88077638D01*
X110862898Y-88077639D01*
X110988402Y-88256877D01*
X111143123Y-88411598D01*
X111322361Y-88537102D01*
X111520670Y-88629575D01*
X111732023Y-88686207D01*
X111914926Y-88702208D01*
X111949998Y-88705277D01*
X111950000Y-88705277D01*
X111950002Y-88705277D01*
X111978254Y-88702805D01*
X112167977Y-88686207D01*
X112379330Y-88629575D01*
X112577639Y-88537102D01*
X112756877Y-88411598D01*
X112832247Y-88336227D01*
X112893566Y-88302745D01*
X112963258Y-88307729D01*
X113019192Y-88349600D01*
X113043609Y-88415064D01*
X113040407Y-88451231D01*
X113040481Y-88451244D01*
X113040322Y-88452195D01*
X113040132Y-88454345D01*
X113039638Y-88456294D01*
X113039634Y-88456316D01*
X113019443Y-88699994D01*
X113019443Y-88700005D01*
X113039634Y-88943683D01*
X113039636Y-88943695D01*
X113099663Y-89180734D01*
X113197888Y-89404666D01*
X113331632Y-89609378D01*
X113497242Y-89789277D01*
X113497252Y-89789286D01*
X113575257Y-89850000D01*
X113690212Y-89939473D01*
X113905267Y-90055855D01*
X113905270Y-90055856D01*
X114136541Y-90135251D01*
X114136543Y-90135251D01*
X114136545Y-90135252D01*
X114377737Y-90175500D01*
X114377738Y-90175500D01*
X114622262Y-90175500D01*
X114622263Y-90175500D01*
X114863455Y-90135252D01*
X115094733Y-90055855D01*
X115309788Y-89939473D01*
X115502754Y-89789281D01*
X115668368Y-89609377D01*
X115802111Y-89404667D01*
X115811944Y-89382251D01*
X115856899Y-89328765D01*
X115923635Y-89308074D01*
X115990963Y-89326748D01*
X116037507Y-89378858D01*
X116049500Y-89432060D01*
X116049500Y-92317939D01*
X116029815Y-92384978D01*
X115977011Y-92430733D01*
X115907853Y-92440677D01*
X115844297Y-92411652D01*
X115811944Y-92367750D01*
X115802110Y-92345331D01*
X115668367Y-92140621D01*
X115502757Y-91960722D01*
X115502747Y-91960713D01*
X115309791Y-91810529D01*
X115309787Y-91810526D01*
X115094734Y-91694145D01*
X115094729Y-91694143D01*
X114863458Y-91614748D01*
X114682561Y-91584562D01*
X114622263Y-91574500D01*
X114377737Y-91574500D01*
X114329498Y-91582549D01*
X114136541Y-91614748D01*
X113905270Y-91694143D01*
X113905265Y-91694145D01*
X113690212Y-91810526D01*
X113690208Y-91810529D01*
X113497252Y-91960713D01*
X113497242Y-91960722D01*
X113331632Y-92140621D01*
X113197888Y-92345333D01*
X113099663Y-92569265D01*
X113039636Y-92806304D01*
X113039634Y-92806316D01*
X113019443Y-93049994D01*
X113019443Y-93050005D01*
X113039634Y-93293683D01*
X113039637Y-93293700D01*
X113040130Y-93295645D01*
X113040099Y-93296466D01*
X113040481Y-93298756D01*
X113040010Y-93298834D01*
X113037506Y-93365466D01*
X112997551Y-93422784D01*
X112932950Y-93449401D01*
X112864214Y-93436867D01*
X112832244Y-93413769D01*
X112756878Y-93338403D01*
X112693024Y-93293692D01*
X112577639Y-93212898D01*
X112577640Y-93212898D01*
X112577638Y-93212897D01*
X112478484Y-93166661D01*
X112379330Y-93120425D01*
X112379326Y-93120424D01*
X112379322Y-93120422D01*
X112167977Y-93063793D01*
X111950002Y-93044723D01*
X111949998Y-93044723D01*
X111804682Y-93057436D01*
X111732023Y-93063793D01*
X111732020Y-93063793D01*
X111520677Y-93120422D01*
X111520668Y-93120426D01*
X111322361Y-93212898D01*
X111322357Y-93212900D01*
X111143121Y-93338402D01*
X110988402Y-93493121D01*
X110862900Y-93672357D01*
X110862898Y-93672361D01*
X110770426Y-93870668D01*
X110770422Y-93870677D01*
X110713793Y-94082020D01*
X110713793Y-94082024D01*
X110694723Y-94299997D01*
X110694723Y-94300002D01*
X110701685Y-94379575D01*
X110713402Y-94513513D01*
X110713793Y-94517975D01*
X110713793Y-94517979D01*
X110770422Y-94729322D01*
X110770424Y-94729326D01*
X110770425Y-94729330D01*
X110800171Y-94793121D01*
X110862897Y-94927638D01*
X110862898Y-94927639D01*
X110988402Y-95106877D01*
X111143123Y-95261598D01*
X111322361Y-95387102D01*
X111520670Y-95479575D01*
X111732023Y-95536207D01*
X111914926Y-95552208D01*
X111949998Y-95555277D01*
X111950000Y-95555277D01*
X111950002Y-95555277D01*
X111978254Y-95552805D01*
X112167977Y-95536207D01*
X112379330Y-95479575D01*
X112577639Y-95387102D01*
X112756877Y-95261598D01*
X112911598Y-95106877D01*
X113037102Y-94927639D01*
X113129575Y-94729330D01*
X113186207Y-94517977D01*
X113205277Y-94300000D01*
X113190794Y-94134462D01*
X113204560Y-94065966D01*
X113253175Y-94015783D01*
X113321204Y-93999849D01*
X113387048Y-94023224D01*
X113405551Y-94039675D01*
X113497242Y-94139277D01*
X113497252Y-94139286D01*
X113690208Y-94289470D01*
X113690212Y-94289473D01*
X113856709Y-94379577D01*
X113905267Y-94405855D01*
X113905270Y-94405856D01*
X114136541Y-94485251D01*
X114136543Y-94485251D01*
X114136545Y-94485252D01*
X114377737Y-94525500D01*
X114377738Y-94525500D01*
X114622262Y-94525500D01*
X114622263Y-94525500D01*
X114863455Y-94485252D01*
X114874137Y-94481584D01*
X114943932Y-94478431D01*
X115004356Y-94513513D01*
X115036220Y-94575694D01*
X115029409Y-94645231D01*
X115002085Y-94686545D01*
X112169195Y-97519435D01*
X112107872Y-97552920D01*
X112070708Y-97555282D01*
X111950004Y-97544723D01*
X111949998Y-97544723D01*
X111804682Y-97557436D01*
X111732023Y-97563793D01*
X111732020Y-97563793D01*
X111520677Y-97620422D01*
X111520668Y-97620426D01*
X111322361Y-97712898D01*
X111322357Y-97712900D01*
X111143121Y-97838402D01*
X110988402Y-97993121D01*
X110862900Y-98172357D01*
X110862898Y-98172361D01*
X110770426Y-98370668D01*
X110770422Y-98370677D01*
X110713793Y-98582020D01*
X110713793Y-98582024D01*
X110694723Y-98799997D01*
X110694723Y-98800002D01*
X110713793Y-99017975D01*
X110713793Y-99017979D01*
X110770422Y-99229322D01*
X110770424Y-99229326D01*
X110770425Y-99229330D01*
X110816661Y-99328484D01*
X110862897Y-99427638D01*
X110862898Y-99427639D01*
X110988402Y-99606877D01*
X111143123Y-99761598D01*
X111322361Y-99887102D01*
X111520670Y-99979575D01*
X111732023Y-100036207D01*
X111914926Y-100052208D01*
X111949998Y-100055277D01*
X111950000Y-100055277D01*
X111950002Y-100055277D01*
X111978254Y-100052805D01*
X112167977Y-100036207D01*
X112379330Y-99979575D01*
X112577639Y-99887102D01*
X112756877Y-99761598D01*
X112832247Y-99686227D01*
X112893566Y-99652745D01*
X112963258Y-99657729D01*
X113019192Y-99699600D01*
X113043609Y-99765064D01*
X113040407Y-99801231D01*
X113040481Y-99801244D01*
X113040322Y-99802195D01*
X113040132Y-99804345D01*
X113039638Y-99806294D01*
X113039634Y-99806316D01*
X113019443Y-100049994D01*
X113019443Y-100050005D01*
X113039634Y-100293683D01*
X113039636Y-100293695D01*
X113099663Y-100530734D01*
X113197888Y-100754666D01*
X113331632Y-100959378D01*
X113497242Y-101139277D01*
X113497252Y-101139286D01*
X113690208Y-101289470D01*
X113690212Y-101289473D01*
X113797617Y-101347598D01*
X113905267Y-101405855D01*
X113905270Y-101405856D01*
X114136541Y-101485251D01*
X114136543Y-101485251D01*
X114136545Y-101485252D01*
X114377737Y-101525500D01*
X114377738Y-101525500D01*
X114622262Y-101525500D01*
X114622263Y-101525500D01*
X114863455Y-101485252D01*
X115094733Y-101405855D01*
X115309788Y-101289473D01*
X115502754Y-101139281D01*
X115668368Y-100959377D01*
X115802111Y-100754667D01*
X115805680Y-100746530D01*
X131429500Y-100746530D01*
X131429500Y-100953469D01*
X131469868Y-101156412D01*
X131469870Y-101156420D01*
X131549059Y-101347598D01*
X131606541Y-101433626D01*
X131664024Y-101519657D01*
X131810342Y-101665975D01*
X131810345Y-101665977D01*
X131982402Y-101780941D01*
X132173580Y-101860130D01*
X132376530Y-101900499D01*
X132376534Y-101900500D01*
X132376535Y-101900500D01*
X132583466Y-101900500D01*
X132583467Y-101900499D01*
X132786420Y-101860130D01*
X132977598Y-101780941D01*
X133149655Y-101665977D01*
X133295977Y-101519655D01*
X133410941Y-101347598D01*
X133490130Y-101156420D01*
X133530500Y-100953465D01*
X133530500Y-100746535D01*
X133530499Y-100746530D01*
X140269500Y-100746530D01*
X140269500Y-100953469D01*
X140309868Y-101156412D01*
X140309870Y-101156420D01*
X140389059Y-101347598D01*
X140446541Y-101433626D01*
X140504024Y-101519657D01*
X140650342Y-101665975D01*
X140650345Y-101665977D01*
X140822402Y-101780941D01*
X141013580Y-101860130D01*
X141216530Y-101900499D01*
X141216534Y-101900500D01*
X141216535Y-101900500D01*
X141423466Y-101900500D01*
X141423467Y-101900499D01*
X141626420Y-101860130D01*
X141817598Y-101780941D01*
X141989655Y-101665977D01*
X142135977Y-101519655D01*
X142250941Y-101347598D01*
X142330130Y-101156420D01*
X142370500Y-100953465D01*
X142370500Y-100746535D01*
X142330130Y-100543580D01*
X142250941Y-100352402D01*
X142135977Y-100180345D01*
X142135975Y-100180342D01*
X141989657Y-100034024D01*
X141903626Y-99976541D01*
X141817598Y-99919059D01*
X141740447Y-99887102D01*
X141626420Y-99839870D01*
X141626412Y-99839868D01*
X141423469Y-99799500D01*
X141423465Y-99799500D01*
X141216535Y-99799500D01*
X141216530Y-99799500D01*
X141013587Y-99839868D01*
X141013579Y-99839870D01*
X140822403Y-99919058D01*
X140650342Y-100034024D01*
X140504024Y-100180342D01*
X140389058Y-100352403D01*
X140309870Y-100543579D01*
X140309868Y-100543587D01*
X140269500Y-100746530D01*
X133530499Y-100746530D01*
X133490130Y-100543580D01*
X133410941Y-100352402D01*
X133295977Y-100180345D01*
X133295975Y-100180342D01*
X133149657Y-100034024D01*
X133063626Y-99976541D01*
X132977598Y-99919059D01*
X132900447Y-99887102D01*
X132786420Y-99839870D01*
X132786412Y-99839868D01*
X132583469Y-99799500D01*
X132583465Y-99799500D01*
X132376535Y-99799500D01*
X132376530Y-99799500D01*
X132173587Y-99839868D01*
X132173579Y-99839870D01*
X131982403Y-99919058D01*
X131810342Y-100034024D01*
X131664024Y-100180342D01*
X131549058Y-100352403D01*
X131469870Y-100543579D01*
X131469868Y-100543587D01*
X131429500Y-100746530D01*
X115805680Y-100746530D01*
X115900336Y-100530736D01*
X115960364Y-100293692D01*
X115960365Y-100293683D01*
X115980557Y-100050005D01*
X115980557Y-100049994D01*
X115960365Y-99806316D01*
X115960363Y-99806304D01*
X115900336Y-99569265D01*
X115802111Y-99345333D01*
X115668367Y-99140621D01*
X115502757Y-98960722D01*
X115502747Y-98960713D01*
X115309791Y-98810529D01*
X115309787Y-98810526D01*
X115094734Y-98694145D01*
X115094729Y-98694143D01*
X114863458Y-98614748D01*
X114682561Y-98584562D01*
X114622263Y-98574500D01*
X114377737Y-98574500D01*
X114332672Y-98582020D01*
X114136541Y-98614748D01*
X113905270Y-98694143D01*
X113905265Y-98694145D01*
X113690212Y-98810526D01*
X113690208Y-98810529D01*
X113497252Y-98960713D01*
X113497248Y-98960717D01*
X113405551Y-99060325D01*
X113345664Y-99096315D01*
X113275826Y-99094214D01*
X113218210Y-99054689D01*
X113191109Y-98990290D01*
X113190794Y-98965544D01*
X113205277Y-98800000D01*
X113194716Y-98679290D01*
X113208482Y-98610792D01*
X113230560Y-98580806D01*
X117382952Y-94428416D01*
X117438873Y-94344723D01*
X117465084Y-94305495D01*
X117521658Y-94168913D01*
X117542136Y-94065966D01*
X117550500Y-94023920D01*
X117550500Y-82962229D01*
X117570185Y-82895190D01*
X117586819Y-82874548D01*
X118082948Y-82378419D01*
X118082951Y-82378416D01*
X118165084Y-82255495D01*
X118221658Y-82118913D01*
X118232627Y-82063769D01*
X118250500Y-81973920D01*
X118250500Y-81534321D01*
X118267113Y-81472321D01*
X118327179Y-81368284D01*
X118385674Y-81188256D01*
X118405460Y-81000000D01*
X118385674Y-80811744D01*
X118327179Y-80631716D01*
X118232533Y-80467784D01*
X118105871Y-80327112D01*
X118105870Y-80327111D01*
X117952734Y-80215851D01*
X117952729Y-80215848D01*
X117779807Y-80138857D01*
X117779802Y-80138855D01*
X117634001Y-80107865D01*
X117594646Y-80099500D01*
X117405354Y-80099500D01*
X117372897Y-80106398D01*
X117220197Y-80138855D01*
X117220192Y-80138857D01*
X117047270Y-80215848D01*
X117047265Y-80215851D01*
X116894129Y-80327111D01*
X116767466Y-80467785D01*
X116672821Y-80631715D01*
X116672818Y-80631722D01*
X116614327Y-80811740D01*
X116614326Y-80811744D01*
X116594540Y-81000000D01*
X116614326Y-81188256D01*
X116614327Y-81188259D01*
X116672818Y-81368277D01*
X116672821Y-81368284D01*
X116723639Y-81456304D01*
X116732887Y-81472321D01*
X116749500Y-81534321D01*
X116749500Y-81537769D01*
X116729815Y-81604808D01*
X116713181Y-81625450D01*
X116131434Y-82207197D01*
X116070111Y-82240682D01*
X116000419Y-82235698D01*
X115944486Y-82193826D01*
X115920069Y-82128362D01*
X115923548Y-82089075D01*
X115960361Y-81943704D01*
X115960362Y-81943700D01*
X115960364Y-81943692D01*
X115960365Y-81943683D01*
X115980557Y-81700005D01*
X115980557Y-81699994D01*
X115960365Y-81456316D01*
X115960363Y-81456304D01*
X115900336Y-81219265D01*
X115886734Y-81188256D01*
X115802111Y-80995333D01*
X115682167Y-80811744D01*
X115668367Y-80790621D01*
X115502757Y-80610722D01*
X115502747Y-80610713D01*
X115309791Y-80460529D01*
X115309787Y-80460526D01*
X115094734Y-80344145D01*
X115094729Y-80344143D01*
X114863458Y-80264748D01*
X114682561Y-80234562D01*
X114622263Y-80224500D01*
X114377737Y-80224500D01*
X114329498Y-80232549D01*
X114136541Y-80264748D01*
X113905270Y-80344143D01*
X113905265Y-80344145D01*
X113690212Y-80460526D01*
X113690208Y-80460529D01*
X113497252Y-80610713D01*
X113497242Y-80610722D01*
X113331632Y-80790621D01*
X113197888Y-80995333D01*
X113099663Y-81219265D01*
X113039636Y-81456304D01*
X113039634Y-81456316D01*
X113019443Y-81699994D01*
X113019443Y-81700005D01*
X113039634Y-81943683D01*
X113039637Y-81943700D01*
X113040130Y-81945645D01*
X113040099Y-81946466D01*
X113040481Y-81948756D01*
X113040010Y-81948834D01*
X113037506Y-82015466D01*
X112997551Y-82072784D01*
X112932950Y-82099401D01*
X112864214Y-82086867D01*
X112832244Y-82063769D01*
X112756878Y-81988403D01*
X112736194Y-81973920D01*
X112577639Y-81862898D01*
X112577640Y-81862898D01*
X112577638Y-81862897D01*
X112478484Y-81816661D01*
X112379330Y-81770425D01*
X112379326Y-81770424D01*
X112379322Y-81770422D01*
X112167977Y-81713793D01*
X111950002Y-81694723D01*
X111949998Y-81694723D01*
X111804682Y-81707436D01*
X111732023Y-81713793D01*
X111732020Y-81713793D01*
X111520677Y-81770422D01*
X111520668Y-81770426D01*
X111322361Y-81862898D01*
X111322357Y-81862900D01*
X111143121Y-81988402D01*
X110988402Y-82143121D01*
X110862900Y-82322357D01*
X110862898Y-82322361D01*
X110770426Y-82520668D01*
X110770422Y-82520677D01*
X110713793Y-82732020D01*
X110713793Y-82732024D01*
X110696323Y-82931716D01*
X110694723Y-82950000D01*
X110100000Y-82950000D01*
X110100000Y-72200000D01*
X121194540Y-72200000D01*
X121214326Y-72388256D01*
X121214327Y-72388259D01*
X121272818Y-72568277D01*
X121272821Y-72568284D01*
X121332887Y-72672321D01*
X121349500Y-72734321D01*
X121349500Y-90513918D01*
X121349500Y-90513920D01*
X121349499Y-90513920D01*
X121378340Y-90658907D01*
X121378343Y-90658917D01*
X121434914Y-90795492D01*
X121434915Y-90795494D01*
X121434916Y-90795495D01*
X121439985Y-90803082D01*
X121467812Y-90844727D01*
X121467813Y-90844730D01*
X121517046Y-90918414D01*
X121517052Y-90918421D01*
X123579435Y-92980802D01*
X123612920Y-93042125D01*
X123615282Y-93079289D01*
X123604723Y-93199997D01*
X123604723Y-93200002D01*
X123623793Y-93417975D01*
X123623793Y-93417979D01*
X123680422Y-93629322D01*
X123680424Y-93629326D01*
X123680425Y-93629330D01*
X123684996Y-93639132D01*
X123772897Y-93827638D01*
X123797998Y-93863486D01*
X123898402Y-94006877D01*
X124053123Y-94161598D01*
X124232361Y-94287102D01*
X124430670Y-94379575D01*
X124642023Y-94436207D01*
X124824926Y-94452208D01*
X124859998Y-94455277D01*
X124860000Y-94455277D01*
X124860002Y-94455277D01*
X124888254Y-94452805D01*
X125077977Y-94436207D01*
X125289330Y-94379575D01*
X125487639Y-94287102D01*
X125666877Y-94161598D01*
X125821598Y-94006877D01*
X125923928Y-93860734D01*
X125978502Y-93817112D01*
X126048000Y-93809918D01*
X126110355Y-93841441D01*
X126145769Y-93901670D01*
X126149500Y-93931858D01*
X126149500Y-93997869D01*
X126149501Y-93997876D01*
X126155908Y-94057483D01*
X126206202Y-94192328D01*
X126206206Y-94192335D01*
X126292452Y-94307544D01*
X126292455Y-94307547D01*
X126407664Y-94393793D01*
X126407671Y-94393797D01*
X126542517Y-94444091D01*
X126542516Y-94444091D01*
X126549444Y-94444835D01*
X126602127Y-94450500D01*
X128197872Y-94450499D01*
X128257483Y-94444091D01*
X128392331Y-94393796D01*
X128507546Y-94307546D01*
X128593796Y-94192331D01*
X128644091Y-94057483D01*
X128650500Y-93997873D01*
X128650499Y-92402128D01*
X128644394Y-92345333D01*
X128644091Y-92342516D01*
X128593797Y-92207671D01*
X128593793Y-92207664D01*
X128507547Y-92092455D01*
X128507544Y-92092452D01*
X128392335Y-92006206D01*
X128392328Y-92006202D01*
X128257482Y-91955908D01*
X128257483Y-91955908D01*
X128197883Y-91949501D01*
X128197881Y-91949500D01*
X128197873Y-91949500D01*
X128197864Y-91949500D01*
X126602129Y-91949500D01*
X126602123Y-91949501D01*
X126542516Y-91955908D01*
X126407671Y-92006202D01*
X126407664Y-92006206D01*
X126292455Y-92092452D01*
X126292452Y-92092455D01*
X126206206Y-92207664D01*
X126206202Y-92207671D01*
X126155908Y-92342517D01*
X126150468Y-92393123D01*
X126149501Y-92402123D01*
X126149500Y-92402135D01*
X126149500Y-92468138D01*
X126129815Y-92535177D01*
X126077011Y-92580932D01*
X126007853Y-92590876D01*
X125944297Y-92561851D01*
X125923925Y-92539261D01*
X125821599Y-92393124D01*
X125746414Y-92317939D01*
X125666877Y-92238402D01*
X125527234Y-92140623D01*
X125487638Y-92112897D01*
X125388484Y-92066661D01*
X125289330Y-92020425D01*
X125289326Y-92020424D01*
X125289322Y-92020422D01*
X125077977Y-91963793D01*
X124860002Y-91944723D01*
X124859997Y-91944723D01*
X124739289Y-91955282D01*
X124670789Y-91941515D01*
X124640802Y-91919435D01*
X122886819Y-90165451D01*
X122853334Y-90104128D01*
X122850500Y-90077770D01*
X122850500Y-89849994D01*
X162909443Y-89849994D01*
X162909443Y-89850005D01*
X162929634Y-90093683D01*
X162929636Y-90093695D01*
X162989663Y-90330734D01*
X163087888Y-90554666D01*
X163221632Y-90759378D01*
X163368036Y-90918414D01*
X163387246Y-90939281D01*
X163580212Y-91089473D01*
X163795267Y-91205855D01*
X163795270Y-91205856D01*
X164026541Y-91285251D01*
X164026543Y-91285251D01*
X164026545Y-91285252D01*
X164267737Y-91325500D01*
X164267738Y-91325500D01*
X164512262Y-91325500D01*
X164512263Y-91325500D01*
X164753455Y-91285252D01*
X164984733Y-91205855D01*
X165199788Y-91089473D01*
X165392754Y-90939281D01*
X165485004Y-90839070D01*
X165544889Y-90803082D01*
X165614727Y-90805182D01*
X165672343Y-90844706D01*
X165699445Y-90909105D01*
X165699760Y-90933862D01*
X165685225Y-91099998D01*
X165685225Y-91100000D01*
X165704287Y-91317884D01*
X165704289Y-91317894D01*
X165760894Y-91529150D01*
X165760898Y-91529159D01*
X165853333Y-91727387D01*
X165896874Y-91789571D01*
X166457037Y-91229408D01*
X166474075Y-91292993D01*
X166539901Y-91407007D01*
X166632993Y-91500099D01*
X166747007Y-91565925D01*
X166810590Y-91582962D01*
X166250427Y-92143124D01*
X166312612Y-92186666D01*
X166510840Y-92279101D01*
X166510849Y-92279105D01*
X166722105Y-92335710D01*
X166722115Y-92335712D01*
X166939999Y-92354775D01*
X166940001Y-92354775D01*
X167157884Y-92335712D01*
X167157894Y-92335710D01*
X167369150Y-92279105D01*
X167369164Y-92279100D01*
X167567383Y-92186669D01*
X167567385Y-92186668D01*
X167629571Y-92143124D01*
X167069410Y-91582962D01*
X167132993Y-91565925D01*
X167247007Y-91500099D01*
X167340099Y-91407007D01*
X167405925Y-91292993D01*
X167422962Y-91229409D01*
X167983124Y-91789570D01*
X168026668Y-91727385D01*
X168026669Y-91727383D01*
X168119100Y-91529164D01*
X168119105Y-91529150D01*
X168175710Y-91317894D01*
X168175712Y-91317884D01*
X168194775Y-91100000D01*
X168194775Y-91099999D01*
X168175712Y-90882115D01*
X168175710Y-90882105D01*
X168119105Y-90670849D01*
X168119101Y-90670840D01*
X168026667Y-90472614D01*
X168026666Y-90472612D01*
X167983124Y-90410428D01*
X167983124Y-90410427D01*
X167422962Y-90970589D01*
X167405925Y-90907007D01*
X167340099Y-90792993D01*
X167247007Y-90699901D01*
X167132993Y-90634075D01*
X167069409Y-90617037D01*
X167629571Y-90056874D01*
X167567387Y-90013333D01*
X167369159Y-89920898D01*
X167369150Y-89920894D01*
X167157894Y-89864289D01*
X167157884Y-89864287D01*
X166940001Y-89845225D01*
X166939999Y-89845225D01*
X166722115Y-89864287D01*
X166722105Y-89864289D01*
X166510849Y-89920894D01*
X166510840Y-89920898D01*
X166312613Y-90013333D01*
X166250428Y-90056874D01*
X166810591Y-90617037D01*
X166747007Y-90634075D01*
X166632993Y-90699901D01*
X166539901Y-90792993D01*
X166474075Y-90907007D01*
X166457037Y-90970591D01*
X165880889Y-90394443D01*
X165872633Y-90392784D01*
X165822453Y-90344166D01*
X165806524Y-90276137D01*
X165810125Y-90252591D01*
X165850364Y-90093692D01*
X165850365Y-90093683D01*
X165870557Y-89850005D01*
X165870557Y-89849994D01*
X165850365Y-89606316D01*
X165850363Y-89606304D01*
X165793625Y-89382251D01*
X165790336Y-89369264D01*
X165692111Y-89145333D01*
X165558368Y-88940623D01*
X165558367Y-88940621D01*
X165392757Y-88760722D01*
X165392747Y-88760713D01*
X165199791Y-88610529D01*
X165199787Y-88610526D01*
X164984734Y-88494145D01*
X164984729Y-88494143D01*
X164753458Y-88414748D01*
X164572561Y-88384562D01*
X164512263Y-88374500D01*
X164267737Y-88374500D01*
X164219498Y-88382549D01*
X164026541Y-88414748D01*
X163795270Y-88494143D01*
X163795265Y-88494145D01*
X163580212Y-88610526D01*
X163580208Y-88610529D01*
X163387252Y-88760713D01*
X163387242Y-88760722D01*
X163221632Y-88940621D01*
X163087888Y-89145333D01*
X162989663Y-89369265D01*
X162929636Y-89606304D01*
X162929634Y-89606316D01*
X162909443Y-89849994D01*
X122850500Y-89849994D01*
X122850500Y-83300000D01*
X128944540Y-83300000D01*
X128964326Y-83488256D01*
X128964327Y-83488259D01*
X129022818Y-83668277D01*
X129022821Y-83668284D01*
X129117467Y-83832216D01*
X129188939Y-83911593D01*
X129244129Y-83972888D01*
X129397265Y-84084148D01*
X129397270Y-84084151D01*
X129570192Y-84161142D01*
X129570197Y-84161144D01*
X129755354Y-84200500D01*
X129755355Y-84200500D01*
X129944644Y-84200500D01*
X129944646Y-84200500D01*
X130129803Y-84161144D01*
X130302730Y-84084151D01*
X130454090Y-83974182D01*
X130519896Y-83950702D01*
X130526975Y-83950500D01*
X137630191Y-83950500D01*
X137697230Y-83970185D01*
X137742985Y-84022989D01*
X137752929Y-84092147D01*
X137723904Y-84155703D01*
X137717872Y-84162181D01*
X137544727Y-84335325D01*
X137544726Y-84335326D01*
X137473534Y-84441874D01*
X137424499Y-84560255D01*
X137424497Y-84560261D01*
X137399500Y-84685928D01*
X137399500Y-86079078D01*
X137379815Y-86146117D01*
X137367650Y-86162050D01*
X137317466Y-86217785D01*
X137222821Y-86381715D01*
X137222818Y-86381722D01*
X137164521Y-86561144D01*
X137164326Y-86561744D01*
X137144540Y-86750000D01*
X137164326Y-86938256D01*
X137164327Y-86938259D01*
X137222818Y-87118277D01*
X137222821Y-87118284D01*
X137317467Y-87282216D01*
X137444129Y-87422888D01*
X137597265Y-87534148D01*
X137597270Y-87534151D01*
X137770192Y-87611142D01*
X137770197Y-87611144D01*
X137955354Y-87650500D01*
X137955355Y-87650500D01*
X138144644Y-87650500D01*
X138144646Y-87650500D01*
X138329803Y-87611144D01*
X138502730Y-87534151D01*
X138655871Y-87422888D01*
X138782533Y-87282216D01*
X138877179Y-87118284D01*
X138935674Y-86938256D01*
X138955460Y-86750000D01*
X138935674Y-86561744D01*
X138877179Y-86381716D01*
X138782533Y-86217784D01*
X138732350Y-86162050D01*
X138702120Y-86099058D01*
X138700500Y-86079078D01*
X138700500Y-85070808D01*
X138720185Y-85003769D01*
X138736819Y-84983127D01*
X144605273Y-79114673D01*
X144605277Y-79114669D01*
X144676465Y-79008127D01*
X144725501Y-78889744D01*
X144733506Y-78849500D01*
X144750500Y-78764069D01*
X144750500Y-75970807D01*
X144770185Y-75903768D01*
X144786819Y-75883126D01*
X146333126Y-74336819D01*
X146394449Y-74303334D01*
X146420807Y-74300500D01*
X149814071Y-74300500D01*
X149898615Y-74283682D01*
X149939744Y-74275501D01*
X150058127Y-74226465D01*
X150089839Y-74205276D01*
X150164669Y-74155277D01*
X150333127Y-73986819D01*
X150394450Y-73953334D01*
X150420808Y-73950500D01*
X150444644Y-73950500D01*
X150444646Y-73950500D01*
X150629803Y-73911144D01*
X150629813Y-73911139D01*
X150635982Y-73909136D01*
X150636459Y-73910605D01*
X150697909Y-73902361D01*
X150761188Y-73931983D01*
X150771251Y-73941949D01*
X150844129Y-74022888D01*
X150844132Y-74022890D01*
X150997265Y-74134148D01*
X150997270Y-74134151D01*
X151170197Y-74211144D01*
X151287933Y-74236169D01*
X151349412Y-74269360D01*
X151349831Y-74269777D01*
X152487528Y-75407474D01*
X152521013Y-75468797D01*
X152516029Y-75538489D01*
X152474157Y-75594422D01*
X152425629Y-75616445D01*
X152320196Y-75638856D01*
X152320192Y-75638857D01*
X152147270Y-75715848D01*
X152147265Y-75715851D01*
X151994129Y-75827111D01*
X151867466Y-75967785D01*
X151772821Y-76131715D01*
X151772818Y-76131722D01*
X151714327Y-76311740D01*
X151714326Y-76311744D01*
X151694540Y-76500000D01*
X151714326Y-76688256D01*
X151714327Y-76688259D01*
X151772818Y-76868277D01*
X151772820Y-76868282D01*
X151772821Y-76868284D01*
X151867467Y-77032216D01*
X151902748Y-77071399D01*
X151917734Y-77088043D01*
X151947964Y-77151034D01*
X151948987Y-77158862D01*
X151949500Y-77164071D01*
X151969074Y-77262476D01*
X151970613Y-77270210D01*
X151974499Y-77289744D01*
X152023535Y-77408127D01*
X152094723Y-77514669D01*
X152094726Y-77514673D01*
X152094727Y-77514674D01*
X152413181Y-77833127D01*
X152446666Y-77894450D01*
X152449500Y-77920808D01*
X152449500Y-80379191D01*
X152429815Y-80446230D01*
X152413181Y-80466872D01*
X149951137Y-82928915D01*
X149889814Y-82962400D01*
X149820122Y-82957416D01*
X149764189Y-82915544D01*
X149740135Y-82854197D01*
X149735674Y-82811744D01*
X149677179Y-82631716D01*
X149582533Y-82467784D01*
X149455871Y-82327112D01*
X149455870Y-82327111D01*
X149302734Y-82215851D01*
X149302729Y-82215848D01*
X149129807Y-82138857D01*
X149129802Y-82138855D01*
X148984001Y-82107865D01*
X148944646Y-82099500D01*
X148755354Y-82099500D01*
X148722897Y-82106398D01*
X148570197Y-82138855D01*
X148570192Y-82138857D01*
X148397270Y-82215848D01*
X148397265Y-82215851D01*
X148244129Y-82327111D01*
X148244128Y-82327112D01*
X148166649Y-82413161D01*
X148107163Y-82449809D01*
X148037306Y-82448478D01*
X147979258Y-82409591D01*
X147951448Y-82345494D01*
X147950500Y-82330188D01*
X147950500Y-80670808D01*
X147970185Y-80603769D01*
X147986819Y-80583127D01*
X149355273Y-79214673D01*
X149355277Y-79214669D01*
X149426465Y-79108127D01*
X149475501Y-78989744D01*
X149479574Y-78969266D01*
X149500500Y-78864069D01*
X149500500Y-77220921D01*
X149520185Y-77153882D01*
X149532351Y-77137948D01*
X149582533Y-77082216D01*
X149677179Y-76918284D01*
X149735674Y-76738256D01*
X149755460Y-76550000D01*
X149735674Y-76361744D01*
X149677179Y-76181716D01*
X149582533Y-76017784D01*
X149455871Y-75877112D01*
X149455870Y-75877111D01*
X149302734Y-75765851D01*
X149302729Y-75765848D01*
X149129807Y-75688857D01*
X149129802Y-75688855D01*
X148984001Y-75657865D01*
X148944646Y-75649500D01*
X148755354Y-75649500D01*
X148722897Y-75656398D01*
X148570197Y-75688855D01*
X148570192Y-75688857D01*
X148397270Y-75765848D01*
X148397265Y-75765851D01*
X148244129Y-75877111D01*
X148117468Y-76017783D01*
X148117466Y-76017784D01*
X148022821Y-76181715D01*
X148022818Y-76181722D01*
X147964327Y-76361740D01*
X147964326Y-76361744D01*
X147944540Y-76550000D01*
X147964326Y-76738256D01*
X147964327Y-76738259D01*
X148022818Y-76918277D01*
X148022821Y-76918284D01*
X148117181Y-77081722D01*
X148117467Y-77082216D01*
X148152317Y-77120921D01*
X148167649Y-77137948D01*
X148197880Y-77200940D01*
X148199500Y-77220921D01*
X148199500Y-78479191D01*
X148179815Y-78546230D01*
X148163181Y-78566872D01*
X146794727Y-79935325D01*
X146794726Y-79935326D01*
X146739535Y-80017928D01*
X146723533Y-80041876D01*
X146674499Y-80160255D01*
X146674497Y-80160261D01*
X146649500Y-80285928D01*
X146649500Y-84884608D01*
X146629815Y-84951647D01*
X146617656Y-84967574D01*
X146617468Y-84967782D01*
X146617464Y-84967787D01*
X146522821Y-85131715D01*
X146522818Y-85131722D01*
X146464327Y-85311740D01*
X146464326Y-85311744D01*
X146444540Y-85500000D01*
X146464326Y-85688256D01*
X146464327Y-85688259D01*
X146522818Y-85868277D01*
X146522821Y-85868284D01*
X146617467Y-86032216D01*
X146734370Y-86162050D01*
X146744129Y-86172888D01*
X146897265Y-86284148D01*
X146897270Y-86284151D01*
X147070192Y-86361142D01*
X147070197Y-86361144D01*
X147255354Y-86400500D01*
X147255355Y-86400500D01*
X147444644Y-86400500D01*
X147444646Y-86400500D01*
X147629803Y-86361144D01*
X147802730Y-86284151D01*
X147955871Y-86172888D01*
X148010340Y-86112393D01*
X148069827Y-86075745D01*
X148139684Y-86077076D01*
X148194638Y-86112393D01*
X148285940Y-86213793D01*
X148294129Y-86222888D01*
X148447265Y-86334148D01*
X148447270Y-86334151D01*
X148620192Y-86411142D01*
X148620197Y-86411144D01*
X148805354Y-86450500D01*
X148805355Y-86450500D01*
X148994644Y-86450500D01*
X148994646Y-86450500D01*
X149179803Y-86411144D01*
X149352730Y-86334151D01*
X149505871Y-86222888D01*
X149580361Y-86140157D01*
X149639846Y-86103510D01*
X149709703Y-86104840D01*
X149764659Y-86140158D01*
X149791020Y-86169435D01*
X149794129Y-86172888D01*
X149947265Y-86284148D01*
X149947270Y-86284151D01*
X150120192Y-86361142D01*
X150120197Y-86361144D01*
X150305354Y-86400500D01*
X150305355Y-86400500D01*
X150494644Y-86400500D01*
X150494646Y-86400500D01*
X150679803Y-86361144D01*
X150852730Y-86284151D01*
X151005871Y-86172888D01*
X151132533Y-86032216D01*
X151227179Y-85868284D01*
X151285674Y-85688256D01*
X151305460Y-85500000D01*
X151285674Y-85311744D01*
X151227179Y-85131716D01*
X151132533Y-84967784D01*
X151082350Y-84912050D01*
X151052120Y-84849058D01*
X151050500Y-84829078D01*
X151050500Y-83720808D01*
X151070185Y-83653769D01*
X151086819Y-83633127D01*
X153605272Y-81114674D01*
X153605277Y-81114669D01*
X153676466Y-81008126D01*
X153725501Y-80889743D01*
X153738888Y-80822447D01*
X153750500Y-80764069D01*
X153750500Y-77535931D01*
X153750500Y-77535928D01*
X153725502Y-77410261D01*
X153725501Y-77410260D01*
X153725501Y-77410256D01*
X153676465Y-77291873D01*
X153671305Y-77284151D01*
X153605277Y-77185331D01*
X153605275Y-77185329D01*
X153605273Y-77185326D01*
X153443600Y-77023653D01*
X153410115Y-76962330D01*
X153415099Y-76892638D01*
X153423892Y-76873975D01*
X153427179Y-76868284D01*
X153485674Y-76688256D01*
X153485674Y-76688248D01*
X153487024Y-76681903D01*
X153488977Y-76682318D01*
X153511944Y-76626456D01*
X153569231Y-76586457D01*
X153639049Y-76583779D01*
X153696381Y-76616327D01*
X155363181Y-78283127D01*
X155396666Y-78344450D01*
X155399500Y-78370808D01*
X155399500Y-84714069D01*
X155399500Y-84714071D01*
X155399499Y-84714071D01*
X155421665Y-84825498D01*
X155424497Y-84839739D01*
X155424500Y-84839746D01*
X155462798Y-84932207D01*
X155473535Y-84958127D01*
X155534588Y-85049500D01*
X155544726Y-85064673D01*
X156685327Y-86205274D01*
X156685330Y-86205276D01*
X156782833Y-86270425D01*
X156782836Y-86270427D01*
X156791866Y-86276461D01*
X156791873Y-86276465D01*
X156910256Y-86325501D01*
X156910260Y-86325501D01*
X156910261Y-86325502D01*
X157035928Y-86350500D01*
X157035931Y-86350500D01*
X159723025Y-86350500D01*
X159790064Y-86370185D01*
X159795910Y-86374182D01*
X159947265Y-86484148D01*
X159947270Y-86484151D01*
X160120192Y-86561142D01*
X160120197Y-86561144D01*
X160305354Y-86600500D01*
X160305355Y-86600500D01*
X160494644Y-86600500D01*
X160494646Y-86600500D01*
X160679803Y-86561144D01*
X160852730Y-86484151D01*
X161005871Y-86372888D01*
X161132533Y-86232216D01*
X161168453Y-86170000D01*
X165200261Y-86170000D01*
X166158012Y-86170000D01*
X166140795Y-86179940D01*
X166084940Y-86235795D01*
X166045444Y-86304204D01*
X166025000Y-86380504D01*
X166025000Y-86459496D01*
X166045444Y-86535796D01*
X166084940Y-86604205D01*
X166140795Y-86660060D01*
X166158012Y-86670000D01*
X165200261Y-86670000D01*
X165203315Y-86689285D01*
X165203318Y-86689295D01*
X165259250Y-86861441D01*
X165259252Y-86861447D01*
X165341434Y-87022734D01*
X165447823Y-87169169D01*
X165575830Y-87297176D01*
X165722265Y-87403565D01*
X165883552Y-87485747D01*
X165883555Y-87485748D01*
X166055706Y-87541682D01*
X166234494Y-87570000D01*
X166575000Y-87570000D01*
X166575000Y-86720000D01*
X167075000Y-86720000D01*
X167075000Y-87570000D01*
X167415506Y-87570000D01*
X167594293Y-87541682D01*
X167766444Y-87485748D01*
X167766447Y-87485747D01*
X167927734Y-87403565D01*
X168074169Y-87297176D01*
X168202176Y-87169169D01*
X168308565Y-87022734D01*
X168390747Y-86861447D01*
X168390749Y-86861441D01*
X168446681Y-86689295D01*
X168446684Y-86689285D01*
X168449739Y-86670000D01*
X167491988Y-86670000D01*
X167509205Y-86660060D01*
X167565060Y-86604205D01*
X167604556Y-86535796D01*
X167625000Y-86459496D01*
X167625000Y-86380504D01*
X167604556Y-86304204D01*
X167565060Y-86235795D01*
X167509205Y-86179940D01*
X167491988Y-86170000D01*
X168449739Y-86170000D01*
X168446684Y-86150714D01*
X168446681Y-86150704D01*
X168390749Y-85978558D01*
X168390747Y-85978552D01*
X168308565Y-85817265D01*
X168202176Y-85670830D01*
X168074173Y-85542827D01*
X168074171Y-85542826D01*
X168062927Y-85534656D01*
X168020262Y-85479326D01*
X168014284Y-85409712D01*
X168028425Y-85372341D01*
X168062984Y-85312485D01*
X168100500Y-85172475D01*
X168100500Y-85027525D01*
X168062984Y-84887515D01*
X168054724Y-84873209D01*
X167990511Y-84761988D01*
X167990506Y-84761982D01*
X167888017Y-84659493D01*
X167888011Y-84659488D01*
X167762488Y-84587017D01*
X167762489Y-84587017D01*
X167751006Y-84583940D01*
X167622475Y-84549500D01*
X167477525Y-84549500D01*
X167348993Y-84583940D01*
X167337511Y-84587017D01*
X167211988Y-84659488D01*
X167211982Y-84659493D01*
X167109493Y-84761982D01*
X167109488Y-84761988D01*
X167037017Y-84887511D01*
X167037016Y-84887515D01*
X166999500Y-85027525D01*
X166999500Y-85172475D01*
X167037016Y-85312485D01*
X167048118Y-85331715D01*
X167058386Y-85349498D01*
X167075000Y-85411500D01*
X167075000Y-86120000D01*
X166575000Y-86120000D01*
X166575000Y-85270000D01*
X166234494Y-85270000D01*
X166055706Y-85298317D01*
X165883555Y-85354251D01*
X165883552Y-85354252D01*
X165722265Y-85436434D01*
X165575830Y-85542823D01*
X165447823Y-85670830D01*
X165341434Y-85817265D01*
X165259252Y-85978552D01*
X165259250Y-85978558D01*
X165203318Y-86150704D01*
X165203315Y-86150714D01*
X165200261Y-86170000D01*
X161168453Y-86170000D01*
X161227179Y-86068284D01*
X161285674Y-85888256D01*
X161305460Y-85700000D01*
X161285674Y-85511744D01*
X161227179Y-85331716D01*
X161132533Y-85167784D01*
X161005871Y-85027112D01*
X161005870Y-85027111D01*
X160852734Y-84915851D01*
X160852729Y-84915848D01*
X160679807Y-84838857D01*
X160679802Y-84838855D01*
X160534001Y-84807865D01*
X160494646Y-84799500D01*
X160353954Y-84799500D01*
X160286915Y-84779815D01*
X160241160Y-84727011D01*
X160231216Y-84657853D01*
X160234617Y-84643227D01*
X160235672Y-84638261D01*
X160235674Y-84638256D01*
X160255460Y-84450000D01*
X160235674Y-84261744D01*
X160177179Y-84081716D01*
X160082533Y-83917784D01*
X159955871Y-83777112D01*
X159953743Y-83775566D01*
X159802734Y-83665851D01*
X159802729Y-83665848D01*
X159629807Y-83588857D01*
X159629805Y-83588856D01*
X159598717Y-83582248D01*
X159537236Y-83549054D01*
X159503460Y-83487890D01*
X159500500Y-83460958D01*
X159500500Y-77685928D01*
X159475502Y-77560261D01*
X159475501Y-77560260D01*
X159475501Y-77560256D01*
X159462323Y-77528443D01*
X159453565Y-77468027D01*
X159455460Y-77450002D01*
X159455460Y-77450000D01*
X159435674Y-77261744D01*
X159379235Y-77088043D01*
X159377181Y-77081722D01*
X159377180Y-77081721D01*
X159377179Y-77081716D01*
X159282533Y-76917784D01*
X159155871Y-76777112D01*
X159155870Y-76777111D01*
X159002734Y-76665851D01*
X159002729Y-76665848D01*
X158829807Y-76588857D01*
X158829802Y-76588855D01*
X158684001Y-76557865D01*
X158644646Y-76549500D01*
X158577568Y-76549500D01*
X158510529Y-76529815D01*
X158464774Y-76477011D01*
X158454247Y-76438462D01*
X158452473Y-76421581D01*
X158435674Y-76261744D01*
X158381112Y-76093823D01*
X158377181Y-76081722D01*
X158377180Y-76081721D01*
X158377179Y-76081716D01*
X158377176Y-76081710D01*
X158374538Y-76075786D01*
X158377062Y-76074661D01*
X158363470Y-76018569D01*
X158386339Y-75952547D01*
X158441271Y-75909371D01*
X158487328Y-75900500D01*
X159960663Y-75900500D01*
X160027702Y-75920185D01*
X160033548Y-75924182D01*
X160047265Y-75934148D01*
X160047270Y-75934151D01*
X160220192Y-76011142D01*
X160220197Y-76011144D01*
X160405354Y-76050500D01*
X160405355Y-76050500D01*
X160594644Y-76050500D01*
X160594646Y-76050500D01*
X160779803Y-76011144D01*
X160952730Y-75934151D01*
X161105871Y-75822888D01*
X161232533Y-75682216D01*
X161327179Y-75518284D01*
X161385674Y-75338256D01*
X161405460Y-75150000D01*
X161385674Y-74961744D01*
X161327179Y-74781716D01*
X161232533Y-74617784D01*
X161105871Y-74477112D01*
X161105870Y-74477111D01*
X160952734Y-74365851D01*
X160952729Y-74365848D01*
X160779807Y-74288857D01*
X160779802Y-74288855D01*
X160633944Y-74257853D01*
X160594646Y-74249500D01*
X160405354Y-74249500D01*
X160372897Y-74256398D01*
X160220197Y-74288855D01*
X160220192Y-74288857D01*
X160047270Y-74365848D01*
X160047265Y-74365851D01*
X160033548Y-74375818D01*
X159967742Y-74399298D01*
X159960663Y-74399500D01*
X158450726Y-74399500D01*
X158383687Y-74379815D01*
X158337932Y-74327011D01*
X158327988Y-74257853D01*
X158343339Y-74213500D01*
X158364302Y-74177190D01*
X158427179Y-74068284D01*
X158485674Y-73888256D01*
X158505460Y-73700000D01*
X158485674Y-73511744D01*
X158427179Y-73331716D01*
X158332533Y-73167784D01*
X158282350Y-73112050D01*
X158252120Y-73049058D01*
X158250500Y-73029078D01*
X158250500Y-72320808D01*
X158270185Y-72253769D01*
X158286819Y-72233127D01*
X161305271Y-69214675D01*
X161305276Y-69214670D01*
X161376465Y-69108127D01*
X161425501Y-68989744D01*
X161433682Y-68948615D01*
X161450500Y-68864071D01*
X161450500Y-68420921D01*
X161470185Y-68353882D01*
X161482351Y-68337948D01*
X161487958Y-68331721D01*
X161532533Y-68282216D01*
X161627179Y-68118284D01*
X161685674Y-67938256D01*
X161705460Y-67750000D01*
X161685674Y-67561744D01*
X161627179Y-67381716D01*
X161532533Y-67217784D01*
X161405871Y-67077112D01*
X161405870Y-67077111D01*
X161252734Y-66965851D01*
X161252729Y-66965848D01*
X161079807Y-66888857D01*
X161079802Y-66888855D01*
X160934001Y-66857865D01*
X160894646Y-66849500D01*
X160705354Y-66849500D01*
X160672897Y-66856398D01*
X160520197Y-66888855D01*
X160520192Y-66888857D01*
X160347270Y-66965848D01*
X160347265Y-66965851D01*
X160194129Y-67077111D01*
X160067466Y-67217785D01*
X159972821Y-67381715D01*
X159972818Y-67381722D01*
X159918142Y-67550000D01*
X159914326Y-67561744D01*
X159894540Y-67750000D01*
X159914326Y-67938256D01*
X159914327Y-67938259D01*
X159972818Y-68118277D01*
X159972821Y-68118284D01*
X160038514Y-68232069D01*
X160067467Y-68282216D01*
X160112037Y-68331716D01*
X160117649Y-68337948D01*
X160147880Y-68400940D01*
X160149500Y-68420921D01*
X160149500Y-68479192D01*
X160129815Y-68546231D01*
X160113181Y-68566873D01*
X157094725Y-71585328D01*
X157094724Y-71585329D01*
X157039632Y-71667783D01*
X157039631Y-71667784D01*
X157023534Y-71691874D01*
X156974499Y-71810255D01*
X156974497Y-71810261D01*
X156949500Y-71935928D01*
X156949500Y-73029078D01*
X156929815Y-73096117D01*
X156917650Y-73112050D01*
X156867466Y-73167785D01*
X156772821Y-73331715D01*
X156772818Y-73331722D01*
X156714327Y-73511740D01*
X156714326Y-73511744D01*
X156694540Y-73700000D01*
X156714326Y-73888256D01*
X156714327Y-73888259D01*
X156772818Y-74068277D01*
X156772821Y-74068284D01*
X156856661Y-74213500D01*
X156873134Y-74281401D01*
X156850281Y-74347427D01*
X156795360Y-74390618D01*
X156749274Y-74399500D01*
X155312229Y-74399500D01*
X155245190Y-74379815D01*
X155224548Y-74363181D01*
X149412770Y-68551402D01*
X149382521Y-68502041D01*
X149329204Y-68337948D01*
X149327181Y-68331721D01*
X149327178Y-68331715D01*
X149232533Y-68167784D01*
X149105871Y-68027112D01*
X149105870Y-68027111D01*
X148952734Y-67915851D01*
X148952729Y-67915848D01*
X148779807Y-67838857D01*
X148779802Y-67838855D01*
X148634001Y-67807865D01*
X148594646Y-67799500D01*
X148405354Y-67799500D01*
X148372897Y-67806398D01*
X148220197Y-67838855D01*
X148220192Y-67838857D01*
X148047270Y-67915848D01*
X148047265Y-67915851D01*
X147894129Y-68027111D01*
X147767466Y-68167785D01*
X147672821Y-68331715D01*
X147672818Y-68331722D01*
X147617479Y-68502039D01*
X147614326Y-68511744D01*
X147594540Y-68700000D01*
X147614326Y-68888256D01*
X147614327Y-68888259D01*
X147672818Y-69068277D01*
X147672821Y-69068284D01*
X147767467Y-69232216D01*
X147894129Y-69372888D01*
X148047265Y-69484148D01*
X148047270Y-69484151D01*
X148220191Y-69561142D01*
X148220193Y-69561142D01*
X148220197Y-69561144D01*
X148285329Y-69574987D01*
X148346809Y-69608178D01*
X148347228Y-69608596D01*
X150711836Y-71973204D01*
X150745321Y-72034527D01*
X150740337Y-72104219D01*
X150698465Y-72160152D01*
X150633001Y-72184569D01*
X150598375Y-72182175D01*
X150444647Y-72149500D01*
X150444646Y-72149500D01*
X150255354Y-72149500D01*
X150124959Y-72177215D01*
X150055293Y-72171899D01*
X149999560Y-72129761D01*
X149981248Y-72094240D01*
X149977180Y-72081720D01*
X149977179Y-72081716D01*
X149882533Y-71917784D01*
X149755871Y-71777112D01*
X149754090Y-71775818D01*
X149602734Y-71665851D01*
X149602729Y-71665848D01*
X149429807Y-71588857D01*
X149429802Y-71588855D01*
X149284001Y-71557865D01*
X149244646Y-71549500D01*
X149055354Y-71549500D01*
X149022897Y-71556398D01*
X148870197Y-71588855D01*
X148870192Y-71588857D01*
X148697270Y-71665848D01*
X148697265Y-71665851D01*
X148545910Y-71775818D01*
X148480104Y-71799298D01*
X148473025Y-71799500D01*
X145346590Y-71799500D01*
X145220922Y-71824497D01*
X145220916Y-71824499D01*
X145102535Y-71873534D01*
X144995987Y-71944726D01*
X142244727Y-74695986D01*
X142244721Y-74695993D01*
X142198046Y-74765848D01*
X142198047Y-74765849D01*
X142173533Y-74802535D01*
X142127494Y-74913685D01*
X142083653Y-74968088D01*
X142017358Y-74990153D01*
X141949659Y-74972874D01*
X141920783Y-74949204D01*
X141888801Y-74913685D01*
X141855871Y-74877112D01*
X141855870Y-74877111D01*
X141702734Y-74765851D01*
X141702729Y-74765848D01*
X141529807Y-74688857D01*
X141529802Y-74688855D01*
X141384001Y-74657865D01*
X141344646Y-74649500D01*
X141344645Y-74649500D01*
X141320808Y-74649500D01*
X141253769Y-74629815D01*
X141233127Y-74613181D01*
X140464674Y-73844727D01*
X140464673Y-73844726D01*
X140358131Y-73773538D01*
X140358127Y-73773535D01*
X140358122Y-73773533D01*
X140239744Y-73724499D01*
X140239740Y-73724498D01*
X140235694Y-73723693D01*
X140231648Y-73722888D01*
X140231645Y-73722887D01*
X140231645Y-73722888D01*
X140114071Y-73699500D01*
X140114069Y-73699500D01*
X138085931Y-73699500D01*
X138085929Y-73699500D01*
X137968360Y-73722887D01*
X137968355Y-73722888D01*
X137960256Y-73724499D01*
X137960255Y-73724499D01*
X137841875Y-73773533D01*
X137841866Y-73773538D01*
X137735331Y-73844723D01*
X137735327Y-73844726D01*
X135644727Y-75935325D01*
X135644727Y-75935326D01*
X135644724Y-75935329D01*
X135644723Y-75935331D01*
X135614098Y-75981166D01*
X135589632Y-76017783D01*
X135589631Y-76017784D01*
X135573534Y-76041874D01*
X135524499Y-76160255D01*
X135524497Y-76160261D01*
X135499500Y-76285928D01*
X135499500Y-78664070D01*
X135504431Y-78688856D01*
X135513795Y-78735931D01*
X135524499Y-78789744D01*
X135571214Y-78902525D01*
X135573535Y-78908127D01*
X135628063Y-78989735D01*
X135644726Y-79014673D01*
X135644727Y-79014674D01*
X136165191Y-79535137D01*
X136198676Y-79596460D01*
X136200830Y-79609851D01*
X136214326Y-79738256D01*
X136214327Y-79738259D01*
X136272818Y-79918277D01*
X136272821Y-79918284D01*
X136367467Y-80082216D01*
X136487790Y-80215848D01*
X136494129Y-80222888D01*
X136647265Y-80334148D01*
X136647270Y-80334151D01*
X136820192Y-80411142D01*
X136820197Y-80411144D01*
X137005354Y-80450500D01*
X137005355Y-80450500D01*
X137194644Y-80450500D01*
X137194646Y-80450500D01*
X137379803Y-80411144D01*
X137552730Y-80334151D01*
X137705871Y-80222888D01*
X137832533Y-80082216D01*
X137927179Y-79918284D01*
X137985674Y-79738256D01*
X138005460Y-79550000D01*
X137985674Y-79361744D01*
X137927179Y-79181716D01*
X137832533Y-79017784D01*
X137705871Y-78877112D01*
X137687919Y-78864069D01*
X137552734Y-78765851D01*
X137552729Y-78765848D01*
X137379807Y-78688857D01*
X137379802Y-78688855D01*
X137230759Y-78657176D01*
X137194646Y-78649500D01*
X137194645Y-78649500D01*
X137170808Y-78649500D01*
X137103769Y-78629815D01*
X137083127Y-78613181D01*
X136836819Y-78366873D01*
X136803334Y-78305550D01*
X136800500Y-78279192D01*
X136800500Y-76670807D01*
X136820185Y-76603768D01*
X136836819Y-76583126D01*
X138383126Y-75036819D01*
X138444449Y-75003334D01*
X138470807Y-75000500D01*
X139729192Y-75000500D01*
X139796231Y-75020185D01*
X139816873Y-75036819D01*
X140315191Y-75535137D01*
X140348676Y-75596460D01*
X140350830Y-75609851D01*
X140364326Y-75738256D01*
X140364327Y-75738259D01*
X140422818Y-75918277D01*
X140422821Y-75918284D01*
X140517467Y-76082216D01*
X140619862Y-76195937D01*
X140644129Y-76222888D01*
X140797265Y-76334148D01*
X140797270Y-76334151D01*
X140970192Y-76411142D01*
X140970197Y-76411144D01*
X141155354Y-76450500D01*
X141155355Y-76450500D01*
X141344644Y-76450500D01*
X141344646Y-76450500D01*
X141529803Y-76411144D01*
X141702730Y-76334151D01*
X141855871Y-76222888D01*
X141883351Y-76192368D01*
X141942836Y-76155721D01*
X142012693Y-76157050D01*
X142070741Y-76195937D01*
X142098551Y-76260033D01*
X142099500Y-76275341D01*
X142099500Y-78379192D01*
X142079815Y-78446231D01*
X142063181Y-78466873D01*
X137916873Y-82613181D01*
X137855550Y-82646666D01*
X137829192Y-82649500D01*
X130526975Y-82649500D01*
X130459936Y-82629815D01*
X130454090Y-82625818D01*
X130302734Y-82515851D01*
X130302729Y-82515848D01*
X130129807Y-82438857D01*
X130129802Y-82438855D01*
X129968955Y-82404667D01*
X129944646Y-82399500D01*
X129755354Y-82399500D01*
X129731045Y-82404667D01*
X129570197Y-82438855D01*
X129570192Y-82438857D01*
X129397270Y-82515848D01*
X129397265Y-82515851D01*
X129244129Y-82627111D01*
X129117466Y-82767785D01*
X129022821Y-82931715D01*
X129022818Y-82931722D01*
X128964327Y-83111740D01*
X128964326Y-83111744D01*
X128944540Y-83300000D01*
X122850500Y-83300000D01*
X122850500Y-77930000D01*
X133254540Y-77930000D01*
X133274326Y-78118256D01*
X133274327Y-78118259D01*
X133332818Y-78298277D01*
X133332821Y-78298284D01*
X133427467Y-78462216D01*
X133487752Y-78529169D01*
X133554129Y-78602888D01*
X133707265Y-78714148D01*
X133707270Y-78714151D01*
X133880192Y-78791142D01*
X133880197Y-78791144D01*
X134065354Y-78830500D01*
X134065355Y-78830500D01*
X134254644Y-78830500D01*
X134254646Y-78830500D01*
X134439803Y-78791144D01*
X134612730Y-78714151D01*
X134765871Y-78602888D01*
X134892533Y-78462216D01*
X134987179Y-78298284D01*
X135045674Y-78118256D01*
X135065460Y-77930000D01*
X135045674Y-77741744D01*
X134987179Y-77561716D01*
X134986336Y-77560256D01*
X134927113Y-77457677D01*
X134910500Y-77395677D01*
X134910500Y-76302229D01*
X134930185Y-76235190D01*
X134946814Y-76214553D01*
X142702771Y-68458595D01*
X142764092Y-68425112D01*
X142764448Y-68425034D01*
X142829803Y-68411144D01*
X143002730Y-68334151D01*
X143155871Y-68222888D01*
X143282533Y-68082216D01*
X143377179Y-67918284D01*
X143432522Y-67747956D01*
X143462768Y-67698598D01*
X146074549Y-65086819D01*
X146135872Y-65053334D01*
X146162230Y-65050500D01*
X162587770Y-65050500D01*
X162654809Y-65070185D01*
X162675451Y-65086819D01*
X163613181Y-66024548D01*
X163646666Y-66085871D01*
X163649500Y-66112229D01*
X163649500Y-67015677D01*
X163632887Y-67077677D01*
X163572821Y-67181714D01*
X163561101Y-67217785D01*
X163514326Y-67361744D01*
X163494540Y-67550000D01*
X163514326Y-67738256D01*
X163514327Y-67738259D01*
X163572818Y-67918277D01*
X163572821Y-67918284D01*
X163667467Y-68082216D01*
X163699937Y-68118277D01*
X163794129Y-68222888D01*
X163947265Y-68334148D01*
X163947270Y-68334151D01*
X164120191Y-68411142D01*
X164120193Y-68411142D01*
X164120197Y-68411144D01*
X164185329Y-68424987D01*
X164246809Y-68458178D01*
X164247228Y-68458596D01*
X164713181Y-68924549D01*
X164746666Y-68985872D01*
X164749500Y-69012230D01*
X164749500Y-74237769D01*
X164729815Y-74304808D01*
X164713181Y-74325450D01*
X162617052Y-76421578D01*
X162617049Y-76421581D01*
X162581691Y-76474498D01*
X162581692Y-76474499D01*
X162534914Y-76544508D01*
X162478343Y-76681082D01*
X162478340Y-76681092D01*
X162449500Y-76826079D01*
X162449500Y-81015677D01*
X162432887Y-81077677D01*
X162372821Y-81181714D01*
X162314327Y-81361740D01*
X162314326Y-81361744D01*
X162294540Y-81550000D01*
X162314326Y-81738256D01*
X162314327Y-81738259D01*
X162372818Y-81918277D01*
X162372821Y-81918284D01*
X162467467Y-82082216D01*
X162580001Y-82207197D01*
X162594129Y-82222888D01*
X162747265Y-82334148D01*
X162747270Y-82334151D01*
X162920192Y-82411142D01*
X162920197Y-82411144D01*
X163105354Y-82450500D01*
X163105355Y-82450500D01*
X163294644Y-82450500D01*
X163294646Y-82450500D01*
X163479803Y-82411144D01*
X163652730Y-82334151D01*
X163805871Y-82222888D01*
X163932533Y-82082216D01*
X164027179Y-81918284D01*
X164085674Y-81738256D01*
X164105460Y-81550000D01*
X164085674Y-81361744D01*
X164027179Y-81181716D01*
X163967113Y-81077677D01*
X163950500Y-81015677D01*
X163950500Y-77530000D01*
X165200261Y-77530000D01*
X166158012Y-77530000D01*
X166140795Y-77539940D01*
X166084940Y-77595795D01*
X166045444Y-77664204D01*
X166025000Y-77740504D01*
X166025000Y-77819496D01*
X166045444Y-77895796D01*
X166084940Y-77964205D01*
X166140795Y-78020060D01*
X166158012Y-78030000D01*
X165200261Y-78030000D01*
X165203315Y-78049285D01*
X165203318Y-78049295D01*
X165259250Y-78221441D01*
X165259252Y-78221447D01*
X165341434Y-78382734D01*
X165447823Y-78529169D01*
X165575830Y-78657176D01*
X165722265Y-78763565D01*
X165883552Y-78845747D01*
X165883555Y-78845748D01*
X166055706Y-78901682D01*
X166234494Y-78930000D01*
X166575000Y-78930000D01*
X166575000Y-78080000D01*
X167075000Y-78080000D01*
X167075000Y-78663499D01*
X167058387Y-78725499D01*
X167037017Y-78762512D01*
X167037016Y-78762513D01*
X167018799Y-78830500D01*
X166999500Y-78902525D01*
X166999500Y-79297475D01*
X167037016Y-79437485D01*
X167037017Y-79437488D01*
X167109488Y-79563011D01*
X167109490Y-79563013D01*
X167109491Y-79563015D01*
X167211985Y-79665509D01*
X167211986Y-79665510D01*
X167211988Y-79665511D01*
X167337511Y-79737982D01*
X167337512Y-79737982D01*
X167337515Y-79737984D01*
X167477525Y-79775500D01*
X167477528Y-79775500D01*
X167622472Y-79775500D01*
X167622475Y-79775500D01*
X167762485Y-79737984D01*
X167888015Y-79665509D01*
X167990509Y-79563015D01*
X168062984Y-79437485D01*
X168100500Y-79297475D01*
X168100500Y-78902525D01*
X168062984Y-78762515D01*
X168062983Y-78762513D01*
X168061616Y-78757411D01*
X168063279Y-78687561D01*
X168093710Y-78637636D01*
X168202172Y-78529173D01*
X168202176Y-78529169D01*
X168308565Y-78382734D01*
X168390747Y-78221447D01*
X168390749Y-78221441D01*
X168446681Y-78049295D01*
X168446684Y-78049285D01*
X168449739Y-78030000D01*
X167491988Y-78030000D01*
X167509205Y-78020060D01*
X167565060Y-77964205D01*
X167604556Y-77895796D01*
X167625000Y-77819496D01*
X167625000Y-77740504D01*
X167604556Y-77664204D01*
X167565060Y-77595795D01*
X167509205Y-77539940D01*
X167491988Y-77530000D01*
X168449739Y-77530000D01*
X168446684Y-77510714D01*
X168446681Y-77510704D01*
X168390749Y-77338558D01*
X168390747Y-77338552D01*
X168308565Y-77177265D01*
X168202176Y-77030830D01*
X168074169Y-76902823D01*
X167927734Y-76796434D01*
X167766447Y-76714252D01*
X167766444Y-76714251D01*
X167594293Y-76658317D01*
X167415506Y-76630000D01*
X167075000Y-76630000D01*
X167075000Y-77480000D01*
X166575000Y-77480000D01*
X166575000Y-76630000D01*
X166234494Y-76630000D01*
X166055706Y-76658317D01*
X165883555Y-76714251D01*
X165883552Y-76714252D01*
X165722265Y-76796434D01*
X165575830Y-76902823D01*
X165447823Y-77030830D01*
X165341434Y-77177265D01*
X165259252Y-77338552D01*
X165259250Y-77338558D01*
X165203318Y-77510704D01*
X165203315Y-77510714D01*
X165200261Y-77530000D01*
X163950500Y-77530000D01*
X163950500Y-77262229D01*
X163970185Y-77195190D01*
X163986819Y-77174548D01*
X166082948Y-75078419D01*
X166082951Y-75078416D01*
X166165084Y-74955495D01*
X166221658Y-74818913D01*
X166246109Y-74695992D01*
X166250500Y-74673920D01*
X166250500Y-68576079D01*
X166221659Y-68431092D01*
X166221658Y-68431091D01*
X166221658Y-68431087D01*
X166180500Y-68331722D01*
X166165087Y-68294511D01*
X166165085Y-68294507D01*
X166165084Y-68294505D01*
X166123367Y-68232071D01*
X166082952Y-68171584D01*
X165312769Y-67401401D01*
X165282521Y-67352041D01*
X165227179Y-67181716D01*
X165167113Y-67077677D01*
X165150500Y-67015677D01*
X165150500Y-65676081D01*
X165144763Y-65647242D01*
X165144763Y-65647240D01*
X165136991Y-65608168D01*
X165121659Y-65531088D01*
X165067408Y-65400117D01*
X165065764Y-65395522D01*
X164982954Y-65271588D01*
X164982953Y-65271587D01*
X164982951Y-65271584D01*
X164878416Y-65167049D01*
X164530588Y-64819221D01*
X163428421Y-63717052D01*
X163428414Y-63717046D01*
X163354729Y-63667812D01*
X163354729Y-63667813D01*
X163305491Y-63634913D01*
X163221193Y-63599996D01*
X166094916Y-63599996D01*
X166094916Y-63600003D01*
X166115235Y-63948869D01*
X166115236Y-63948880D01*
X166175914Y-64293002D01*
X166175916Y-64293011D01*
X166276145Y-64627800D01*
X166414555Y-64948670D01*
X166414561Y-64948683D01*
X166589289Y-65251322D01*
X166797967Y-65531625D01*
X166806148Y-65540296D01*
X168056319Y-64290124D01*
X168146554Y-64414320D01*
X168285680Y-64553446D01*
X168312251Y-64572751D01*
X168319063Y-64579264D01*
X168342592Y-64594795D01*
X168409872Y-64643678D01*
X167162818Y-65890733D01*
X167162819Y-65890734D01*
X167305484Y-66010445D01*
X167597461Y-66202480D01*
X167909739Y-66359314D01*
X167909745Y-66359316D01*
X168238130Y-66478838D01*
X168238133Y-66478839D01*
X168578171Y-66559429D01*
X168925276Y-66599999D01*
X168925277Y-66600000D01*
X169274723Y-66600000D01*
X169274723Y-66599999D01*
X169621827Y-66559429D01*
X169621829Y-66559429D01*
X169961866Y-66478839D01*
X169961869Y-66478838D01*
X170290254Y-66359316D01*
X170290260Y-66359314D01*
X170602538Y-66202480D01*
X170894509Y-66010449D01*
X170894510Y-66010448D01*
X171037179Y-65890734D01*
X171037180Y-65890733D01*
X169790991Y-64644544D01*
X169812047Y-64627752D01*
X169914320Y-64553446D01*
X169950134Y-64517631D01*
X169965574Y-64505319D01*
X169987200Y-64480565D01*
X170053446Y-64414320D01*
X170094772Y-64357439D01*
X170113315Y-64336216D01*
X170127765Y-64312028D01*
X170143679Y-64290126D01*
X171393849Y-65540297D01*
X171393851Y-65540296D01*
X171402022Y-65531636D01*
X171402033Y-65531623D01*
X171610710Y-65251322D01*
X171785438Y-64948683D01*
X171785444Y-64948670D01*
X171923854Y-64627800D01*
X172024083Y-64293011D01*
X172024085Y-64293002D01*
X172084763Y-63948880D01*
X172084764Y-63948869D01*
X172105084Y-63600003D01*
X172105084Y-63599996D01*
X172084764Y-63251130D01*
X172084763Y-63251119D01*
X172024085Y-62906997D01*
X172024083Y-62906988D01*
X171923854Y-62572199D01*
X171785444Y-62251329D01*
X171785438Y-62251316D01*
X171610710Y-61948677D01*
X171402032Y-61668374D01*
X171393850Y-61659702D01*
X170143678Y-62909873D01*
X170127767Y-62887973D01*
X170113315Y-62863784D01*
X170094772Y-62842560D01*
X170053446Y-62785680D01*
X169987200Y-62719434D01*
X169965574Y-62694681D01*
X169950133Y-62682367D01*
X169914320Y-62646554D01*
X169812059Y-62572256D01*
X169790991Y-62555455D01*
X171037180Y-61309265D01*
X171037179Y-61309264D01*
X170894519Y-61189557D01*
X170602538Y-60997519D01*
X170290260Y-60840685D01*
X170290254Y-60840683D01*
X169961869Y-60721161D01*
X169961866Y-60721160D01*
X169621828Y-60640570D01*
X169274723Y-60600000D01*
X168925277Y-60600000D01*
X168578172Y-60640570D01*
X168578170Y-60640570D01*
X168238133Y-60721160D01*
X168238130Y-60721161D01*
X167909745Y-60840683D01*
X167909739Y-60840685D01*
X167597461Y-60997519D01*
X167305480Y-61189557D01*
X167162819Y-61309264D01*
X167162818Y-61309265D01*
X168409874Y-62556320D01*
X168342597Y-62605200D01*
X168319063Y-62620736D01*
X168312251Y-62627248D01*
X168285680Y-62646554D01*
X168146554Y-62785680D01*
X168056320Y-62909873D01*
X166806148Y-61659701D01*
X166806147Y-61659702D01*
X166797976Y-61668363D01*
X166797972Y-61668368D01*
X166589289Y-61948677D01*
X166414561Y-62251316D01*
X166414555Y-62251329D01*
X166276145Y-62572199D01*
X166175916Y-62906988D01*
X166175914Y-62906997D01*
X166115236Y-63251119D01*
X166115235Y-63251130D01*
X166094916Y-63599996D01*
X163221193Y-63599996D01*
X163168917Y-63578343D01*
X163168907Y-63578340D01*
X163023920Y-63549500D01*
X163023918Y-63549500D01*
X145726082Y-63549500D01*
X145726080Y-63549500D01*
X145581092Y-63578340D01*
X145581086Y-63578342D01*
X145444508Y-63634914D01*
X145444496Y-63634921D01*
X145395269Y-63667813D01*
X145321588Y-63717044D01*
X145321580Y-63717050D01*
X142397228Y-66641402D01*
X142335905Y-66674887D01*
X142335329Y-66675011D01*
X142270196Y-66688856D01*
X142270192Y-66688857D01*
X142097270Y-66765848D01*
X142097265Y-66765851D01*
X141944129Y-66877111D01*
X141817466Y-67017785D01*
X141722821Y-67181715D01*
X141722819Y-67181719D01*
X141667479Y-67352039D01*
X141637229Y-67401401D01*
X133577049Y-75461581D01*
X133539162Y-75518283D01*
X133539163Y-75518284D01*
X133494914Y-75584508D01*
X133438343Y-75721082D01*
X133438340Y-75721092D01*
X133409500Y-75866079D01*
X133409500Y-77395677D01*
X133392887Y-77457677D01*
X133332821Y-77561714D01*
X133274729Y-77740504D01*
X133274326Y-77741744D01*
X133254540Y-77930000D01*
X122850500Y-77930000D01*
X122850500Y-72734321D01*
X122867113Y-72672321D01*
X122927179Y-72568284D01*
X122985674Y-72388256D01*
X123005460Y-72200000D01*
X122985674Y-72011744D01*
X122927179Y-71831716D01*
X122832533Y-71667784D01*
X122705871Y-71527112D01*
X122705870Y-71527111D01*
X122552734Y-71415851D01*
X122552729Y-71415848D01*
X122379807Y-71338857D01*
X122379802Y-71338855D01*
X122234001Y-71307865D01*
X122194646Y-71299500D01*
X122005354Y-71299500D01*
X121972897Y-71306398D01*
X121820197Y-71338855D01*
X121820192Y-71338857D01*
X121647270Y-71415848D01*
X121647265Y-71415851D01*
X121494129Y-71527111D01*
X121441710Y-71585329D01*
X121369208Y-71665851D01*
X121367468Y-71667783D01*
X121367466Y-71667784D01*
X121272821Y-71831715D01*
X121272818Y-71831722D01*
X121226848Y-71973204D01*
X121214326Y-72011744D01*
X121194540Y-72200000D01*
X110100000Y-72200000D01*
X110100000Y-63599996D01*
X110594916Y-63599996D01*
X110594916Y-63600003D01*
X110615235Y-63948869D01*
X110615236Y-63948880D01*
X110675914Y-64293002D01*
X110675916Y-64293011D01*
X110776145Y-64627800D01*
X110914555Y-64948670D01*
X110914561Y-64948683D01*
X111089289Y-65251322D01*
X111297967Y-65531625D01*
X111306148Y-65540296D01*
X112556319Y-64290124D01*
X112646554Y-64414320D01*
X112785680Y-64553446D01*
X112812251Y-64572751D01*
X112819063Y-64579264D01*
X112842592Y-64594795D01*
X112909872Y-64643678D01*
X111662818Y-65890733D01*
X111662819Y-65890734D01*
X111805484Y-66010445D01*
X112097461Y-66202480D01*
X112409739Y-66359314D01*
X112409745Y-66359316D01*
X112738130Y-66478838D01*
X112738133Y-66478839D01*
X113078171Y-66559429D01*
X113425276Y-66599999D01*
X113425277Y-66600000D01*
X113774723Y-66600000D01*
X113774723Y-66599999D01*
X114121827Y-66559429D01*
X114121829Y-66559429D01*
X114461866Y-66478839D01*
X114461869Y-66478838D01*
X114790254Y-66359316D01*
X114790260Y-66359314D01*
X115102538Y-66202480D01*
X115394509Y-66010449D01*
X115394510Y-66010448D01*
X115537179Y-65890734D01*
X115537180Y-65890733D01*
X114290991Y-64644544D01*
X114312047Y-64627752D01*
X114414320Y-64553446D01*
X114450134Y-64517631D01*
X114465574Y-64505319D01*
X114487200Y-64480565D01*
X114553446Y-64414320D01*
X114594772Y-64357439D01*
X114613315Y-64336216D01*
X114627765Y-64312028D01*
X114643679Y-64290126D01*
X115893849Y-65540297D01*
X115893851Y-65540296D01*
X115902022Y-65531636D01*
X115902033Y-65531623D01*
X116110710Y-65251322D01*
X116285438Y-64948683D01*
X116285444Y-64948670D01*
X116423854Y-64627800D01*
X116524083Y-64293011D01*
X116524085Y-64293002D01*
X116584763Y-63948880D01*
X116584764Y-63948869D01*
X116605084Y-63600003D01*
X116605084Y-63599996D01*
X116584764Y-63251130D01*
X116584763Y-63251119D01*
X116524085Y-62906997D01*
X116524083Y-62906988D01*
X116423854Y-62572199D01*
X116285444Y-62251329D01*
X116285438Y-62251316D01*
X116110710Y-61948677D01*
X115902032Y-61668374D01*
X115893850Y-61659702D01*
X114643678Y-62909873D01*
X114627767Y-62887973D01*
X114613315Y-62863784D01*
X114594772Y-62842560D01*
X114553446Y-62785680D01*
X114487200Y-62719434D01*
X114465574Y-62694681D01*
X114450133Y-62682367D01*
X114414320Y-62646554D01*
X114312059Y-62572256D01*
X114290991Y-62555455D01*
X115537180Y-61309265D01*
X115537179Y-61309264D01*
X115394519Y-61189557D01*
X115102538Y-60997519D01*
X114790260Y-60840685D01*
X114790254Y-60840683D01*
X114461869Y-60721161D01*
X114461866Y-60721160D01*
X114121828Y-60640570D01*
X113774723Y-60600000D01*
X113425277Y-60600000D01*
X113078172Y-60640570D01*
X113078170Y-60640570D01*
X112738133Y-60721160D01*
X112738130Y-60721161D01*
X112409745Y-60840683D01*
X112409739Y-60840685D01*
X112097461Y-60997519D01*
X111805480Y-61189557D01*
X111662819Y-61309264D01*
X111662818Y-61309265D01*
X112909874Y-62556320D01*
X112842597Y-62605200D01*
X112819063Y-62620736D01*
X112812251Y-62627248D01*
X112785680Y-62646554D01*
X112646554Y-62785680D01*
X112556320Y-62909873D01*
X111306148Y-61659701D01*
X111306147Y-61659702D01*
X111297976Y-61668363D01*
X111297972Y-61668368D01*
X111089289Y-61948677D01*
X110914561Y-62251316D01*
X110914555Y-62251329D01*
X110776145Y-62572199D01*
X110675916Y-62906988D01*
X110675914Y-62906997D01*
X110615236Y-63251119D01*
X110615235Y-63251130D01*
X110594916Y-63599996D01*
X110100000Y-63599996D01*
X110100000Y-61935357D01*
X110100764Y-61921613D01*
X110127965Y-61677721D01*
X110131398Y-61659477D01*
X110201120Y-61398353D01*
X110207231Y-61380847D01*
X110315158Y-61133051D01*
X110323815Y-61116649D01*
X110467532Y-60887734D01*
X110478536Y-60872816D01*
X110654809Y-60667931D01*
X110667934Y-60654807D01*
X110684482Y-60640570D01*
X110872816Y-60478536D01*
X110887734Y-60467532D01*
X111116649Y-60323815D01*
X111133051Y-60315158D01*
X111380847Y-60207231D01*
X111398353Y-60201120D01*
X111659482Y-60131396D01*
X111677714Y-60127966D01*
X111946967Y-60097936D01*
X111960502Y-60097173D01*
X111963318Y-60097169D01*
X111966067Y-60097196D01*
X112028550Y-60098504D01*
X112100000Y-60100000D01*
X170599993Y-60100000D01*
X170600000Y-60100000D01*
X170736244Y-60097148D01*
X170752569Y-60097884D01*
G37*
%TD.AperFunction*%
%TD*%
M02*
